SplineFontDB: 3.2
FontName: SeriousShannsLightItalic
FullName: Serious Shanns Light Italic
FamilyName: Serious Shanns Light Italic
Weight: Light
Copyright: https://github.com/kaBeech/serious-sans/blob/main/LICENSE
Version: 6.0.0
ItalicAngle: -11.8
UnderlinePosition: 0
UnderlineWidth: 0
Ascent: 800
Descent: 200
InvalidEm: 0
sfntRevision: 0x00001999
LayerCount: 2
Layer: 0 0 "Back" 1
Layer: 1 0 "Fore" 0
XUID: [1021 329 -1817886000 6804199]
StyleMap: 0x0040
FSType: 4
OS2Version: 3
OS2_WeightWidthSlopeOnly: 0
OS2_UseTypoMetrics: 0
CreationTime: 1532631502
ModificationTime: 315532800
PfmFamily: 81
TTFWeight: 300
TTFWidth: 5
LineGap: 0
VLineGap: 0
Panose: 0 0 0 0 0 0 0 0 0 0
OS2TypoAscent: 613
OS2TypoAOffset: 0
OS2TypoDescent: -188
OS2TypoDOffset: 0
OS2TypoLinegap: 98
OS2WinAscent: 778
OS2WinAOffset: 0
OS2WinDescent: 308
OS2WinDOffset: 0
HheadAscent: 796
HheadAOffset: 0
HheadDescent: -317
HheadDOffset: 0
OS2SubXSize: 317
OS2SubYSize: 293
OS2SubXOff: 0
OS2SubYOff: 37
OS2SupXSize: 317
OS2SupYSize: 293
OS2SupXOff: 0
OS2SupYOff: 171
OS2StrikeYSize: 0
OS2StrikeYPos: 132
OS2CapHeight: 576
OS2XHeight: 485
OS2Vendor: 'NONE'
OS2CodePages: 00000001.00000000
OS2UnicodeRanges: 00000001.00000000.00000000.00000000
MarkAttachClasses: 1
DEI: 91125
LangName: 1033 "" "" "Normal" "FontForge 2.0 : Serious Shanns Light Italic : 11-6-2024" "" "Version 0.1.2"
Encoding: UnicodeBmp
Compacted: 1
UnicodeInterp: none
NameList: AGL For New Fonts
DisplaySize: -48
AntiAlias: 1
FitToEm: 0
WinInfo: 64 16 4
BeginPrivate: 8
BlueValues 32 [-39 -6 490 521 685 718 765 769]
OtherBlues 11 [-304 -292]
BlueScale 9 0.0291667
BlueShift 1 3
StdHW 4 [67]
StdVW 4 [65]
StemSnapH 23 [61 62 63 65 67 94 130]
StemSnapV 14 [40 58 65 125]
EndPrivate
BeginChars: 65537 122

StartChar: .notdef
Encoding: 65536 -1 0
Width: 670
GlyphClass: 1
Flags: HMW
HStem: 688 20G<331.348 654.348 331.348 331.348>
LayerCount: 2
Fore
SplineSet
313.34765625 737 m 1
 686.34765625 737 l 1
 457.34765625 -255 l 1
 84.34765625 -255 l 1
 313.34765625 737 l 1
654.34765625 708 m 1
 331.34765625 708 l 1
 115.34765625 -226 l 1
 439.34765625 -226 l 1
 654.34765625 708 l 1
EndSplineSet
EndChar

StartChar: exclam
Encoding: 33 33 11
Width: 670
GlyphClass: 2
Flags: HMW
HStem: -13 130<314.281 377.281>
VStem: 280.781 131<27.5 80.5>
LayerCount: 2
Fore
SplineSet
431.78125 274 m 0
 427.78125 262 421.78125 253 412.78125 247 c 0
 403.78125 241 395.78125 237 386.78125 237 c 2
 383.78125 237 l 2
 374.78125 237 368.78125 240 365.78125 245 c 0
 363.78125 247 362.78125 250 362.78125 254 c 0
 362.78125 258 363.78125 264 365.78125 272 c 0
 368.78125 281 371.78125 290 375.78125 300 c 0
 379.78125 310 382.78125 318 384.78125 325 c 0
 386.78125 332 389.78125 347 395.78125 371 c 0
 401.78125 395 407.78125 423 413.78125 454 c 0
 419.78125 485 425.78125 515 432.78125 544 c 0
 439.78125 573 444.78125 593 446.78125 603 c 0
 448.78125 613 454.78125 634 463.78125 668 c 0
 472.78125 702 477.78125 724 479.78125 732 c 0
 483.78125 747 490.78125 759 498.78125 766 c 0
 506.78125 773 516.78125 777 526.78125 777 c 2
 529.78125 777 l 2
 537.78125 777 543.78125 775 546.78125 771 c 0
 548.78125 769 549.78125 764 549.78125 759 c 0
 549.78125 754 547.78125 748 546.78125 742 c 0
 545.78125 736 533.78125 691 512.78125 609 c 0
 491.78125 527 475.78125 462 464.78125 411 c 0
 453.78125 360 446.78125 330 443.78125 320 c 0
 440.78125 310 435.78125 295 431.78125 274 c 0
411.78125 75 m 0
 411.78125 70 410.78125 64 409.78125 57 c 0
 405.78125 39 397.78125 24 382.78125 11 c 0
 367.78125 -2 349.78125 -10 328.78125 -12 c 0
 326.78125 -12 323.78125 -13 321.78125 -13 c 0
 306.78125 -13 295.78125 -7 288.78125 3 c 0
 282.78125 12 280.78125 22 280.78125 33 c 0
 280.78125 38 281.78125 44 282.78125 51 c 0
 287.78125 68 296.78125 83 313.78125 96 c 0
 332.78125 110 350.78125 117 369.78125 117 c 0
 384.78125 117 397.78125 112 404.78125 102 c 0
 409.78125 95 411.78125 86 411.78125 75 c 0
EndSplineSet
EndChar

StartChar: quotedbl
Encoding: 34 34 12
Width: 670
GlyphClass: 2
Flags: HMW
HStem: 448 323<341.546 430.046 346.046 430.046 424.046 495.046 424.046 496.046>
LayerCount: 2
Fore
SplineSet
430.045898438 771 m 2
 438.045898438 771 445.045898438 769 451.045898438 765 c 0
 452.045898438 763 454.045898438 760 455.045898438 756 c 0
 456.045898438 752 456.045898438 748 455.045898438 741 c 0
 449.045898438 714 438.045898438 669 422.045898438 607 c 0
 406.045898438 545 395.045898438 502 387.045898438 479 c 0
 383.045898438 468 377.045898438 461 369.045898438 456 c 0
 361.045898438 451 354.045898438 448 347.045898438 448 c 2
 346.045898438 448 l 2
 337.045898438 448 329.045898438 452 323.045898438 457 c 0
 321.045898438 459 319.045898438 462 319.045898438 466 c 0
 319.045898438 470 320.045898438 474 321.045898438 478 c 0
 332.045898438 512 343.045898438 556 354.045898438 609 c 0
 365.045898438 662 374.045898438 706 381.045898438 741 c 0
 382.045898438 748 385.045898438 753 388.045898438 757 c 0
 391.045898438 762 395.045898438 765 399.045898438 766 c 0
 408.045898438 769 417.045898438 771 424.045898438 771 c 2
 430.045898438 771 l 2
572.045898438 607 m 0
 557.045898438 545 545.045898438 502 537.045898438 479 c 0
 533.045898438 468 527.045898438 461 519.045898438 456 c 0
 511.045898438 451 503.045898438 448 496.045898438 448 c 2
 495.045898438 448 l 2
 486.045898438 448 478.045898438 452 472.045898438 457 c 0
 470.045898438 459 469.045898438 463 469.045898438 466 c 0
 469.045898438 469 470.045898438 473 471.045898438 478 c 0
 481.045898438 512 492.045898438 556 503.045898438 609 c 0
 514.045898438 662 523.045898438 706 530.045898438 741 c 0
 531.045898438 748 534.045898438 753 538.045898438 757 c 0
 542.045898438 761 545.045898438 765 549.045898438 766 c 0
 558.045898438 769 566.045898438 771 573.045898438 771 c 2
 579.045898438 771 l 2
 584.045898438 771 588.045898438 771 591.045898438 770 c 0
 594.045898438 769 598.045898438 767 601.045898438 765 c 0
 604.045898438 763 605.045898438 758 605.045898438 751 c 0
 605.045898438 743 594.045898438 695 572.045898438 607 c 0
EndSplineSet
EndChar

StartChar: numbersign
Encoding: 35 35 13
Width: 670
GlyphClass: 2
Flags: HMW
HStem: 205 57<513.476 551.476 490.476 570.476> 457 60<414.476 524.476 390.476 548.476 414.476 632.476 414.476 589.476>
LayerCount: 2
Fore
SplineSet
294.475585938 203 m 1
 285.475585938 203 l 1
 253.475585938 126 231.475585938 74 219.475585938 47 c 0
 212.475585938 36 203.475585938 26 190.475585938 18 c 0
 181.475585938 13 173.475585938 10 167.475585938 10 c 0
 165.475585938 10 161.475585938 11 159.475585938 12 c 0
 155.475585938 12 153.475585938 14 152.475585938 16 c 0
 150.475585938 20 148.475585938 26 148.475585938 34 c 0
 148.475585938 44 150.475585938 55 156.475585938 67 c 0
 165.475585938 86 187.475585938 131 218.475585938 202 c 1
 171.475585938 202 l 2
 159.475585938 202 151.475585938 204 147.475585938 208 c 0
 145.475585938 210 142.475585938 214 142.475585938 217 c 0
 142.475585938 218 143.475585938 221 143.475585938 223 c 0
 145.475585938 232 150.475585938 241 157.475585938 247 c 0
 164.475585938 253 176.475585938 257 189.475585938 257 c 0
 194.475585938 257 201.475585938 258 211.475585938 258 c 0
 221.475585938 258 230.475585938 260 241.475585938 260 c 1
 323.475585938 456 l 1
 304.475585938 456 l 1
 266.475585938 455 l 1
 262.475585938 455 l 2
 252.475585938 455 245.475585938 457 242.475585938 461 c 0
 240.475585938 464 239.475585938 468 239.475585938 473 c 2
 239.475585938 480 l 2
 240.475585938 489 245.475585938 497 253.475585938 503 c 0
 261.475585938 509 271.475585938 514 284.475585938 514 c 2
 285.475585938 514 l 2
 297.475585938 514 316.475585938 515 340.475585938 515 c 2
 347.475585938 515 l 1
 413.475585938 677 l 2
 420.475585938 692 430.475585938 702 439.475585938 707 c 0
 446.475585938 710 451.475585938 712 456.475585938 712 c 0
 458.475585938 712 463.475585938 711 465.475585938 711 c 0
 474.475585938 709 480.475585938 705 482.475585938 698 c 0
 483.475585938 696 484.475585938 692 484.475585938 689 c 0
 484.475585938 683 481.475585938 675 477.475585938 666 c 2
 414.475585938 517 l 1
 548.475585938 517 l 1
 609.475585938 670 l 2
 616.475585938 685 624.475585938 695 634.475585938 700 c 0
 640.475585938 703 646.475585938 705 652.475585938 705 c 0
 654.475585938 705 657.475585938 704 660.475585938 704 c 0
 669.475585938 702 676.475585938 698 678.475585938 691 c 0
 678.475585938 689 679.475585938 686 679.475585938 684 c 0
 679.475585938 677 678.475585938 669 673.475585938 659 c 0
 660.475585938 633 640.475585938 586 614.475585938 519 c 1
 633.475585938 519 l 1
 643.475585938 519 l 2
 654.475585938 519 664.475585938 515 669.475585938 509 c 0
 674.475585938 504 676.475585938 500 676.475585938 495 c 0
 676.475585938 494 675.475585938 492 675.475585938 491 c 0
 673.475585938 482 667.475585938 473 660.475585938 467 c 0
 653.475585938 461 644.475585938 457 632.475585938 457 c 2
 589.475585938 457 l 1
 513.475585938 262 l 1
 570.475585938 262 l 2
 580.475585938 262 586.475585938 260 587.475585938 258 c 0
 589.475585938 254 590.475585938 248 589.475585938 239 c 0
 587.475585938 228 581.475585938 219 576.475585938 214 c 0
 570.475585938 208 562.475585938 205 551.475585938 205 c 2
 490.475585938 205 l 1
 459.475585938 124 438.475585938 70 426.475585938 43 c 0
 419.475585938 31 409.475585938 22 397.475585938 16 c 0
 389.475585938 12 382.475585938 10 376.475585938 10 c 0
 374.475585938 10 369.475585938 11 366.475585938 12 c 0
 360.475585938 13 357.475585938 18 356.475585938 25 c 0
 356.475585938 28 355.475585938 32 355.475585938 34 c 0
 355.475585938 43 358.475585938 52 363.475585938 63 c 0
 376.475585938 90 396.475585938 137 423.475585938 204 c 1
 404.475585938 204 l 1
 294.475585938 203 l 1
524.475585938 457 m 1
 390.475585938 457 l 1
 308.475585938 261 l 1
 346.475585938 262 390.475585938 263 438.475585938 263 c 2
 446.475585938 263 l 1
 471.475585938 323 497.475585938 387 524.475585938 457 c 1
EndSplineSet
EndChar

StartChar: dollar
Encoding: 36 36 14
Width: 670
GlyphClass: 2
Flags: HMW
HStem: -17 60<279.847 313.847 289.847 313.847 293.847 313.847>
VStem: 258.847 63 524.847 69<235 287>
LayerCount: 2
Fore
SplineSet
235.84765625 -8 m 0
 218.84765625 -2 205.84765625 4 194.84765625 13 c 0
 173.84765625 31 159.84765625 52 152.84765625 76 c 0
 151.84765625 82 150.84765625 89 150.84765625 95 c 0
 150.84765625 101 152.84765625 107 154.84765625 112 c 0
 158.84765625 121 164.84765625 127 173.84765625 131 c 0
 180.84765625 134 186.84765625 137 189.84765625 137 c 0
 192.84765625 137 196.84765625 138 197.84765625 138 c 2
 202.84765625 138 l 2
 203.84765625 138 205.84765625 135 207.84765625 133 c 0
 209.84765625 131 213.84765625 125 216.84765625 118 c 0
 225.84765625 96 236.84765625 77 251.84765625 64 c 0
 266.84765625 50 286.84765625 43 311.84765625 43 c 2
 313.84765625 43 l 1
 321.84765625 43 l 1
 348.84765625 161 371.84765625 268 391.84765625 365 c 1
 380.84765625 366 371.84765625 368 365.84765625 369 c 0
 359.84765625 370 353.84765625 371 349.84765625 371 c 0
 331.84765625 373 316.84765625 378 303.84765625 387 c 0
 290.84765625 396 280.84765625 406 273.84765625 419 c 0
 263.84765625 438 258.84765625 458 258.84765625 480 c 0
 258.84765625 487 259.84765625 494 261.84765625 503 c 0
 266.84765625 526 274.84765625 548 285.84765625 569 c 0
 295.84765625 590 308.84765625 610 324.84765625 628 c 0
 340.84765625 646 360.84765625 661 382.84765625 674 c 0
 404.84765625 687 429.84765625 697 456.84765625 702 c 2
 463.84765625 704 l 1
 468.84765625 725 474.84765625 747 479.84765625 769 c 0
 482.84765625 784 487.84765625 795 493.84765625 803 c 0
 499.84765625 811 505.84765625 815 514.84765625 815 c 2
 516.84765625 815 l 2
 523.84765625 815 528.84765625 814 530.84765625 811 c 0
 532.84765625 808 533.84765625 803 533.84765625 797 c 0
 533.84765625 791 531.84765625 785 530.84765625 778 c 2
 516.84765625 711 l 1
 529.84765625 710 l 2
 542.84765625 710 560.84765625 706 582.84765625 700 c 0
 604.84765625 694 620.84765625 689 631.84765625 684 c 0
 638.84765625 681 643.84765625 676 645.84765625 670 c 0
 645.84765625 668 646.84765625 664 646.84765625 660 c 0
 646.84765625 656 644.84765625 651 642.84765625 644 c 0
 641.84765625 639 639.84765625 634 635.84765625 631 c 0
 631.84765625 628 627.84765625 626 624.84765625 626 c 2
 615.84765625 626 l 2
 609.84765625 626 603.84765625 627 597.84765625 629 c 0
 592.84765625 630 586.84765625 634 579.84765625 638 c 0
 572.84765625 642 563.84765625 646 552.84765625 649 c 0
 541.84765625 652 527.84765625 655 512.84765625 655 c 2
 503.84765625 656 l 1
 490.84765625 596 472.84765625 518 451.84765625 421 c 1
 463.84765625 419 l 2
 487.84765625 415 507.84765625 408 524.84765625 399 c 0
 542.84765625 389 555.84765625 378 565.84765625 366 c 0
 575.84765625 354 582.84765625 341 586.84765625 326 c 0
 590.84765625 311 593.84765625 295 593.84765625 279 c 0
 593.84765625 263 591.84765625 247 586.84765625 227 c 0
 579.84765625 198 569.84765625 170 553.84765625 144 c 0
 537.84765625 118 520.84765625 96 500.84765625 76 c 0
 480.84765625 56 459.84765625 40 436.84765625 26 c 0
 413.84765625 12 389.84765625 1 364.84765625 -6 c 2
 358.84765625 -8 l 1
 349.84765625 -52 343.84765625 -82 341.84765625 -96 c 0
 337.84765625 -107 331.84765625 -117 323.84765625 -123 c 0
 315.84765625 -129 307.84765625 -132 298.84765625 -132 c 2
 297.84765625 -132 l 2
 295.84765625 -132 292.84765625 -131 290.84765625 -131 c 0
 287.84765625 -129 285.84765625 -125 285.84765625 -118 c 0
 285.84765625 -113 286.84765625 -106 288.84765625 -97 c 0
 293.84765625 -81 299.84765625 -54 307.84765625 -17 c 1
 293.84765625 -17 l 1
 289.84765625 -17 l 2
 269.84765625 -17 252.84765625 -14 235.84765625 -8 c 0
335.84765625 468 m 0
 348.84765625 450 367.84765625 437 393.84765625 429 c 2
 404.84765625 426 l 1
 416.84765625 480 432.84765625 555 452.84765625 651 c 1
 434.84765625 645 l 2
 406.84765625 636 382.84765625 623 362.84765625 603 c 0
 342.84765625 583 329.84765625 560 324.84765625 533 c 0
 322.84765625 526 321.84765625 520 321.84765625 513 c 0
 321.84765625 496 326.84765625 481 335.84765625 468 c 0
524.84765625 241 m 0
 524.84765625 253 522.84765625 266 517.84765625 281 c 0
 513.84765625 294 505.84765625 306 493.84765625 317 c 0
 481.84765625 328 466.84765625 338 447.84765625 346 c 2
 435.84765625 352 l 1
 432.84765625 338 l 1
 432.84765625 338 421.84765625 287 400.84765625 188 c 0
 388.84765625 133 378.84765625 88 370.84765625 53 c 1
 390.84765625 62 l 2
 422.84765625 76 450.84765625 95 474.84765625 120 c 0
 498.84765625 145 513.84765625 173 520.84765625 205 c 0
 522.84765625 217 524.84765625 229 524.84765625 241 c 0
EndSplineSet
EndChar

StartChar: percent
Encoding: 37 37 15
Width: 670
GlyphClass: 2
Flags: HMW
HStem: -16 52<425.432 460.932 433.932 460.932> 184 49<488.432 489.432> 444 51<293.432 327.932 301.932 327.932> 645 48<357.432 361.932>
VStem: 236.932 41<522.5 546.5> 368.932 41<63.5 86.5> 399.932 41<589.5 628> 530.932 35<99 143> 530.932 45<129.5 169>
LayerCount: 2
Fore
SplineSet
259.932617188 461 m 0xfa
 248.932617188 472 240.932617188 486 238.932617188 503 c 0
 237.932617188 510 236.932617188 518 236.932617188 527 c 0
 236.932617188 536 237.932617188 548 240.932617188 561 c 0
 249.932617188 600 265.932617188 631 288.932617188 656 c 0
 311.932617188 681 340.932617188 693 373.932617188 693 c 0
 399.932617188 693 418.932617188 683 430.932617188 664 c 0
 437.932617188 653 440.932617188 638 440.932617188 618 c 0
 440.932617188 601 437.932617188 581 431.932617188 559 c 0
 422.932617188 521 406.932617188 493 385.932617188 473 c 0
 364.932617188 453 337.932617188 444 302.932617188 444 c 2
 301.932617188 444 l 2
 284.932617188 444 270.932617188 450 259.932617188 461 c 0xfa
136.932617188 12 m 0
 158.932617188 44 202.932617188 104 267.932617188 192 c 2
 462.932617188 470 l 2
 528.932617188 563 574.932617188 629 600.932617188 670 c 0
 608.932617188 680 617.932617188 686 627.932617188 688 c 0
 630.932617188 688 634.932617188 689 636.932617188 689 c 0
 641.932617188 689 645.932617188 687 650.932617188 684 c 0
 653.932617188 683 655.932617188 681 656.932617188 680 c 0
 657.932617188 679 658.932617188 675 658.932617188 673 c 0
 658.932617188 665 654.932617188 654 643.932617188 641 c 0
 610.932617188 600 534.932617188 497 416.932617188 330 c 0
 301.932617188 163 222.932617188 51 180.932617188 -9 c 0
 171.932617188 -21 163.932617188 -29 156.932617188 -34 c 0
 151.932617188 -37 146.932617188 -39 142.932617188 -39 c 0
 138.932617188 -39 135.932617188 -38 132.932617188 -36 c 0
 129.932617188 -34 125.932617188 -31 124.932617188 -29 c 0
 123.932617188 -27 122.932617188 -24 122.932617188 -21 c 0
 122.932617188 -12 127.932617188 -1 136.932617188 12 c 0
325.932617188 495 m 2
 327.932617188 495 l 2
 344.932617188 495 358.932617188 501 369.932617188 514 c 0
 380.932617188 527 389.932617188 543 395.932617188 563 c 0
 397.932617188 574 399.932617188 585 399.932617188 594 c 0
 399.932617188 605 398.932617188 615 393.932617188 623 c 0
 384.932617188 638 371.932617188 645 351.932617188 645 c 0
 334.932617188 645 319.932617188 638 307.932617188 623 c 0
 296.932617188 610 287.932617188 592 281.932617188 570 c 0
 279.932617188 560 277.932617188 551 277.932617188 542 c 0
 277.932617188 533 278.932617188 526 281.932617188 519 c 0
 288.932617188 505 303.932617188 497 325.932617188 495 c 2
391.932617188 1 m 0
 380.932617188 12 373.932617188 26 370.932617188 43 c 0
 369.932617188 50 368.932617188 59 368.932617188 68 c 0xfc80
 368.932617188 77 370.932617188 88 372.932617188 101 c 0
 380.932617188 140 397.932617188 171 420.932617188 196 c 0
 443.932617188 221 471.932617188 233 504.932617188 233 c 0
 517.932617188 233 529.932617188 231 538.932617188 226 c 0
 548.932617188 221 557.932617188 214 564.932617188 204 c 0
 571.932617188 194 575.932617188 179 575.932617188 159 c 0
 575.932617188 142 572.932617188 122 565.932617188 100 c 1xfd
 565.932617188 99 l 1
 554.932617188 61 538.932617188 32 517.932617188 12 c 0
 496.932617188 -7 469.932617188 -16 436.932617188 -16 c 2
 433.932617188 -16 l 2
 416.932617188 -16 402.932617188 -10 391.932617188 1 c 0
457.932617188 36 m 2
 460.932617188 36 l 2
 476.932617188 36 490.932617188 42 501.932617188 55 c 0
 512.932617188 68 521.932617188 83 526.932617188 103 c 0
 528.932617188 114 530.932617188 125 530.932617188 134 c 0
 530.932617188 152 526.932617188 165 515.932617188 174 c 0
 506.932617188 181 495.932617188 184 482.932617188 184 c 0
 465.932617188 184 451.932617188 176 439.932617188 162 c 0
 427.932617188 149 418.932617188 131 413.932617188 110 c 0
 411.932617188 100 409.932617188 91 409.932617188 82 c 0
 409.932617188 73 411.932617188 66 414.932617188 59 c 0
 421.932617188 45 435.932617188 37 457.932617188 36 c 2
EndSplineSet
EndChar

StartChar: ampersand
Encoding: 38 38 16
Width: 670
GlyphClass: 2
Flags: HMW
HStem: -29 69 657 55
VStem: 133.865 71<105.001 142.501> 311.866 64<541.001 542.001> 478.866 71<8.00098 34>
LayerCount: 2
Fore
SplineSet
545.866210938 5 m 0
 540.866210938 -11 533.866210938 -20.9990234375 525.866210938 -23.9990234375 c 0
 520.866210938 -25.9990234375 516.866210938 -27.9990234375 512.866210938 -27.9990234375 c 0
 507.866210938 -27.9990234375 503.866210938 -25.9990234375 499.866210938 -23.9990234375 c 0
 490.866210938 -17.9990234375 483.866210938 -6.9990234375 478.866210938 8.0009765625 c 0
 478.866210938 12.0009765625 476.866210938 22.0009765625 474.866210938 38.0009765625 c 0
 472.866210938 54.0009765625 470.866210938 65.0009765625 468.866210938 73.0009765625 c 2
 463.866210938 97.0009765625 l 1
 447.866210938 79.0009765625 l 2
 445.866210938 77.0009765625 440.866210938 70.0009765625 432.866210938 62.0009765625 c 2
 414.866210938 44.0009765625 l 2
 395.866210938 25.0009765625 382.866210938 13.0009765625 374.866210938 8.0009765625 c 0
 368.866210938 4.0009765625 360.866210938 0.0009765625 351.866210938 -5.9990234375 c 0
 342.866210938 -11.9990234375 333.866210938 -16.9990234375 325.866210938 -18.9990234375 c 0
 317.866210938 -20.9990234375 308.866210938 -23.9990234375 297.866210938 -25.9990234375 c 0
 286.866210938 -27.9990234375 276.866210938 -28.9990234375 266.866210938 -28.9990234375 c 0
 234.866210938 -28.9990234375 207.866210938 -19.9990234375 185.866210938 -2.9990234375 c 0
 163.866210938 14.0009765625 147.866210938 37.0009765625 139.866210938 66.0009765625 c 0
 135.866210938 81.0009765625 133.866210938 97.0009765625 133.866210938 113.000976562 c 0
 133.866210938 129.000976562 135.866210938 145.000976562 139.866210938 162.000976562 c 0
 167.866210938 284.000976562 232.866210938 367.000976562 336.866210938 411.000976562 c 2
 347.866210938 416.000976562 l 1
 331.866210938 460.000976562 322.866210938 486.000976562 320.866210938 491.000976562 c 0
 318.866210938 497.000976562 316.866210938 505.000976562 314.866210938 513.000976562 c 0
 312.866210938 521.000976562 311.866210938 528.000976562 311.866210938 533.000976562 c 0
 311.866210938 551.000976562 313.866210938 569.000976562 317.866210938 587.000976562 c 0
 322.866210938 609.000976562 333.866210938 632.000976562 351.866210938 653.000976562 c 0
 360.866210938 664.000976562 371.866210938 675.000976562 383.866210938 683.000976562 c 0
 395.866210938 691.000976562 410.866210938 698.000976562 428.866210938 704.000976562 c 0
 446.866210938 710.000976562 464.866210938 712.000976562 485.866210938 712.000976562 c 0
 502.866210938 712.000976562 518.866210938 710.000976562 532.866210938 704.000976562 c 0
 546.866210938 698.000976562 558.866210938 690.000976562 568.866210938 680.000976562 c 0
 578.866210938 670.000976562 584.866210938 657.000976562 588.866210938 640.000976562 c 0
 590.754882812 631.974609375 591.751953125 623.279296875 591.751953125 614.020507812 c 0
 591.751953125 603.668945312 590.505859375 592.61328125 587.866210938 581 c 0
 582.866210938 561 575.866210938 542 566.866210938 525 c 0
 557.866210938 508 548.866210938 493 538.866210938 481 c 0
 528.866210938 469 516.866210938 458 502.866210938 447 c 0
 488.866210938 436 475.866210938 427 464.866210938 421 c 0
 453.866210938 415 441.866210938 409 426.866210938 402 c 2
 417.866210938 397 l 1
 420.866210938 387 l 2
 427.866210938 366 439.866210938 335 456.866210938 294 c 0
 473.866210938 253 484.866210938 227 489.866210938 214 c 2
 497.866210938 191 l 1
 512.866210938 213 524.866210938 232 532.866210938 244 c 0
 540.866210938 256 547.866210938 266 552.866210938 273 c 0
 557.866210938 280 561.866210938 286 563.866210938 289 c 0
 577.866210938 305 588.866210938 315 597.866210938 318 c 0
 599.866210938 319 603.866210938 320 605.866210938 320 c 0
 609.866210938 320 613.866210938 318 618.866210938 316 c 0
 623.866210938 313 625.866210938 307 625.866210938 300 c 0
 625.866210938 287 618.866210938 272 607.866210938 255 c 0
 603.866210938 249 591.866210938 236 571.866210938 215 c 0
 551.866210938 194 532.866210938 174 515.866210938 153 c 1
 520.866210938 137 527.866210938 116 534.866210938 93 c 0
 541.866210938 70 545.866210938 55 546.866210938 50 c 0
 547.866210938 45 549.866210938 38 549.866210938 30 c 0
 549.866210938 22 547.866210938 14 545.866210938 5 c 0
464.866210938 657.000976562 m 0
 439.866210938 657.000976562 419.866210938 648.000976562 404.866210938 631.000976562 c 0
 392.866210938 617.000976562 383.866210938 598.000976562 378.866210938 575.000976562 c 0
 376.866210938 566.000976562 375.866210938 556.000976562 375.866210938 546.000976562 c 0
 375.866210938 536.000976562 376.866210938 526.000976562 378.866210938 515.000976562 c 0
 381.866210938 493.000976562 388.866210938 474.000976562 397.866210938 458.000976562 c 2
 402.866210938 450.000976562 l 1
 412.866210938 453.000976562 l 2
 427.866210938 458.000976562 441.866210938 463.000976562 452.866210938 468.000976562 c 0
 463.866210938 473.000976562 474.866210938 480.000976562 485.866210938 489.000976562 c 0
 496.866210938 498.000976562 506.866210938 508.000976562 513.866210938 521.000976562 c 0
 520.866210938 534.000976562 526.866210938 550.000976562 530.866210938 567.000976562 c 0
 532.866210938 576.000976562 534.866210938 585.000976562 534.866210938 593.000976562 c 0
 534.866210938 610.000976562 529.866210938 623.000976562 520.866210938 634.000976562 c 0
 506.866210938 649.000976562 487.866210938 657.000976562 464.866210938 657.000976562 c 0
217.866210938 82.0009765625 m 0
 232.866210938 54.0009765625 257.866210938 40.0009765625 290.866210938 40.0009765625 c 0
 305.866210938 40.0009765625 322.866210938 43.0009765625 342.866210938 49.0009765625 c 0
 349.866210938 51.0009765625 357.866210938 56.0009765625 365.866210938 61.0009765625 c 0
 373.866210938 66.0009765625 378.866210938 69.0009765625 383.866210938 72.0009765625 c 0
 388.866210938 75.0009765625 393.866210938 80.0009765625 400.866210938 87.0009765625 c 0
 407.866210938 94.0009765625 413.866210938 99.0009765625 415.866210938 102.000976562 c 0
 417.866210938 105.000976562 422.866210938 109.000976562 428.866210938 116.000976562 c 0
 434.866210938 123.000976562 438.866210938 127.000976562 439.866210938 128.000976562 c 2
 444.866210938 133.000976562 l 1
 438.866210938 163.000976562 433.866210938 186.000976562 429.866210938 201.000976562 c 0
 424.866210938 217.000976562 414.866210938 242.000976562 400.866210938 277.000976562 c 0
 386.866210938 312.000976562 376.866210938 337.000976562 370.866210938 354.000976562 c 2
 365.866210938 366.000976562 l 1
 353.866210938 361.000976562 l 2
 332.866210938 352.000976562 313.866210938 341.000976562 296.866210938 327.000976562 c 0
 279.866210938 313.000976562 265.866210938 298.000976562 254.866210938 282.000976562 c 0
 243.866210938 266.000976562 234.866210938 249.000976562 227.866210938 232.000976562 c 0
 220.866210938 215.000976562 215.866210938 197.000976562 210.866210938 177.000976562 c 0
 206.866210938 162.000976562 204.866210938 149.000976562 204.866210938 136.000976562 c 0
 204.866210938 115.000976562 208.866210938 97.0009765625 217.866210938 82.0009765625 c 0
EndSplineSet
EndChar

StartChar: quotesingle
Encoding: 39 39 17
Width: 670
GlyphClass: 2
Flags: HMW
HStem: 458 302<422.354 501.354 422.354 501.354>
LayerCount: 2
Fore
SplineSet
502.353515625 760 m 2
 510.353515625 760 517.353515625 758 523.353515625 754 c 0
 524.353515625 753 526.353515625 750 527.353515625 746 c 0
 528.353515625 742 527.353515625 737 526.353515625 730 c 0
 520.353515625 704 511.353515625 663 497.353515625 608 c 0
 483.353515625 553 472.353515625 513 464.353515625 490 c 0
 460.353515625 479 454.353515625 470 446.353515625 465 c 0
 438.353515625 460 431.353515625 458 424.353515625 458 c 2
 422.353515625 458 l 2
 412.353515625 459 404.353515625 463 399.353515625 468 c 0
 397.353515625 470 396.353515625 473 396.353515625 477 c 0
 396.353515625 481 397.353515625 484 398.353515625 489 c 0
 408.353515625 524 418.353515625 563 428.353515625 609 c 0
 438.353515625 655 447.353515625 696 454.353515625 731 c 0
 454.353515625 737 456.353515625 743 460.353515625 747 c 0
 464.353515625 751 468.353515625 754 472.353515625 755 c 0
 481.353515625 758 489.353515625 760 496.353515625 760 c 2
 501.353515625 760 l 1
 502.353515625 760 l 2
EndSplineSet
EndChar

StartChar: parenleft
Encoding: 40 40 18
Width: 670
GlyphClass: 2
Flags: HMW
HStem: -119 60<374.692 417.192> 745 57<582.692 615.692>
VStem: 247.192 71<140.5 147.5>
LayerCount: 2
Fore
SplineSet
413.192382812 -59 m 0
 421.192382812 -59 426.192382812 -61 428.192382812 -64 c 0
 429.192382812 -65 431.192382812 -67 431.192382812 -71 c 0
 431.192382812 -75 429.192382812 -81 428.192382812 -90 c 0
 426.192382812 -98 422.192382812 -104 414.192382812 -110 c 0
 406.192382812 -116 399.192382812 -119 393.192382812 -119 c 0
 356.192382812 -119 325.192382812 -105 301.192382812 -76 c 0
 276.192382812 -45 260.192382812 -3 252.192382812 52 c 0
 249.192382812 77 247.192382812 103 247.192382812 130 c 0
 247.192382812 165 249.192382812 203 255.192382812 244 c 0
 262.192382812 293 278.192382812 356 302.192382812 433 c 0
 326.192382812 510 352.192382812 574 381.192382812 623 c 0
 394.192382812 644 409.192382812 666 427.192382812 687 c 0
 445.192382812 708 464.192382812 727 485.192382812 744 c 0
 506.192382812 761 528.192382812 775 550.192382812 786 c 0
 572.192382812 797 592.192382812 802 612.192382812 802 c 0
 619.192382812 802 624.192382812 801 626.192382812 799 c 0
 628.192382812 797 630.192382812 793 630.192382812 788 c 0
 630.192382812 785 630.192382812 781 629.192382812 776 c 0
 627.192382812 765 622.192382812 757 615.192382812 752 c 0
 608.192382812 747 601.192382812 745 592.192382812 745 c 0
 573.192382812 745 556.192382812 740 538.192382812 729 c 0
 520.192382812 718 503.192382812 703 488.192382812 685 c 0
 459.192382812 651 434.192382812 609 412.192382812 558 c 0
 395.192382812 523 378.192382812 475 361.192382812 414 c 0
 344.192382812 353 333.192382812 304 327.192382812 268 c 0
 321.192382812 232 318.192382812 197 318.192382812 164 c 0
 318.192382812 117 323.192382812 76 332.192382812 41 c 0
 339.192382812 12 350.192382812 -11 363.192382812 -29 c 0
 378.192382812 -49 394.192382812 -59 413.192382812 -59 c 0
EndSplineSet
EndChar

StartChar: parenright
Encoding: 41 41 19
Width: 670
GlyphClass: 2
Flags: HMW
HStem: -119 60<216.056 220.056> 745 57<398.056 428.056>
VStem: 500.556 65<551.5 571>
LayerCount: 2
Fore
SplineSet
565.555664062 571 m 0
 565.555664062 532 561.555664062 488 554.555664062 438 c 0
 543.555664062 361 529.555664062 298 513.555664062 250 c 0
 490.555664062 177 462.555664062 113 428.555664062 57 c 0
 394.555664062 1 358.555664062 -42 318.555664062 -73 c 0
 278.555664062 -104 239.555664062 -119 200.555664062 -119 c 0
 195.555664062 -119 190.555664062 -117 186.555664062 -112 c 0
 184.555664062 -110 183.555664062 -106 183.555664062 -102 c 2
 183.555664062 -96 l 2
 186.555664062 -81 191.555664062 -71 197.555664062 -66 c 0
 203.555664062 -61 211.555664062 -59 220.555664062 -59 c 0
 237.555664062 -59 257.555664062 -50 279.555664062 -31 c 0
 300.555664062 -14 320.555664062 10 341.555664062 38 c 0
 362.555664062 66 381.555664062 99 401.555664062 139 c 0
 421.555664062 179 436.555664062 218 449.555664062 259 c 0
 461.555664062 297 473.555664062 348 484.555664062 410 c 0
 495.555664062 472 500.555664062 522 500.555664062 560 c 0
 500.555664062 582 499.555664062 603 496.555664062 624 c 0
 493.555664062 645 488.555664062 663 481.555664062 682 c 0
 474.555664062 701 464.555664062 716 450.555664062 728 c 0
 436.555664062 740 420.555664062 745 401.555664062 745 c 0
 394.555664062 745 388.555664062 747 384.555664062 751 c 0
 382.555664062 753 381.555664062 755 381.555664062 759 c 0
 381.555664062 763 382.555664062 768 383.555664062 773 c 0
 384.555664062 778 387.555664062 784 390.555664062 788 c 0
 393.555664062 792 396.555664062 795 398.555664062 796 c 0
 405.555664062 800 411.555664062 802 418.555664062 802 c 0
 437.555664062 802 455.555664062 797 472.555664062 787 c 0
 489.555664062 777 503.555664062 764 515.555664062 747 c 0
 527.555664062 730 538.555664062 711 546.555664062 690 c 0
 554.555664062 669 560.555664062 648 562.555664062 627 c 0
 564.555664062 610 565.555664062 592 565.555664062 571 c 0
EndSplineSet
EndChar

StartChar: asterisk
Encoding: 42 42 20
Width: 670
GlyphClass: 2
Flags: HMW
HStem: 305 80<206.901 229.401> 313 71<595.401 615.901> 319 52<498.901 508.901 457.401 526.401>
VStem: 325.401 62 425.401 66<145 173>
LayerCount: 2
Fore
SplineSet
451.400390625 129 m 0x98
 444.400390625 129 438.400390625 131 433.400390625 134 c 0
 431.400390625 135 428.400390625 137 427.400390625 139 c 0
 426.400390625 141 425.400390625 144 425.400390625 146 c 0
 424.400390625 173 417.400390625 213 404.400390625 264 c 2
 397.400390625 290 l 1
 382.400390625 268 l 2
 338.400390625 206 310.400390625 165 299.400390625 145 c 0
 296.400390625 139 291.400390625 134 286.400390625 131 c 0
 281.400390625 129 275.400390625 126 270.400390625 126 c 2
 264.400390625 126 l 2
 262.400390625 126 258.400390625 126 254.400390625 127 c 0
 250.400390625 128 245.400390625 130 243.400390625 132 c 0
 241.400390625 134 238.400390625 137 237.400390625 141 c 0
 236.400390625 145 235.400390625 148 235.400390625 151 c 2
 235.400390625 159 l 2
 235.400390625 166 239.400390625 173 245.400390625 182 c 2
 349.400390625 312 l 1
 322.400390625 311 l 2
 271.400390625 307 233.400390625 305 209.400390625 305 c 0
 204.400390625 305 199.400390625 307 196.400390625 308 c 0
 193.400390625 309 190.400390625 312 188.400390625 315 c 0
 185.400390625 320 183.400390625 325 183.400390625 331 c 2
 185.400390625 341 l 2
 185.400390625 346 187.400390625 351 189.400390625 356 c 0
 196.400390625 369 203.400390625 378 212.400390625 382 c 0
 217.400390625 384 221.400390625 385 226.400390625 385 c 2
 229.400390625 385 l 2
 257.400390625 383 304.400390625 379 371.400390625 374 c 1
 365.400390625 391 l 2
 350.400390625 440 336.400390625 477 325.400390625 503 c 0
 323.400390625 509 322.400390625 515 322.400390625 521 c 0
 322.400390625 527 323.400390625 534 325.400390625 540 c 0
 329.400390625 551 335.400390625 559 343.400390625 562 c 0
 349.400390625 566 355.400390625 568 361.400390625 568 c 0
 366.400390625 568 372.400390625 566 377.400390625 562 c 0
 382.400390625 558 386.400390625 552 387.400390625 545 c 0
 390.400390625 529 401.400390625 483 421.400390625 406 c 1
 437.400390625 426 l 2
 472.400390625 471 500.400390625 509 520.400390625 540 c 0
 525.400390625 549 532.400390625 556 539.400390625 560 c 0
 546.400390625 564 553.400390625 566 558.400390625 566 c 0
 563.400390625 566 568.400390625 564 571.400390625 561 c 2
 572.400390625 561 l 2
 574.400390625 560 577.400390625 557 578.400390625 552 c 0
 578.400390625 550 579.400390625 546 579.400390625 543 c 0
 579.400390625 530 575.400390625 518 565.400390625 507 c 0
 538.400390625 476 506.400390625 437 471.400390625 390 c 2
 457.400390625 371 l 1x38
 481.400390625 371 l 2
 536.400390625 371 577.400390625 375 603.400390625 382 c 0
 607.400390625 383 611.400390625 384 613.400390625 384 c 0x58
 618.400390625 384 622.400390625 381 624.400390625 378 c 0
 628.400390625 373 631.400390625 367 631.400390625 362 c 0
 631.400390625 357 629.400390625 350 625.400390625 341 c 0
 618.400390625 328 611.400390625 319 603.400390625 315 c 0
 601.400390625 314 598.400390625 313 596.400390625 313 c 0
 594.400390625 313 592.400390625 314 591.400390625 314 c 0
 575.400390625 317 547.400390625 319 505.400390625 319 c 0x38
 492.400390625 319 473.400390625 318 448.400390625 318 c 1
 489.400390625 187 l 2
 490.400390625 182 491.400390625 176 491.400390625 170 c 0
 491.400390625 164 490.400390625 159 488.400390625 154 c 0
 485.400390625 145 480.400390625 138 474.400390625 134 c 0
 468.400390625 130 460.400390625 129 451.400390625 129 c 0x98
EndSplineSet
EndChar

StartChar: plus
Encoding: 43 43 21
Width: 670
GlyphClass: 2
Flags: HMW
HStem: 370 59<369.64 398.64 369.64 398.64>
LayerCount: 2
Fore
SplineSet
275.639648438 369 m 2
 264.639648438 369 256.639648438 371 254.639648438 376 c 0
 252.639648438 379 250.639648438 383 250.639648438 388 c 0
 250.639648438 390 251.639648438 394 251.639648438 397 c 0
 253.639648438 407 258.639648438 415 265.639648438 422 c 0
 272.639648438 428 280.639648438 431 291.639648438 431 c 2
 294.639648438 431 l 2
 337.639648438 430 368.639648438 429 388.639648438 429 c 2
 398.639648438 429 l 1
 407.639648438 469 416.639648438 508 423.639648438 547 c 0
 424.639648438 557 428.639648438 565 433.639648438 570 c 0
 440.639648438 577 449.639648438 580 461.639648438 580 c 2
 464.639648438 580 l 2
 471.639648438 580 477.639648438 578 481.639648438 575 c 0
 482.639648438 574 483.639648438 571 483.639648438 567 c 0
 483.639648438 563 482.639648438 559 480.639648438 553 c 0
 469.639648438 514 459.639648438 472 448.639648438 427 c 1
 566.639648438 427 l 2
 576.639648438 427 582.639648438 425 583.639648438 423 c 0
 584.639648438 421 586.639648438 418 586.639648438 413 c 0
 586.639648438 406 584.639648438 398 581.639648438 391 c 0
 579.639648438 387 576.639648438 383 573.639648438 379 c 0
 568.639648438 373 561.639648438 370 552.639648438 370 c 2
 552.639648438 370 550.639648438 371 548.639648438 371 c 0
 538.639648438 371 524.639648438 372 504.639648438 372 c 0
 484.639648438 372 461.639648438 371 434.639648438 371 c 1
 429.639648438 347 423.639648438 323 418.639648438 298 c 0
 413.639648438 273 409.639648438 258 408.639648438 253 c 0
 405.639648438 240 400.639648438 232 395.639648438 227 c 0
 389.639648438 223 382.639648438 220 374.639648438 220 c 0
 367.639648438 220 362.639648438 221 359.639648438 223 c 0
 356.639648438 225 355.639648438 229 355.639648438 235 c 0
 355.639648438 239 355.639648438 243 356.639648438 248 c 2
 384.639648438 370 l 1
 369.639648438 370 l 1
 275.639648438 369 l 2
EndSplineSet
EndChar

StartChar: comma
Encoding: 44 44 22
Width: 670
GlyphClass: 2
Flags: HMW
VStem: 211.297 234
LayerCount: 2
Fore
SplineSet
211.296875 -185 m 2
 211.296875 -182 l 2
 211.296875 -176 214.296875 -169 221.296875 -161 c 0
 239.296875 -140 268.296875 -95 307.296875 -27 c 0
 346.296875 41 371.296875 89 382.296875 116 c 0
 384.296875 123 390.296875 129 396.296875 133 c 0
 402.296875 137 408.296875 139 413.296875 139 c 2
 414.296875 139 l 2
 420.296875 139 426.296875 138 431.296875 137 c 0
 436.296875 135 441.296875 131 443.296875 125 c 0
 444.296875 123 445.296875 120 445.296875 117 c 0
 445.296875 114 443.296875 108 441.296875 101 c 0
 428.296875 68 403.296875 19 367.296875 -48 c 0
 331.296875 -115 306.296875 -157 292.296875 -172 c 0
 280.296875 -185 267.296875 -195 252.296875 -200 c 0
 244.296875 -202 237.296875 -204 231.296875 -204 c 0
 228.296875 -204 224.296875 -203 222.296875 -202 c 0
 219.296875 -201 216.296875 -198 214.296875 -196 c 0
 212.296875 -193 211.296875 -189 211.296875 -185 c 2
EndSplineSet
EndChar

StartChar: hyphen
Encoding: 45 45 23
Width: 670
GlyphClass: 2
Flags: HMW
HStem: 255 62<277.372 317.372> 264 56<486.872 514.372>
LayerCount: 2
Fore
SplineSet
299.872070312 317 m 0x80
 334.872070312 317 376.872070312 317 425.872070312 318 c 0
 474.872070312 319 502.872070312 320 509.872070312 320 c 0x40
 518.872070312 320 524.872070312 318 526.872070312 316 c 0
 528.872070312 312 529.872070312 306 528.872070312 298 c 0
 526.872070312 287 520.872070312 278 515.872070312 273 c 0
 509.872070312 267 501.872070312 264 490.872070312 264 c 0
 482.872070312 264 450.872070312 262 395.872070312 259 c 0
 340.872070312 256 301.872070312 255 280.872070312 255 c 0
 273.872070312 255 267.872070312 256 264.872070312 258 c 0
 261.872070312 260 260.872070312 264 260.872070312 270 c 0
 260.872070312 274 261.872070312 278 262.872070312 283 c 0
 263.872070312 294 267.872070312 303 272.872070312 308 c 0
 279.872070312 314 288.872070312 317 299.872070312 317 c 0x80
EndSplineSet
EndChar

StartChar: period
Encoding: 46 46 24
Width: 670
GlyphClass: 2
Flags: HMW
HStem: -2 130<315.475 379.475 322.975 379.475>
VStem: 282.975 131<37.5 90.5>
LayerCount: 2
Fore
SplineSet
413.974609375 85 m 0
 413.974609375 80 412.974609375 74 411.974609375 68 c 0
 407.974609375 49 399.974609375 34 384.974609375 21 c 0
 369.974609375 8 351.974609375 0 330.974609375 -2 c 2
 322.974609375 -2 l 2
 307.974609375 -2 297.974609375 3 290.974609375 13 c 0
 285.974609375 22 282.974609375 32 282.974609375 43 c 0
 282.974609375 49 283.974609375 55 284.974609375 61 c 0
 288.974609375 79 299.974609375 94 316.974609375 107 c 0
 335.974609375 121 352.974609375 128 371.974609375 128 c 0
 386.974609375 128 398.974609375 123 405.974609375 113 c 0
 410.974609375 105 413.974609375 96 413.974609375 85 c 0
EndSplineSet
EndChar

StartChar: slash
Encoding: 47 47 25
Width: 670
GlyphClass: 2
Flags: W
LayerCount: 2
Fore
SplineSet
101.94140625 -31 m 0
 101.94140625 -28 102.94140625 -24 102.94140625 -20 c 0
 104.94140625 -3 112.94140625 12 123.94140625 27 c 0
 251.94140625 187 361.94140625 329 454.94140625 454 c 0
 513.94140625 530 576.94140625 617 643.94140625 714 c 0
 650.94140625 723 656.94140625 730 664.94140625 734 c 0
 672.94140625 738 679.94140625 741 685.94140625 741 c 0
 691.94140625 741 696.94140625 739 702.94140625 737 c 0
 708.94140625 733 712.94140625 727 712.94140625 719 c 0
 712.94140625 710 705.94140625 698 696.94140625 683 c 0
 672.94140625 649 608.94140625 566 503.94140625 433 c 0
 398.94140625 300 334.94140625 218 311.94140625 185 c 0
 296.94140625 164 272.94140625 129 238.94140625 80 c 0
 204.94140625 31 183.94140625 1 175.94140625 -10 c 0
 162.94140625 -27 147.94140625 -38 132.94140625 -45 c 0
 125.94140625 -47 120.94140625 -49 116.94140625 -49 c 0
 112.94140625 -49 108.94140625 -48 106.94140625 -46 c 2
 105.94140625 -46 l 2
 103.94140625 -44 101.94140625 -38 101.94140625 -31 c 0
EndSplineSet
EndChar

StartChar: zero
Encoding: 48 48 26
Width: 670
GlyphClass: 2
Flags: HMW
HStem: -12 60<321.334 321.834> 649 57<480.334 481.334>
VStem: 173.334 77<133.5 211>
LayerCount: 2
Fore
SplineSet
184.333984375 211 m 0
 185.333984375 218 188.333984375 235 194.333984375 261 c 0
 200.333984375 287 205.333984375 308 209.333984375 324 c 0
 213.333984375 340 219.333984375 361 226.333984375 388 c 0
 233.333984375 415 240.333984375 438 246.333984375 458 c 0
 252.333984375 478 260.333984375 500 270.333984375 522 c 0
 280.333984375 544 289.333984375 565 298.333984375 582 c 0
 320.333984375 623 348.333984375 653 383.333984375 674 c 0
 418.333984375 695 458.333984375 706 502.333984375 706 c 0
 524.333984375 706 545.333984375 702 563.333984375 693 c 0
 581.333984375 684 596.333984375 671 608.333984375 655 c 0
 620.333984375 639 628.333984375 618 633.333984375 591 c 0
 635.333984375 578 636.333984375 564 636.333984375 548 c 0
 636.333984375 532 634.333984375 516 632.333984375 496 c 0
 627.333984375 463 619.333984375 425 610.333984375 383 c 0
 601.333984375 341 590.333984375 298 578.333984375 256 c 0
 566.333984375 214 555.333984375 181 544.333984375 159 c 0
 524.333984375 117 504.333984375 82 484.333984375 57 c 0
 475.333984375 45 467.333984375 34 456.333984375 26 c 0
 445.333984375 18 435.333984375 11 425.333984375 6 c 0
 415.333984375 1 404.333984375 -3 392.333984375 -5 c 0
 380.333984375 -7 368.333984375 -10 356.333984375 -11 c 0
 344.333984375 -12 330.333984375 -12 313.333984375 -12 c 0
 288.333984375 -12 265.333984375 -7 244.333984375 3 c 0
 223.333984375 13 208.333984375 27 196.333984375 46 c 0
 184.333984375 65 176.333984375 88 174.333984375 116 c 0
 174.333984375 123 173.333984375 130 173.333984375 137 c 0
 173.333984375 159 177.333984375 184 184.333984375 211 c 0
386.333984375 616 m 0
 363.333984375 594 342.333984375 559 322.333984375 511 c 0
 315.333984375 494 308.333984375 473 302.333984375 451 c 0
 296.333984375 429 289.333984375 402 282.333984375 370 c 0
 275.333984375 338 270.333984375 315 268.333984375 302 c 2
 254.333984375 232 l 2
 254.333984375 230 252.333984375 226 252.333984375 221 c 0
 252.333984375 216 250.333984375 212 250.333984375 210 c 2
 235.333984375 160 l 1
 271.333984375 198 l 1
 373.333984375 321 468.333984375 447 559.333984375 576 c 1
 564.333984375 581 l 1
 561.333984375 588 l 2
 552.333984375 608 540.333984375 622 524.333984375 633 c 0
 509.333984375 644 491.333984375 649 471.333984375 649 c 0
 438.333984375 649 409.333984375 638 386.333984375 616 c 0
374.333984375 53 m 0
 387.333984375 56 401.333984375 61 414.333984375 70 c 0
 441.333984375 86 464.333984375 117 485.333984375 162 c 0
 489.333984375 171 496.333984375 194 506.333984375 230 c 0
 517.333984375 266 529.333984375 307 541.333984375 354 c 0
 553.333984375 401 561.333984375 446 568.333984375 489 c 2
 576.333984375 542 l 1
 546.333984375 498 l 1
 453.333984375 352 356.333984375 230 252.333984375 131 c 1
 247.333984375 127 l 1
 248.333984375 120 l 2
 253.333984375 93 264.333984375 74 281.333984375 62 c 0
 294.333984375 53 311.333984375 48 331.333984375 48 c 0
 347.333984375 48 361.333984375 50 374.333984375 53 c 0
EndSplineSet
EndChar

StartChar: one
Encoding: 49 49 27
Width: 670
GlyphClass: 2
Flags: HMW
HStem: 3 67
LayerCount: 2
Fore
SplineSet
545.346679688 47 m 2
 545.346679688 40 l 2
 543.346679688 29 538.346679688 21 531.346679688 14 c 0
 524.346679688 7 513.346679688 3 498.346679688 3 c 0
 295.346679688 5 180.346679688 7 158.346679688 7 c 0
 149.346679688 7 144.346679688 9 142.346679688 13 c 0
 140.346679688 16 138.346679688 19 138.346679688 23 c 0
 138.346679688 27 140.346679688 31 140.346679688 35 c 0
 142.346679688 46 145.346679688 55 152.346679688 62 c 0
 159.346679688 69 168.346679688 72 179.346679688 72 c 0
 207.346679688 72 255.346679688 71 322.346679688 70 c 1
 329.346679688 103 335.346679688 129 337.346679688 146 c 0
 337.346679688 151 340.346679688 168 346.346679688 197 c 2
 360.346679688 262 l 2
 362.346679688 275 369.346679688 300 377.346679688 336 c 0
 385.346679688 372 392.346679688 399 396.346679688 417 c 0
 411.346679688 481 426.346679688 549 446.346679688 620 c 1
 419.346679688 598 l 2
 372.346679688 558 338.346679688 534 318.346679688 525 c 0
 316.346679688 524 314.346679688 523 312.346679688 523 c 0
 308.346679688 523 303.346679688 527 299.346679688 532 c 0
 294.346679688 539 293.346679688 545 293.346679688 551 c 0
 293.346679688 553 294.346679688 555 294.346679688 557 c 0
 295.346679688 566 298.346679688 574 303.346679688 581 c 0
 308.346679688 588 315.346679688 595 326.346679688 604 c 0
 345.346679688 619 364.346679688 636 385.346679688 653 c 2
 432.346679688 692 l 2
 443.346679688 699 453.346679688 705 462.346679688 710 c 0
 471.346679688 715 478.346679688 718 483.346679688 718 c 0
 492.346679688 718 501.346679688 713 510.346679688 704 c 0
 517.346679688 697 522.346679688 691 522.346679688 686 c 2
 522.346679688 685 l 1
 522.346679688 685 508.346679688 633 481.346679688 529 c 0
 454.346679688 430 439.346679688 373 436.346679688 357 c 0
 422.346679688 290 410.346679688 234 401.346679688 190 c 0
 396.346679688 165 388.346679688 124 379.346679688 67 c 1
 404.346679688 67 438.346679688 66 478.346679688 65 c 0
 500.346679688 65 515.346679688 64 521.346679688 64 c 0
 527.346679688 64 533.346679688 63 536.346679688 62 c 0
 539.346679688 61 542.346679688 59 542.346679688 58 c 0
 544.346679688 56 545.346679688 52 545.346679688 47 c 2
EndSplineSet
EndChar

StartChar: two
Encoding: 50 50 28
Width: 670
GlyphClass: 2
Flags: HMW
HStem: -5 59 0 64<500.989 506.989> 650 60<480.489 492.489>
VStem: 572.989 68<578.5 582>
LayerCount: 2
Fore
SplineSet
322.989257812 -5 m 0xb0
 295.989257812 -6 266.989257812 -7 235.989257812 -7 c 0
 204.989257812 -7 180.989257812 -6 163.989257812 -4 c 0
 159.989257812 -4 157.989257812 -1 155.989257812 1 c 0
 152.989257812 5 149.989257812 12 149.989257812 23 c 0
 149.989257812 38 154.989257812 57 159.989257812 81 c 0
 166.989257812 108 177.989257812 137 195.989257812 167 c 0
 213.989257812 197 236.989257812 227 265.989257812 256 c 0
 292.989257812 284 319.989257812 307 348.989257812 324 c 0
 417.989257812 365 464.989257812 393 485.989257812 409 c 0
 514.989257812 431 536.989257812 456 549.989257812 482 c 0
 556.989257812 496 563.989257812 514 568.989257812 536 c 0
 570.989257812 549 572.989257812 560 572.989257812 571 c 0
 572.989257812 593 566.989257812 610 554.989257812 623 c 0
 537.989257812 641 509.989257812 650 474.989257812 650 c 0
 450.989257812 650 427.989257812 642 402.989257812 625 c 0
 377.989257812 608 357.989257812 590 341.989257812 569 c 0
 328.989257812 553 318.989257812 544 312.989257812 544 c 2
 308.989257812 544 l 2
 307.989257812 544 305.989257812 544 303.989257812 545 c 0
 301.989257812 546 296.989257812 549 291.989257812 551 c 0
 286.989257812 554 285.989257812 559 285.989257812 566 c 0
 285.989257812 572 291.989257812 584 300.989257812 603 c 0
 307.989257812 615 317.989257812 627 330.989257812 639 c 0
 343.989257812 651 358.989257812 662 375.989257812 673 c 0
 392.989257812 684 411.989257812 693 431.989257812 700 c 0
 451.989257812 707 470.989257812 710 489.989257812 710 c 0
 551.989257812 710 593.989257812 695 618.989257812 664 c 0
 633.989257812 645 640.989257812 620 640.989257812 588 c 0
 640.989257812 569 638.989257812 548 633.989257812 525 c 0
 620.989257812 472 597.989257812 430 565.989257812 398 c 0
 541.989257812 374 503.989257812 347 452.989257812 318 c 0
 436.989257812 308 416.989257812 296 389.989257812 281 c 0
 359.989257812 265 332.989257812 246 310.989257812 223 c 0
 288.989257812 200 271.989257812 176 258.989257812 151 c 0
 245.989257812 127 233.989257812 101 225.989257812 73 c 2
 221.989257812 58 l 1
 268.989257812 56 308.989257812 54 341.989257812 54 c 0
 366.989257812 54 385.989257812 55 401.989257812 56 c 0
 417.989257812 57 430.989257812 58 441.989257812 59 c 0
 452.989257812 60 471.989257812 62 500.989257812 64 c 2x70
 509.989257812 64 l 2
 513.989257812 64 517.989257812 65 521.989257812 65 c 0
 525.989257812 65 529.989257812 64 531.989257812 64 c 0
 532.989257812 63 534.989257812 61 536.989257812 60 c 2
 536.989257812 56 l 1
 536.989257812 52 l 2
 536.989257812 45 534.989257812 37 531.989257812 29 c 0
 528.989257812 21 522.989257812 14 516.989257812 8 c 0
 512.989257812 3 508.989257812 0 504.989257812 0 c 0
 464.989257812 0 405.989257812 -1 322.989257812 -5 c 0xb0
EndSplineSet
EndChar

StartChar: three
Encoding: 51 51 29
Width: 670
GlyphClass: 2
Flags: HMW
HStem: -12 60<330.957 352.957> 330 76<360.957 381.457> 650 60<458.957 472.957>
VStem: 498.457 74<214.5 271> 560.457 69<584.5 585.5>
LayerCount: 2
Fore
SplineSet
565.45703125 201 m 0xf0
 550.45703125 136 520.45703125 84 476.45703125 45 c 0
 434.45703125 7 383.45703125 -12 322.45703125 -12 c 0
 303.45703125 -12 285.45703125 -9 267.45703125 -2 c 0
 249.45703125 4 234.45703125 12 221.45703125 22 c 0
 208.45703125 32 197.45703125 44 188.45703125 56 c 0
 179.45703125 68 173.45703125 80 171.45703125 91 c 0
 170.45703125 96 169.45703125 101 169.45703125 107 c 0
 169.45703125 113 171.45703125 119 173.45703125 125 c 0
 178.45703125 135 184.45703125 142 192.45703125 146 c 0
 200.45703125 150 207.45703125 152 212.45703125 152 c 0
 214.45703125 152 217.45703125 151 219.45703125 151 c 0
 226.45703125 149 231.45703125 143 236.45703125 132 c 0
 245.45703125 110 259.45703125 90 279.45703125 73 c 0
 297.45703125 56 318.45703125 48 343.45703125 48 c 0
 379.45703125 48 411.45703125 60 439.45703125 84 c 0
 467.45703125 108 486.45703125 140 494.45703125 179 c 0
 496.45703125 194 498.45703125 208 498.45703125 221 c 0
 498.45703125 248 492.45703125 271 477.45703125 289 c 0
 455.45703125 316 412.45703125 330 350.45703125 330 c 0
 347.45703125 330 343.45703125 332 341.45703125 333 c 0
 339.45703125 334 336.45703125 337 334.45703125 341 c 0
 331.45703125 346 329.45703125 352 329.45703125 359 c 0
 329.45703125 361 330.45703125 365 330.45703125 368 c 0
 332.45703125 380 337.45703125 389 343.45703125 396 c 0
 349.45703125 403 356.45703125 406 365.45703125 406 c 0
 414.45703125 406 455.45703125 418 488.45703125 442 c 0
 524.45703125 466 547.45703125 501 556.45703125 546 c 0
 558.45703125 557 560.45703125 566 560.45703125 575 c 0xe8
 560.45703125 596 553.45703125 612 538.45703125 625 c 0
 518.45703125 642 491.45703125 650 454.45703125 650 c 0
 442.45703125 650 429.45703125 647 415.45703125 642 c 0
 410.45703125 640 404.45703125 636 398.45703125 632 c 0
 392.45703125 628 387.45703125 624 384.45703125 622 c 0
 381.45703125 620 377.45703125 614 371.45703125 608 c 2
 358.45703125 595 l 2
 356.45703125 593 352.45703125 587 347.45703125 580 c 0
 336.45703125 567 327.45703125 560 320.45703125 558 c 0
 318.45703125 558 316.45703125 557 314.45703125 557 c 0
 309.45703125 557 305.45703125 559 300.45703125 562 c 0
 298.45703125 564 295.45703125 566 294.45703125 568 c 0
 293.45703125 570 293.45703125 574 293.45703125 577 c 0
 293.45703125 588 298.45703125 600 307.45703125 615 c 0
 322.45703125 640 343.45703125 662 369.45703125 680 c 0
 382.45703125 689 398.45703125 697 415.45703125 702 c 0
 432.45703125 707 449.45703125 710 468.45703125 710 c 0
 532.45703125 710 578.45703125 695 604.45703125 666 c 0
 621.45703125 648 629.45703125 624 629.45703125 593 c 0
 629.45703125 576 626.45703125 556 621.45703125 535 c 0
 617.45703125 516 611.45703125 500 603.45703125 485 c 0
 595.45703125 470 586.45703125 458 576.45703125 448 c 0
 566.45703125 438 555.45703125 429 542.45703125 421 c 0
 529.45703125 413 517.45703125 408 505.45703125 403 c 0
 494.45703125 398 482.45703125 394 469.45703125 392 c 2
 421.45703125 381 l 1
 469.45703125 368 l 2
 490.45703125 363 507.45703125 356 521.45703125 348 c 0
 535.45703125 340 547.45703125 330 556.45703125 317 c 0
 567.45703125 302 572.45703125 283 572.45703125 259 c 0
 572.45703125 242 570.45703125 222 565.45703125 201 c 0xf0
EndSplineSet
EndChar

StartChar: four
Encoding: 52 52 30
Width: 670
GlyphClass: 2
Flags: HMW
HStem: 236 55<363.087 467.587 454.587 455.587>
VStem: 411.587 50 411.587 63<17 62 19 62>
LayerCount: 2
Fore
SplineSet
418.586914062 -1 m 0xa0
 413.586914062 5 411.586914062 11 411.586914062 17 c 2
 411.586914062 19 l 1
 416.586914062 40 424.586914062 78 435.586914062 134 c 2
 455.586914062 236 l 1
 403.586914062 236 l 2
 322.586914062 236 262.586914062 232 221.586914062 223 c 0
 217.586914062 223 213.586914062 222 210.586914062 222 c 0
 207.586914062 222 203.586914062 222 201.586914062 223 c 0
 197.586914062 225 194.586914062 228 192.586914062 231 c 0
 190.586914062 238 188.586914062 246 188.586914062 255 c 0
 188.586914062 260 190.586914062 266 191.586914062 274 c 0
 192.586914062 282 195.586914062 290 199.586914062 297 c 0
 210.586914062 315 233.586914062 345 270.586914062 387 c 0
 305.586914062 429 347.586914062 480 397.586914062 542 c 0
 447.586914062 604 485.586914062 650 509.586914062 679 c 0
 519.586914062 690 529.586914062 699 539.586914062 705 c 0
 549.586914062 711 558.586914062 713 565.586914062 713 c 2
 566.586914062 713 l 1
 572.586914062 713 l 2
 579.586914062 713 586.586914062 711 591.586914062 708 c 0
 596.586914062 705 598.586914062 699 598.586914062 691 c 2
 598.586914062 691 597.586914062 689 597.586914062 688 c 0
 596.586914062 665 590.586914062 629 581.586914062 581 c 0
 572.586914062 533 564.586914062 491 557.586914062 458 c 2
 521.586914062 291 l 1
 542.586914062 291 559.586914062 290 572.586914062 290 c 0
 582.586914062 290 588.586914062 287 590.586914062 285 c 0
 592.586914062 281 592.586914062 275 591.586914062 267 c 0
 589.586914062 256 584.586914062 247 579.586914062 242 c 0
 573.586914062 235 565.586914062 232 553.586914062 232 c 0
 541.586914062 232 526.586914062 233 509.586914062 234 c 1
 487.586914062 129 474.586914062 69 474.586914062 55 c 0
 474.586914062 36 469.586914062 20 461.586914062 7 c 0xc0
 454.586914062 -5 446.586914062 -11 437.586914062 -11 c 0
 430.586914062 -11 424.586914062 -8 418.586914062 -1 c 0xa0
536.586914062 640 m 1
 508.586914062 610 l 1
 399.586914062 481 321.586914062 380 275.586914062 308 c 2
 261.586914062 287 l 1
 286.586914062 289 l 2
 318.586914062 291 357.586914062 292 401.586914062 292 c 0
 419.586914062 292 441.586914062 291 467.586914062 291 c 1
 496.586914062 423 516.586914062 526 529.586914062 600 c 2
 536.586914062 640 l 1
EndSplineSet
EndChar

StartChar: five
Encoding: 53 53 31
Width: 670
GlyphClass: 2
Flags: HMW
HStem: -6 60<319.027 336.027> 433 64<440.527 501.027> 633 62<608.027 666.027 650.527 666.027> 639 61
VStem: 533.527 70<327 379.5>
LayerCount: 2
Fore
SplineSet
596.526367188 299 m 0xd8
 585.526367188 250 569.526367188 207 549.526367188 168 c 0
 530.526367188 129 508.526367188 97 485.526367188 72 c 0
 462.526367188 47 436.526367188 27 408.526367188 14 c 0
 380.526367188 1 351.526367188 -6 320.526367188 -6 c 0
 296.526367188 -6 273.526367188 -3 253.526367188 3 c 0
 232.526367188 9 216.526367188 17 204.526367188 26 c 0
 192.526367188 35 184.526367188 45 177.526367188 56 c 0
 170.526367188 67 164.526367188 78 161.526367188 89 c 0
 160.526367188 96 160.526367188 102 160.526367188 108 c 0
 160.526367188 114 160.526367188 121 162.526367188 126 c 0
 166.526367188 134 173.526367188 140 182.526367188 145 c 0
 193.526367188 150 201.526367188 152 205.526367188 152 c 0
 206.526367188 152 208.526367188 151 210.526367188 151 c 0
 212.526367188 151 215.526367188 150 216.526367188 148 c 0
 218.526367188 144 221.526367188 138 224.526367188 131 c 0
 235.526367188 103 251.526367188 83 272.526367188 70 c 0
 289.526367188 59 308.526367188 54 329.526367188 54 c 0
 374.526367188 54 416.526367188 75 452.526367188 117 c 0
 487.526367188 159 512.526367188 213 527.526367188 282 c 0
 531.526367188 302 533.526367188 319 533.526367188 335 c 0
 533.526367188 356 529.526367188 374 522.526367188 389 c 0
 515.526367188 405 505.526367188 417 490.526367188 424 c 0
 478.526367188 430 464.526367188 433 448.526367188 433 c 0
 432.526367188 433 415.526367188 430 398.526367188 426 c 0
 388.526367188 424 376.526367188 418 360.526367188 409 c 0
 356.526367188 407 350.526367188 403 343.526367188 398 c 0
 336.526367188 393 331.526367188 389 329.526367188 387 c 0
 327.526367188 385 318.526367188 376 303.526367188 363 c 0
 292.526367188 354 279.526367188 348 265.526367188 347 c 0
 264.526367188 347 263.526367188 346 262.526367188 346 c 0
 257.526367188 346 252.526367188 348 247.526367188 350 c 0
 240.526367188 353 237.526367188 364 237.526367188 383 c 0
 237.526367188 396 239.526367188 412 243.526367188 432 c 0
 247.526367188 452 252.526367188 473 258.526367188 494 c 0
 264.526367188 515 271.526367188 538 278.526367188 563 c 0
 285.526367188 588 289.526367188 606 291.526367188 619 c 1
 290.526367188 623 l 2
 288.526367188 627 287.526367188 632 287.526367188 638 c 0
 287.526367188 640 288.526367188 644 288.526367188 646 c 0
 288.526367188 656 291.526367188 665 295.526367188 673 c 0
 299.526367188 681 303.526367188 687 309.526367188 692 c 0
 315.526367188 697 321.526367188 700 326.526367188 700 c 0
 347.526367188 700 395.526367188 699 473.526367188 698 c 0
 554.526367188 697 617.526367188 696 661.526367188 696 c 0
 662.526367188 696 664.526367188 695 665.526367188 695 c 0xe8
 666.526367188 695 667.526367188 693 667.526367188 692 c 0
 669.526367188 687 671.526367188 682 671.526367188 676 c 2
 671.526367188 672 l 2
 671.526367188 664 668.526367188 657 666.526367188 650 c 0
 665.526367188 647 663.526367188 644 662.526367188 642 c 0
 661.526367188 640 659.526367188 637 657.526367188 636 c 0
 655.526367188 635 653.526367188 633 651.526367188 633 c 0
 649.526367188 633 645.526367188 631 642.526367188 631 c 2
 635.526367188 631 l 2
 634.526367188 631 630.526367188 632 625.526367188 632 c 0
 620.526367188 632 615.526367188 633 610.526367188 633 c 0
 605.526367188 633 592.526367188 634 571.526367188 636 c 0
 550.526367188 638 531.526367188 640 515.526367188 641 c 0
 499.526367188 642 478.526367188 643 449.526367188 643 c 0
 420.526367188 643 386.526367188 641 349.526367188 639 c 1
 346.526367188 626 341.526367188 604 333.526367188 572 c 0
 325.526367188 540 320.526367188 517 317.526367188 502 c 0
 314.526367188 487 308.526367188 454 298.526367188 403 c 1
 323.526367188 430 l 2
 343.526367188 450 366.526367188 465 395.526367188 478 c 0
 424.526367188 491 456.526367188 497 489.526367188 497 c 0
 512.526367188 497 532.526367188 492 548.526367188 482 c 0
 566.526367188 473 577.526367188 459 586.526367188 442 c 0
 597.526367188 421 603.526367188 395 603.526367188 364 c 0
 603.526367188 343 601.526367188 321 596.526367188 299 c 0xd8
EndSplineSet
EndChar

StartChar: six
Encoding: 54 54 32
Width: 670
GlyphClass: 2
Flags: HMW
HStem: -10 60<316.332 350.832> 405 64<414.332 481.332>
VStem: 182.832 58<186.5 192> 525.832 71<299 358>
LayerCount: 2
Fore
SplineSet
584.83203125 248 m 0
 576.83203125 213 562.83203125 178 543.83203125 146 c 0
 524.83203125 114 503.83203125 86 480.83203125 64 c 0
 459.83203125 42 436.83203125 23 410.83203125 10 c 0
 384.83203125 -3 358.83203125 -10 332.83203125 -10 c 0
 299.83203125 -10 270.83203125 -3 247.83203125 12 c 0
 224.83203125 27 208.83203125 48 198.83203125 75 c 0
 188.83203125 102 182.83203125 134 182.83203125 171 c 0
 182.83203125 213 189.83203125 260 202.83203125 313 c 0
 215.83203125 370 232.83203125 421 253.83203125 465 c 0
 274.83203125 509 296.83203125 547 318.83203125 578 c 0
 339.83203125 609 363.83203125 635 389.83203125 656 c 0
 415.83203125 677 443.83203125 693 471.83203125 704 c 0
 501.83203125 715 534.83203125 722 571.83203125 725 c 2
 578.83203125 725 l 2
 587.83203125 725 595.83203125 723 600.83203125 720 c 0
 602.83203125 719 603.83203125 716 604.83203125 714 c 0
 605.83203125 712 606.83203125 709 606.83203125 708 c 2
 606.83203125 704 l 2
 606.83203125 699 601.83203125 692 592.83203125 684 c 0
 583.83203125 676 575.83203125 670 566.83203125 668 c 0
 559.83203125 667 548.83203125 664 533.83203125 661 c 0
 518.83203125 658 505.83203125 654 494.83203125 651 c 0
 484.83203125 648 472.83203125 643 459.83203125 637 c 0
 432.83203125 624 402.83203125 601 371.83203125 567 c 0
 355.83203125 549 339.83203125 525 322.83203125 494 c 0
 305.83203125 463 292.83203125 436 283.83203125 412 c 2
 265.83203125 362 l 1
 303.83203125 399 l 2
 324.83203125 422 349.83203125 440 377.83203125 452 c 0
 405.83203125 464 436.83203125 469 468.83203125 469 c 0
 493.83203125 469 515.83203125 466 534.83203125 458 c 0
 553.83203125 450 566.83203125 438 577.83203125 421 c 0
 590.83203125 401 596.83203125 375 596.83203125 341 c 0
 596.83203125 314 592.83203125 283 584.83203125 248 c 0
341.83203125 378 m 0
 312.83203125 360 285.83203125 337 261.83203125 309 c 2
 259.83203125 307 l 1
 251.83203125 276 245.83203125 251 243.83203125 232 c 0
 241.83203125 221 240.83203125 209 240.83203125 197 c 0
 240.83203125 176 243.83203125 156 249.83203125 136 c 0
 254.83203125 120 260.83203125 105 269.83203125 92 c 0
 278.83203125 79 289.83203125 69 304.83203125 61 c 0
 317.83203125 54 332.83203125 50 348.83203125 50 c 2
 350.83203125 50 l 2
 372.83203125 50 396.83203125 59 418.83203125 78 c 0
 440.83203125 97 460.83203125 119 477.83203125 147 c 0
 496.83203125 175 508.83203125 203 515.83203125 232 c 0
 522.83203125 262 525.83203125 288 525.83203125 310 c 0
 525.83203125 335 520.83203125 355 510.83203125 369 c 0
 500.83203125 382 488.83203125 392 475.83203125 397 c 0
 462.83203125 402 447.83203125 405 428.83203125 405 c 0
 399.83203125 405 370.83203125 396 341.83203125 378 c 0
EndSplineSet
EndChar

StartChar: seven
Encoding: 55 55 33
Width: 670
GlyphClass: 2
Flags: HMW
HStem: 634 68
LayerCount: 2
Fore
SplineSet
657.108398438 631 m 0
 644.108398438 611 621.108398438 581 589.108398438 541 c 0
 558.108398438 501 525.108398438 459 494.108398438 417 c 0
 463.108398438 375 423.108398438 319 376.108398438 249 c 0
 329.108398438 179 282.108398438 107 235.108398438 33 c 0
 224.108398438 16 213.108398438 4 201.108398438 -3 c 0
 192.108398438 -8 185.108398438 -11 178.108398438 -11 c 2
 173.108398438 -11 l 2
 169.108398438 -10 165.108398438 -7 163.108398438 -4 c 0
 161.108398438 -1 160.108398438 3 160.108398438 9 c 0
 160.108398438 15 163.108398438 24 169.108398438 37 c 0
 216.108398438 105 265.108398438 173 314.108398438 241 c 0
 361.108398438 309 401.108398438 362 432.108398438 403 c 0
 463.108398438 444 490.108398438 483 517.108398438 522 c 0
 544.108398438 561 565.108398438 592 578.108398438 616 c 2
 586.108398438 633 l 1
 566.108398438 634 l 2
 541.108398438 634.5 515.608398438 634.75 489.233398438 634.75 c 0
 462.858398438 634.75 435.608398438 634.5 407.108398438 634 c 0
 350.108398438 633 312.108398438 629 292.108398438 624 c 0
 290.108398438 624 288.108398438 623 287.108398438 623 c 0
 286.108398438 623 284.108398438 624 283.108398438 624 c 0
 281.108398438 625 278.108398438 628 277.108398438 630 c 0
 275.108398438 637 273.108398438 646 274.108398438 658 c 0
 276.108398438 666 281.108398438 673 286.108398438 679 c 0
 291.108398438 685 298.108398438 690 311.108398438 692 c 0
 342.108398438 699 394.108398438 702 464.108398438 702 c 0
 486.108398438 702 531.108398438 700 597.108398438 697 c 0
 629.108398438 696 646.108398438 695 648.108398438 695 c 0
 658.108398438 695 665.108398438 691 670.108398438 682 c 0
 671.108398438 680 673.108398438 676 673.108398438 673 c 0
 673.108398438 670 672.108398438 667 672.108398438 665 c 0
 671.108398438 656 666.108398438 644 657.108398438 631 c 0
EndSplineSet
EndChar

StartChar: eight
Encoding: 56 56 34
Width: 670
GlyphClass: 2
Flags: HMW
HStem: -16 61<331.405 335.905> 658 48<448.405 488.405 462.905 488.405>
VStem: 163.905 58<122.5 164> 270.905 60 520.905 67<217.5 249.5> 559.905 62<550 586>
LayerCount: 2
Fore
SplineSet
587.905273438 244 m 0xf8
 587.905273438 233 585.905273438 221 582.905273438 207 c 0
 572.905273438 163 552.905273438 122 521.905273438 85 c 0
 504.905273438 65 488.905273438 49 469.905273438 34 c 0
 450.905273438 19 428.905273438 7 402.905273438 -2 c 0
 376.905273438 -11 349.905273438 -16 321.905273438 -16 c 0
 292.905273438 -16 266.905273438 -12 245.905273438 -3 c 0
 224.905273438 6 207.905273438 16 196.905273438 29 c 0
 185.905273438 42 176.905273438 58 171.905273438 77 c 0
 166.905273438 96 163.905273438 113 163.905273438 132 c 0
 163.905273438 151 165.905273438 172 170.905273438 194 c 0
 175.905273438 215 185.905273438 237 201.905273438 262 c 0
 217.905273438 287 238.905273438 310 262.905273438 331 c 0
 284.905273438 353 308.905273438 368 330.905273438 376 c 2
 354.905273438 384 l 1
 332.905273438 398 l 2
 308.905273438 413 291.905273438 432 281.905273438 457 c 0
 274.905273438 473 270.905273438 489 270.905273438 505 c 0
 270.905273438 514 271.905273438 523 273.905273438 531 c 0
 275.905273438 539 278.905273438 547 281.905273438 556 c 0
 283.905273438 565 288.905273438 574 294.905273438 586 c 0
 300.905273438 598 305.905273438 609 312.905273438 620 c 0
 319.905273438 631 329.905273438 641 340.905273438 652 c 0
 351.905273438 663 362.905273438 672 375.905273438 680 c 0
 388.905273438 688 403.905273438 694 421.905273438 699 c 0
 439.905273438 704 457.905273438 706 477.905273438 706 c 0
 498.905273438 706 516.905273438 704 534.905273438 699 c 0
 552.905273438 694 566.905273438 688 576.905273438 681 c 0
 586.905273438 674 594.905273438 664 601.905273438 654 c 0
 608.905273438 644 614.905273438 634 616.905273438 624 c 0
 619.905273438 611 621.905273438 595 621.905273438 577 c 0xf4
 621.905273438 563 619.905273438 548 616.905273438 533 c 0
 615.905273438 526 612.905273438 519 609.905273438 512 c 0
 606.905273438 505 602.905273438 499 598.905273438 493 c 0
 594.905273438 487 588.905273438 481 582.905273438 475 c 0
 576.905273438 469 570.905273438 464 565.905273438 459 c 0
 557.905273438 452 541.905273438 441 518.905273438 426 c 2
 473.905273438 396 l 1
 491.905273438 386 l 2
 510.905273438 376 526.905273438 365 539.905273438 352 c 0
 552.905273438 339 562.905273438 327 569.905273438 315 c 0
 576.905273438 303 581.905273438 292 583.905273438 279 c 0
 585.905273438 266 587.905273438 255 587.905273438 244 c 0xf8
519.905273438 638 m 0
 502.905273438 651 484.905273438 658 463.905273438 658 c 2
 462.905273438 658 l 2
 433.905273438 658 407.905273438 646 381.905273438 622 c 0
 355.905273438 598 339.905273438 570 333.905273438 541 c 0
 331.905273438 534 330.905273438 527 330.905273438 521 c 0
 330.905273438 502 336.905273438 486 348.905273438 471 c 0
 363.905273438 453 389.905273438 435 426.905273438 417 c 2
 430.905273438 415 l 1
 434.905273438 416 l 1
 461.905273438 428 486.905273438 444 510.905273438 465 c 0
 537.905273438 486 552.905273438 506 556.905273438 526 c 0
 558.905273438 535 559.905273438 545 559.905273438 555 c 0
 559.905273438 565 557.905273438 576 554.905273438 587 c 0
 548.905273438 608 536.905273438 625 519.905273438 638 c 0
231.905273438 114 m 0
 242.905273438 92 257.905273438 74 278.905273438 63 c 0
 298.905273438 51 319.905273438 45 342.905273438 45 c 0
 359.905273438 45 376.905273438 49 394.905273438 55 c 0
 412.905273438 61 429.905273438 70 445.905273438 81 c 0
 461.905273438 92 475.905273438 107 488.905273438 126 c 0
 501.905273438 145 510.905273438 165 515.905273438 186 c 0
 518.905273438 199 520.905273438 212 520.905273438 223 c 0xf8
 520.905273438 233 518.905273438 244 515.905273438 257 c 0
 512.905273438 270 507.905273438 282 499.905273438 294 c 0
 492.905273438 306 481.905273438 318 467.905273438 330 c 0
 453.905273438 342 436.905273438 353 415.905273438 363 c 2
 412.905273438 365 l 1
 408.905273438 364 l 2
 364.905273438 351 325.905273438 328 292.905273438 295 c 0
 256.905273438 262 233.905273438 227 224.905273438 189 c 0
 222.905273438 179 221.905273438 169 221.905273438 159 c 0
 221.905273438 143 224.905273438 128 231.905273438 114 c 0
EndSplineSet
EndChar

StartChar: nine
Encoding: 57 57 35
Width: 670
GlyphClass: 2
Flags: HMW
HStem: 248 64<349.433 413.433> 667 60<457.433 502.933 468.433 502.933>
VStem: 229.433 68<412.5 427> 578.433 57<522.5 530.5>
LayerCount: 2
Fore
SplineSet
612.432617188 382 m 0
 599.432617188 330 582.432617188 283 561.432617188 241 c 0
 540.432617188 199 516.432617188 162 492.432617188 133 c 0
 469.432617188 104 443.432617188 79 415.432617188 58 c 0
 387.432617188 37 358.432617188 22 328.432617188 11 c 0
 296.432617188 0 262.432617188 -7 225.432617188 -10 c 0
 223.432617188 -10 221.432617188 -11 219.432617188 -11 c 0
 210.432617188 -11 203.432617188 -8 197.432617188 -5 c 0
 195.432617188 -4 192.432617188 -2 191.432617188 0 c 0
 190.432617188 2 190.432617188 6 190.432617188 10 c 0
 190.432617188 16 195.432617188 22 203.432617188 30 c 0
 211.432617188 38 221.432617188 44 230.432617188 46 c 0
 237.432617188 48 248.432617188 51 264.432617188 55 c 0
 280.432617188 59 296.432617188 62 309.432617188 65 c 0
 320.432617188 68 334.432617188 73 349.432617188 79 c 0
 382.432617188 92 412.432617188 114 441.432617188 145 c 0
 459.432617188 165 475.432617188 188 492.432617188 214 c 0
 509.432617188 241 523.432617188 265 532.432617188 286 c 2
 554.432617188 341 l 1
 512.432617188 300 l 2
 493.432617188 280 472.432617188 266 448.432617188 259 c 0
 424.432617188 252 395.432617188 248 360.432617188 248 c 0
 338.432617188 248 317.432617188 253 299.432617188 266 c 0
 279.432617188 279 264.432617188 295 253.432617188 316 c 0
 242.432617188 337 234.432617188 362 231.432617188 390 c 0
 230.432617188 399 229.432617188 408 229.432617188 417 c 0
 229.432617188 437 231.432617188 456 236.432617188 476 c 0
 245.432617188 512 257.432617188 546 276.432617188 577 c 0
 295.432617188 608 315.432617188 635 337.432617188 657 c 0
 358.432617188 679 381.432617188 696 407.432617188 708 c 0
 433.432617188 720 461.432617188 727 488.432617188 727 c 0
 517.432617188 727 542.432617188 721 563.432617188 710 c 0
 589.432617188 696 608.432617188 673 620.432617188 642 c 0
 630.432617188 615 635.432617188 583 635.432617188 546 c 0
 635.432617188 499 627.432617188 444 612.432617188 382 c 0
569.432617188 581 m 0
 564.432617188 597 558.432617188 611 549.432617188 624 c 0
 540.432617188 637 528.432617188 647 513.432617188 655 c 0
 500.432617188 663 485.432617188 667 469.432617188 667 c 2
 468.432617188 667 l 2
 446.432617188 667 422.432617188 659 399.432617188 642 c 0
 376.432617188 625 357.432617188 603 340.432617188 577 c 0
 323.432617188 551 311.432617188 523 305.432617188 494 c 0
 299.432617188 468 297.432617188 445 297.432617188 425 c 0
 297.432617188 400 302.432617188 378 311.432617188 361 c 0
 328.432617188 328 358.432617188 312 400.432617188 312 c 0
 426.432617188 312 453.432617188 319 480.432617188 333 c 0
 508.432617188 347 532.432617188 366 554.432617188 391 c 1
 557.432617188 393 l 1
 562.432617188 415 567.432617188 445 574.432617188 485 c 0
 576.432617188 496 578.432617188 508 578.432617188 520 c 0
 578.432617188 541 575.432617188 561 569.432617188 581 c 0
EndSplineSet
EndChar

StartChar: colon
Encoding: 58 58 36
Width: 670
GlyphClass: 2
Flags: HMW
HStem: 52 131<332.271 376.771 336.771 376.771> 319 131<401.771 437.771 401.771 437.771>
VStem: 302.771 108<80 151.5 84 151.5> 363.771 109<343 424 351 424>
LayerCount: 2
Fore
SplineSet
363.771484375 351 m 2xd0
 365.771484375 369 371.771484375 392 378.771484375 419 c 0
 379.771484375 426 382.771484375 432 386.771484375 436 c 0
 390.771484375 440 396.771484375 443 402.771484375 445 c 0
 412.771484375 448 421.771484375 450 430.771484375 450 c 2
 437.771484375 450 l 2
 447.771484375 450 456.771484375 448 464.771484375 443 c 0
 469.771484375 440 472.771484375 433 472.771484375 424 c 2
 472.771484375 419 l 1
 468.771484375 398 460.771484375 376 449.771484375 352 c 0
 444.771484375 341 437.771484375 332 427.771484375 327 c 0
 417.771484375 322 410.771484375 319 403.771484375 319 c 2
 401.771484375 319 l 2
 389.771484375 320 380.771484375 323 373.771484375 327 c 0
 369.771484375 329 366.771484375 331 365.771484375 334 c 0
 364.771484375 337 363.771484375 340 363.771484375 343 c 2
 363.771484375 351 l 2xd0
302.771484375 80 m 2xe0
 302.771484375 84 l 1
 307.771484375 110 l 2
 307.771484375 112 310.771484375 117 311.771484375 122 c 0
 312.771484375 127 315.771484375 137 320.771484375 152 c 0
 321.771484375 158 324.771484375 163 328.771484375 167 c 0
 332.771484375 171 337.771484375 175 342.771484375 177 c 0
 353.771484375 181 362.771484375 183 370.771484375 183 c 2
 376.771484375 183 l 2
 382.771484375 183 388.771484375 182 393.771484375 180 c 0
 398.771484375 178 401.771484375 175 405.771484375 170 c 0
 409.771484375 165 411.771484375 160 411.771484375 153 c 2
 411.771484375 153 410.771484375 152 410.771484375 151 c 0
 409.771484375 129 402.771484375 106 391.771484375 83 c 0
 386.771484375 73 378.771484375 65 367.771484375 60 c 0
 356.771484375 55 347.771484375 52 339.771484375 52 c 2
 336.771484375 52 l 2
 327.771484375 52 318.771484375 56 310.771484375 62 c 0
 305.771484375 67 302.771484375 73 302.771484375 80 c 2xe0
EndSplineSet
EndChar

StartChar: semicolon
Encoding: 59 59 37
Width: 670
GlyphClass: 2
Flags: HMW
HStem: 277 131<423.863 457.863 423.863 457.863>
VStem: 384.863 109<306 382 310 382>
LayerCount: 2
Fore
SplineSet
457.86328125 408 m 2
 466.86328125 408 476.86328125 406 485.86328125 401 c 0
 487.86328125 400 490.86328125 398 491.86328125 394 c 0
 492.86328125 390 493.86328125 386 493.86328125 382 c 2
 493.86328125 377 l 1
 489.86328125 356 481.86328125 334 470.86328125 310 c 0
 465.86328125 299 457.86328125 290 448.86328125 285 c 0
 439.86328125 280 431.86328125 277 424.86328125 277 c 2
 423.86328125 277 l 2
 407.86328125 279 395.86328125 285 388.86328125 294 c 0
 386.86328125 297 384.86328125 301 384.86328125 306 c 2
 384.86328125 310 l 2
 386.86328125 328 391.86328125 351 398.86328125 378 c 0
 400.86328125 384 404.86328125 390 408.86328125 394 c 0
 412.86328125 398 418.86328125 401 424.86328125 403 c 0
 430.86328125 405 435.86328125 407 440.86328125 407 c 0
 445.86328125 407 450.86328125 408 452.86328125 408 c 2
 457.86328125 408 l 2
405.86328125 77 m 0
 399.86328125 56 359.86328125 -30 285.86328125 -182 c 0
 280.86328125 -193 273.86328125 -201 265.86328125 -206 c 0
 257.86328125 -211 250.86328125 -213 243.86328125 -213 c 2
 241.86328125 -213 l 2
 232.86328125 -213 224.86328125 -210 218.86328125 -204 c 0
 216.86328125 -202 214.86328125 -198 214.86328125 -194 c 0
 214.86328125 -190 215.86328125 -187 216.86328125 -183 c 0
 221.86328125 -168 236.86328125 -129 262.86328125 -67 c 0
 288.86328125 -5 308.86328125 41 323.86328125 74 c 0
 327.86328125 83 330.86328125 90 334.86328125 95 c 0
 338.86328125 100 343.86328125 103 345.86328125 104 c 0
 352.86328125 106 358.86328125 107 363.86328125 107 c 0
 364.86328125 107 367.86328125 106 369.86328125 106 c 0
 380.86328125 106 390.86328125 104 399.86328125 99 c 0
 404.86328125 97 407.86328125 92 407.86328125 87 c 0
 407.86328125 85 406.86328125 81 405.86328125 77 c 0
EndSplineSet
EndChar

StartChar: less
Encoding: 60 60 38
Width: 670
GlyphClass: 2
Flags: HMW
HStem: 680 20G<665.046 671.046>
LayerCount: 2
Fore
SplineSet
694.045898438 669 m 0
 694.045898438 663 691.045898438 657 686.045898438 650 c 0
 677.045898438 639 660.045898438 626 637.045898438 611 c 0
 597.045898438 585 534.045898438 543 450.045898438 483 c 0
 366.045898438 423 307.045898438 383 276.045898438 362 c 1
 286.045898438 352 l 2
 306.045898438 332 327.045898438 307 350.045898438 279 c 0
 373.045898438 251 393.045898438 226 410.045898438 203 c 0
 427.045898438 180 445.045898438 155 466.045898438 131 c 0
 487.045898438 107 506.045898438 88 523.045898438 74 c 0
 543.045898438 58 552.045898438 45 552.045898438 35 c 0
 552.045898438 32 550.045898438 27 547.045898438 20 c 0
 544.045898438 15 540.045898438 10 534.045898438 7 c 0
 528.045898438 4 520.045898438 1 511.045898438 0 c 2
 505.045898438 0 l 2
 498.045898438 0 490.045898438 2 481.045898438 5 c 0
 468.045898438 10 453.045898438 21 435.045898438 38 c 0
 417.045898438 55 398.045898438 77 377.045898438 102 c 0
 356.045898438 127 337.045898438 152 317.045898438 178 c 0
 297.045898438 204 275.045898438 230 252.045898438 258 c 0
 229.045898438 286 210.045898438 308 193.045898438 324 c 0
 190.045898438 327 188.045898438 333 188.045898438 341 c 0
 188.045898438 351 190.045898438 361 195.045898438 370 c 0
 200.045898438 379 205.045898438 385 212.045898438 389 c 0
 254.045898438 418 304.045898438 454 361.045898438 496 c 0
 418.045898438 538 471.045898438 576 518.045898438 610 c 0
 565.045898438 644 606.045898438 671 641.045898438 691 c 0
 652.045898438 697 661.045898438 700 669.045898438 700 c 0
 673.045898438 700 677.045898438 700 679.045898438 698 c 0
 687.045898438 692 692.045898438 684 693.045898438 675 c 0
 693.045898438 673 694.045898438 671 694.045898438 669 c 0
EndSplineSet
EndChar

StartChar: equal
Encoding: 61 61 39
Width: 670
GlyphClass: 2
Flags: HMW
HStem: 259 50 259 58 455 61<306.581 311.581>
LayerCount: 2
Fore
SplineSet
312.081054688 516 m 2x20
 314.081054688 516.000976562 l 2
 350.399414062 514.829101562 390.149414062 514.34375 433.331054688 514.34375 c 0
 463.865234375 514.34375 496.115234375 514.5859375 530.081054688 515 c 0
 562.081054688 515 580.081054688 516 587.081054688 516 c 0
 597.081054688 516 604.081054688 515 605.081054688 513 c 0
 606.081054688 511 607.081054688 507 607.081054688 502 c 0
 607.081054688 495 605.081054688 487 602.081054688 479 c 0
 598.081054688 470 593.081054688 463 586.081054688 461 c 0
 583.081054688 460 580.081054688 459 578.081054688 459 c 2
 571.081054688 459 l 2
 557.081054688 459 544.081054688 460 532.081054688 460 c 2
 498.081054688 460 l 1
 395.081054688 457 l 2
 353.081054688 456 322.081054688 455 301.081054688 455 c 0
 290.081054688 455 281.081054688 458 276.081054688 463 c 0
 273.081054688 466 271.081054688 470 271.081054688 475 c 0
 271.081054688 477 272.081054688 480 272.081054688 482 c 0
 274.081054688 492 280.081054688 500 287.081054688 507 c 0
 294.081054688 513 301.081054688 516 312.081054688 516 c 2x20
272.081054688 317.000976562 m 2x60
 292.081054688 317.000976562 315.081054688 316.000976562 343.081054688 316.000976562 c 0
 371.081054688 316.000976562 404.081054688 318.000976562 444.081054688 318.000976562 c 2
 542.081054688 320.000976562 l 2
 553.081054688 320.000976562 559.081054688 318.000976562 560.081054688 316.000976562 c 0
 562.081054688 313.000976562 562.081054688 307.000976562 561.081054688 298.000976562 c 0
 559.081054688 288.000976562 556.081054688 280.000976562 551.081054688 273.000976562 c 0
 549.081054688 269.000976562 545.081054688 266.000976562 541.081054688 265.000976562 c 0
 537.081054688 264.000976562 534.081054688 264.000976562 532.081054688 264.000976562 c 2
 525.081054688 264.000976562 l 2
 510.081054688 264.000976562 493.081054688 265.000976562 473.081054688 265.000976562 c 0
 453.081054688 265.000976562 412.081054688 263.000976562 348.081054688 261.000976562 c 0
 304.081054688 260.000976562 271.081054688 259.000976562 251.081054688 259.000976562 c 0
 240.081054688 259.000976562 232.081054688 261.000976562 229.081054688 266.000976562 c 0
 227.081054688 269.000976562 226.081054688 273.000976562 226.081054688 278.000976562 c 0
 226.081054688 281.000976562 227.081054688 285.000976562 227.081054688 288.000976562 c 0
 228.081054688 296.000976562 233.081054688 303.000976562 241.081054688 309.000976562 c 0xa0
 249.081054688 315.000976562 258.081054688 317.000976562 270.081054688 317.000976562 c 2
 272.081054688 317.000976562 l 2x60
EndSplineSet
EndChar

StartChar: greater
Encoding: 62 62 40
Width: 670
GlyphClass: 2
Flags: HMW
HStem: 687 20G<306.654 312.654 312.654 316.154>
LayerCount: 2
Fore
SplineSet
312.654296875 707 m 2
 319.654296875 707 327.654296875 705 336.654296875 702 c 0
 349.654296875 697 364.654296875 686 383.654296875 669 c 0
 402.654296875 652 420.654296875 631 440.654296875 606 c 0
 460.654296875 581 480.654296875 555 500.654296875 529 c 0
 520.654296875 503 542.654296875 477 564.654296875 449 c 0
 586.654296875 421 607.654296875 399 624.654296875 383 c 0
 627.654296875 380 629.654296875 374 629.654296875 366 c 0
 629.654296875 356 627.654296875 346 622.654296875 337 c 0
 617.654296875 328 612.654296875 322 605.654296875 318 c 0
 563.654296875 290 513.654296875 254 456.654296875 212 c 0
 399.654296875 170 347.654296875 131 300.654296875 97 c 0
 253.654296875 63 211.654296875 36 176.654296875 16 c 0
 165.654296875 10 156.654296875 7 148.654296875 7 c 0
 143.654296875 7 140.654296875 7 138.654296875 9 c 0
 134.654296875 12 130.654296875 16 128.654296875 20 c 0
 126.654296875 24 124.654296875 26 124.654296875 30 c 0
 124.654296875 34 123.654296875 37 123.654296875 38 c 0
 123.654296875 44 126.654296875 50 131.654296875 57 c 0
 140.654296875 68 156.654296875 81 180.654296875 96 c 0
 221.654296875 122 284.654296875 164 368.654296875 224 c 0
 452.654296875 284 511.654296875 324 542.654296875 345 c 1
 531.654296875 355 l 2
 511.654296875 375 491.654296875 400 468.654296875 428 c 0
 445.654296875 456 425.654296875 481 408.654296875 504 c 0
 391.654296875 527 372.654296875 552 351.654296875 576 c 0
 330.654296875 600 312.654296875 619 294.654296875 633 c 0
 274.654296875 649 265.654296875 662 265.654296875 672 c 0
 265.654296875 677 267.654296875 682 270.654296875 687 c 0
 273.654296875 692 278.654296875 697 284.654296875 700 c 0
 290.654296875 703 297.654296875 706 306.654296875 707 c 2
 312.654296875 707 l 2
EndSplineSet
EndChar

StartChar: question
Encoding: 63 63 41
Width: 670
GlyphClass: 2
Flags: HMW
HStem: -2 130<284.602 348.602 292.102 348.602> 650 60<468.102 481.102>
VStem: 251.102 132<37.5 90.5> 564.102 69<578.5 582>
LayerCount: 2
Fore
SplineSet
633.102539062 588 m 0
 633.102539062 569 630.102539062 548 625.102539062 525 c 0
 621.102539062 508 614.102539062 493 606.102539062 479 c 0
 598.102539062 465 589.102539062 453 579.102539062 443 c 0
 569.102539062 433 557.102539062 424 544.102539062 415 c 0
 531.102539062 406 518.102539062 396 504.102539062 387 c 0
 490.102539062 378 478.102539062 368 465.102539062 357 c 0
 452.102539062 346 441.102539062 333 429.102539062 318 c 0
 417.102539062 303 408.102539062 286 401.102539062 267 c 0
 395.102539062 252 387.102539062 240 378.102539062 232 c 0
 373.102539062 227 367.102539062 225 360.102539062 225 c 0
 358.102539062 225 354.102539062 227 349.102539062 227 c 0
 344.102539062 228 339.102539062 231 336.102539062 233 c 0
 331.102539062 237 329.102539062 242 329.102539062 249 c 0
 329.102539062 259 333.102539062 272 340.102539062 287 c 0
 348.102539062 304 358.102539062 320 370.102539062 335 c 0
 382.102539062 350 392.102539062 364 404.102539062 375 c 0
 416.102539062 386 429.102539062 397 442.102539062 407 c 0
 455.102539062 417 468.102539062 427 480.102539062 436 c 0
 492.102539062 445 504.102539062 454 515.102539062 464 c 0
 526.102539062 474 535.102539062 485 543.102539062 497 c 0
 551.102539062 509 557.102539062 522 560.102539062 535 c 0
 563.102539062 548 564.102539062 560 564.102539062 571 c 0
 564.102539062 593 558.102539062 610 546.102539062 623 c 0
 528.102539062 641 500.102539062 650 462.102539062 650 c 0
 452.102539062 650 442.102539062 648 431.102539062 643 c 0
 420.102539062 638 410.102539062 633 402.102539062 627 c 0
 394.102539062 621 385.102539062 613 375.102539062 604 c 0
 365.102539062 595 357.102539062 587 352.102539062 581 c 0
 347.102539062 575 340.102539062 567 332.102539062 558 c 0
 319.102539062 543 309.102539062 534 302.102539062 534 c 0
 301.102539062 534 298.102539062 533 297.102539062 533 c 0
 296.102539062 533 293.102539062 534 291.102539062 535 c 0
 289.102539062 536 284.102539062 538 279.102539062 540 c 0
 274.102539062 543 271.102539062 548 271.102539062 555 c 0
 271.102539062 564 276.102539062 576 287.102539062 592 c 0
 307.102539062 619 333.102539062 645 364.102539062 669 c 0
 380.102539062 681 398.102539062 691 418.102539062 699 c 0
 438.102539062 707 458.102539062 710 478.102539062 710 c 0
 541.102539062 710 585.102539062 695 610.102539062 664 c 0
 625.102539062 645 633.102539062 620 633.102539062 588 c 0
383.102539062 85 m 0
 383.102539062 80 382.102539062 74 381.102539062 68 c 0
 377.102539062 49 368.102539062 34 353.102539062 21 c 0
 338.102539062 8 320.102539062 0 300.102539062 -2 c 2
 292.102539062 -2 l 2
 277.102539062 -2 267.102539062 3 260.102539062 13 c 0
 254.102539062 22 251.102539062 32 251.102539062 43 c 0
 251.102539062 48 252.102539062 54 253.102539062 61 c 0
 258.102539062 79 268.102539062 94 285.102539062 107 c 0
 303.102539062 121 321.102539062 128 341.102539062 128 c 0
 356.102539062 128 368.102539062 123 375.102539062 113 c 0
 380.102539062 105 383.102539062 96 383.102539062 85 c 0
EndSplineSet
EndChar

StartChar: at
Encoding: 64 64 42
Width: 670
GlyphClass: 2
Flags: HMW
HStem: -117 61<277.823 325.323 292.823 325.323> 114 53<491.323 522.323> 130 56<356.323 364.323> 394 52<424.823 454.323 424.823 454.323> 625 65<477.323 513.823 490.823 506.823>
VStem: 138.822 60<100 118.5> 269.823 53<198 229> 454.823 33 605.823 51<460 533.5>
LayerCount: 2
Fore
SplineSet
528.823242188 49 m 2xdf80
 528.823242188 47 526.823242188 42 524.823242188 36 c 0
 522.823242188 30 518.823242188 22 512.823242188 12 c 0
 507.823242188 3 502.823242188 -6 497.823242188 -13 c 0
 492.823242188 -20 486.823242188 -28 478.823242188 -38 c 0
 470.823242188 -48 462.823242188 -55 454.823242188 -62 c 0
 446.823242188 -69 437.823242188 -77 425.823242188 -84 c 0
 413.823242188 -91 401.823242188 -97 389.823242188 -102 c 0
 377.823242188 -107 362.823242188 -111 346.823242188 -113 c 0
 330.823242188 -115 314.823242188 -117 297.823242188 -117 c 2
 292.823242188 -117 l 2
 262.823242188 -117 235.823242188 -109 213.823242188 -93 c 0
 191.823242188 -77 173.823242188 -55 160.823242188 -26 c 0
 145.823242188 8 138.823242188 50 138.823242188 99 c 0
 138.823242188 138 142.823242188 180 153.823242188 225 c 0
 167.823242188 283 184.823242188 338 204.823242188 388 c 0
 224.823242188 438 245.823242188 481 268.823242188 518 c 0
 291.823242188 555 318.823242188 586 344.823242188 612 c 0
 370.823242188 638 397.823242188 658 424.823242188 671 c 0
 451.823242188 684 477.823242188 690 503.823242188 690 c 0
 523.823242188 690 541.823242188 689 556.823242188 686 c 0
 571.823242188 683 586.823242188 677 598.823242188 669 c 0
 610.823242188 661 620.823242188 652 628.823242188 640 c 0
 636.823242188 628 643.823242188 611 648.823242188 591 c 0
 653.823242188 571 656.823242188 547 656.823242188 520 c 0
 656.823242188 463 645.823242188 388 624.823242188 295 c 0
 613.823242188 248 597.823242188 206 576.823242188 171 c 0
 565.823242188 153 553.823242188 139 540.823242188 129 c 0
 527.823242188 119 513.823242188 114 499.823242188 114 c 0
 482.823242188 114 470.823242188 119 463.823242188 128 c 0
 457.823242188 136 454.823242188 148 454.823242188 163 c 0
 454.823242188 169 454.823242188 176 455.823242188 184 c 2
 464.823242188 251 l 1
 432.823242188 192 l 2
 410.823242188 150 381.823242188 130 346.823242188 130 c 0xbf80
 314.823242188 130 292.823242188 140 280.823242188 161 c 0
 273.823242188 173 269.823242188 188 269.823242188 208 c 0
 269.823242188 225 272.823242188 245 277.823242188 268 c 0
 282.823242188 291 290.823242188 312 300.823242188 333 c 0
 310.823242188 354 320.823242188 370 332.823242188 384 c 0
 344.823242188 398 357.823242188 410 370.823242188 420 c 0
 383.823242188 430 397.823242188 436 410.823242188 440 c 0
 423.823242188 444 435.823242188 446 446.823242188 446 c 0
 461.823242188 446 476.823242188 443 490.823242188 436 c 0
 501.823242188 431 509.823242188 425 514.823242188 417 c 0
 515.823242188 414 516.823242188 411 516.823242188 409 c 0
 516.823242188 407 515.823242188 405 514.823242188 403 c 0
 508.823242188 394 502.823242188 389 496.823242188 387 c 0
 491.823242188 386 486.823242188 385 483.823242188 385 c 0
 478.823242188 385 467.823242188 387 451.823242188 392 c 0
 444.823242188 393 438.823242188 394 434.823242188 394 c 2
 424.823242188 394 l 2
 414.823242188 393 404.823242188 389 394.823242188 383 c 0
 384.823242188 377 375.823242188 371 367.823242188 362 c 0
 359.823242188 353 351.823242188 343 344.823242188 329 c 0
 337.823242188 315 332.823242188 300 328.823242188 283 c 0
 324.823242188 266 322.823242188 252 322.823242188 241 c 2
 322.823242188 229 l 2
 322.823242188 217 326.823242188 207 332.823242188 199 c 0
 339.823242188 190 349.823242188 186 362.823242188 186 c 0
 385.823242188 186 404.823242188 195 419.823242188 215 c 0
 432.823242188 233 444.823242188 261 454.823242188 301 c 0
 455.823242188 307 463.823242188 313 476.823242188 318 c 0
 486.823242188 322 494.823242188 324 501.823242188 324 c 0
 505.823242188 324 509.823242188 323 511.823242188 322 c 2
 512.823242188 321 l 1
 512.823242188 321 511.823242188 319 511.823242188 317 c 0
 499.823242188 281 491.823242188 253 489.823242188 232 c 0
 488.823242188 222 487.823242188 213 487.823242188 205 c 0
 487.823242188 197 488.823242188 191 490.823242188 186 c 0
 492.823242188 179 497.823242188 174 502.823242188 171 c 0
 507.823242188 169 512.823242188 167 517.823242188 167 c 0xdf80
 526.823242188 167 535.823242188 173 543.823242188 186 c 0xbf80
 549.823242188 196 555.823242188 208 560.823242188 223 c 0
 569.823242188 248 576.823242188 272 581.823242188 293 c 0
 588.823242188 327 595.823242188 360 599.823242188 391 c 0
 603.823242188 422 605.823242188 449 605.823242188 471 c 0
 605.823242188 489 603.823242188 506 600.823242188 522 c 0
 597.823242188 538 594.823242188 552 590.823242188 563 c 0
 586.823242188 574 580.823242188 584 572.823242188 592 c 0
 564.823242188 600 557.823242188 607 550.823242188 611 c 0
 543.823242188 615 536.823242188 619 527.823242188 621 c 0
 518.823242188 623 511.823242188 625 506.823242188 625 c 2
 490.823242188 625 l 2
 463.823242188 625 436.823242188 617 409.823242188 599 c 0
 382.823242188 581 356.823242188 557 332.823242188 526 c 0
 308.823242188 495 286.823242188 457 266.823242188 413 c 0
 246.823242188 369 230.823242188 320 218.823242188 267 c 0
 205.823242188 208 198.823242188 156 198.823242188 112 c 0
 198.823242188 88 200.823242188 68 204.823242188 51 c 0
 210.823242188 27 219.823242188 6 230.823242188 -11 c 0
 241.823242188 -28 254.823242188 -39 268.823242188 -46 c 0
 282.823242188 -53 299.823242188 -56 316.823242188 -56 c 0
 333.823242188 -56 350.823242188 -54 365.823242188 -51 c 0
 380.823242188 -48 392.823242188 -43 403.823242188 -38 c 0
 414.823242188 -33 424.823242188 -26 435.823242188 -18 c 0
 446.823242188 -10 454.823242188 -1 460.823242188 6 c 0
 466.823242188 13 474.823242188 22 482.823242188 32 c 0
 487.823242188 39 491.823242188 44 495.823242188 48 c 0
 500.823242188 54 504.823242188 58 506.823242188 59 c 0
 508.823242188 59 510.823242188 61 512.823242188 62 c 0
 514.823242188 63 517.823242188 63 519.823242188 62 c 0
 521.823242188 61 524.823242188 59 525.823242188 58 c 0
 526.823242188 57 528.823242188 53 528.823242188 51 c 2
 528.823242188 49 l 2xdf80
512.823242188 321 m 1024
EndSplineSet
EndChar

StartChar: A
Encoding: 65 65 43
Width: 670
GlyphClass: 2
Flags: HMW
HStem: 276 43<495.267 495.267 495.267 505.267>
VStem: 500.267 72<66 126> 505.267 57 519.267 62
LayerCount: 2
Fore
SplineSet
492.266601562 276 m 1xa0
 417.266601562 273 347.266601562 265 285.266601562 253 c 1
 252.266601562 196 218.266601562 131 183.266601562 58 c 0
 174.266601562 40 165.266601562 28 154.266601562 23 c 0
 149.266601562 21 143.266601562 19 139.266601562 19 c 0
 135.266601562 19 132.266601562 20 129.266601562 21 c 0
 126.266601562 22 123.266601562 25 122.266601562 28 c 0
 121.266601562 31 120.266601562 35 120.266601562 39 c 0
 120.266601562 49 125.266601562 63 133.266601562 81 c 0
 142.266601562 102 172.266601562 157 226.266601562 245 c 1
 224.266601562 256 221.266601562 258 219.266601562 252 c 1
 214.266601562 255 212.266601562 259 212.266601562 263 c 0
 212.266601562 264 213.266601562 266 213.266601562 268 c 0
 214.266601562 275 218.266601562 282 227.266601562 289 c 0
 236.266601562 296 247.266601562 301 258.266601562 305 c 1
 259.266601562 314 261.266601562 315 262.266601562 307 c 1
 371.266601562 499 452.266601562 627 505.266601562 691 c 0
 516.266601562 704 526.266601562 712 533.266601562 717 c 0
 540.266601562 722 547.266601562 725 553.266601562 725 c 2
 554.266601562 725 l 1
 558.266601562 725 l 2
 565.266601562 725 570.266601562 723 575.266601562 720 c 0
 579.266601562 718 581.266601562 712 581.266601562 705 c 2x90
 581.266601562 700 l 1
 574.266601562 617 570.266601562 500 566.266601562 348 c 0
 564.266601562 289 562.266601562 241 562.266601562 201 c 0xa0
 562.266601562 137 565.266601562 98 569.266601562 84 c 0
 571.266601562 78 572.266601562 72 572.266601562 68 c 0xc0
 572.266601562 64 571.266601562 60 570.266601562 56 c 0
 567.266601562 47 561.266601562 41 556.266601562 35 c 0
 551.266601562 29 545.266601562 24 538.266601562 22 c 0
 533.266601562 20 530.266601562 19 527.266601562 19 c 0
 523.266601562 19 518.266601562 20 515.266601562 22 c 0
 508.266601562 26 503.266601562 37 501.266601562 54 c 0
 501.266601562 62 500.266601562 81 500.266601562 111 c 0
 500.266601562 141 503.266601562 197 505.266601562 276 c 1
 501.266601562 285 497.266601562 285 492.266601562 276 c 1xa0
496.266601562 610 m 2
 459.266601562 565 403.266601562 470 328.266601562 324 c 1
 318.266601562 303 l 1
 340.266601562 306 l 2
 398.266601562 313 449.266601562 318 495.266601562 319 c 2
 507.266601562 320 l 1
 519.266601562 637 l 1
 496.266601562 610 l 2
EndSplineSet
EndChar

StartChar: B
Encoding: 66 66 44
Width: 670
GlyphClass: 2
Flags: HMW
HStem: 310 47<349.212 353.212 353.212 354.212> 642 43<425.212 442.212 442.212 445.212>
VStem: 509.212 72<211 215.5 211 215.5> 551.212 62<533.5 538.5>
LayerCount: 2
Fore
SplineSet
579.211914062 201 m 2xd0
 574.211914062 177 563.211914062 153 546.211914062 130 c 0
 529.211914062 107 507.211914062 85 482.211914062 65 c 0
 458.211914062 45 428.211914062 28 394.211914062 14 c 0
 360.211914062 0 324.211914062 -10 285.211914062 -14 c 1
 279.024414062 -19.0625 272.836914062 -21.59375 266.649414062 -21.59375 c 2
 252.211914062 -17 l 1
 246.024414062 -22.0625 240.153320312 -24.59375 234.243164062 -24.59375 c 0
 229.645507812 -24.59375 225.024414062 -23.0625 220.211914062 -20 c 0
 200.211914062 -22 186.211914062 -23 176.211914062 -23 c 0
 170.211914062 -23 164.211914062 -22 158.211914062 -21 c 2
 156.211914062 -21 l 1
 153.211914062 -21 l 2
 145.211914062 -21 139.211914062 -18 136.211914062 -13 c 0
 134.211914062 -11 133.211914062 -7 133.211914062 -2 c 0
 133.211914062 3 134.211914062 8 136.211914062 14 c 0
 145.211914062 42 158.211914062 95 175.211914062 174 c 0
 192.211914062 253 209.211914062 335 225.211914062 419 c 0
 234.211914062 463 241.211914062 493 244.211914062 508 c 0
 247.211914062 523 252.211914062 544 259.211914062 570 c 0
 264.211914062 579 268.211914062 597 273.211914062 623 c 0
 276.211914062 639 282.211914062 651 290.211914062 658 c 0
 298.211914062 665 306.211914062 669 315.211914062 669 c 2
 319.211914062 669 l 1
 320.211914062 669 l 2
 331.211914062 672 341.211914062 675 351.211914062 677 c 0
 370.211914062 681 387.211914062 684 404.211914062 684 c 0
 413.211914062 684 420.211914062 685 425.211914062 685 c 2
 442.211914062 685 l 1
 452.211914062 685 l 2
 489.211914062 685 521.211914062 678 548.211914062 662 c 0
 575.211914062 646 593.211914062 624 604.211914062 595 c 0
 610.211914062 578 613.211914062 561 613.211914062 541 c 0
 613.211914062 526 611.211914062 509 607.211914062 492 c 0
 599.211914062 455 584.211914062 423 562.211914062 397 c 0
 540.211914062 371 514.211914062 352 485.211914062 340 c 1
 476.211914062 329 468.211914062 325 459.211914062 329 c 1
 465.671875 320.38671875 471.6171875 315.89453125 477.786132812 315.89453125 c 0
 480.211914062 315.89453125 482.671875 316.588867188 485.211914062 318 c 0
 502.211914062 311 519.211914062 300 535.211914062 287 c 0
 551.211914062 274 563.211914062 259 572.211914062 242 c 0
 578.211914062 231 581.211914062 220 581.211914062 211 c 2xe0
 579.211914062 201 l 2xd0
339.211914062 629 m 2
 333.211914062 627 l 1
 315.211914062 553 303.211914062 501 296.211914062 470 c 0
 289.211914062 439 282.211914062 402 273.211914062 360 c 1
 308.211914062 358 337.211914062 357 361.211914062 357 c 0
 379.211914062 357 396.211914062 359 411.211914062 362 c 0
 426.211914062 365 440.211914062 369 451.211914062 375 c 0
 462.211914062 381 473.211914062 388 483.211914062 397 c 0
 493.211914062 406 502.211914062 414 509.211914062 423 c 0
 516.211914062 432 522.211914062 441 527.211914062 451 c 0
 532.211914062 461 536.211914062 471 539.211914062 479 c 0
 542.211914062 487 546.211914062 496 548.211914062 506 c 0
 550.211914062 516 551.211914062 525 551.211914062 534 c 0xd0
 551.211914062 543 550.211914062 550 549.211914062 557 c 0
 546.211914062 574 540.211914062 587 531.211914062 598 c 0
 522.211914062 609 512.211914062 617 499.211914062 624 c 0
 479.211914062 636 457.211914062 642 433.211914062 642 c 0
 402.211914062 642 370.211914062 638 339.211914062 629 c 2
477.211914062 261 m 0
 466.211914062 271 450.211914062 280 429.211914062 289 c 0
 408.211914062 298 383.211914062 305 354.211914062 310 c 1
 353.211914062 310 l 2
 311.211914062 310 282.211914062 308 263.211914062 308 c 1
 241.211914062 194 224.211914062 109 213.211914062 54 c 1
 230.211914062 55 246.211914062 56 261.211914062 56 c 0
 276.211914062 56 287.211914062 57 294.211914062 57 c 0
 321.211914062 58 347.211914062 64 373.211914062 74 c 0
 399.211914062 84 421.211914062 94 439.211914062 108 c 0
 457.211914062 122 472.211914062 137 484.211914062 152 c 0
 497.211914062 167 505.211914062 182 508.211914062 196 c 0
 508.211914062 199 509.211914062 203 509.211914062 206 c 0xe0
 509.211914062 225 498.211914062 243 477.211914062 261 c 0
EndSplineSet
EndChar

StartChar: C
Encoding: 67 67 45
Width: 670
GlyphClass: 2
Flags: HMW
HStem: -31 67<286.505 336.505 297.505 336.505> 654 59<549.505 554.005> 701 21G
VStem: 151.505 77<126.5 190.5>
LayerCount: 2
Fore
SplineSet
304.504882812 -31 m 2xd0
 297.504882812 -31 l 2
 275.504882812 -31 255.504882812 -27 236.504882812 -18 c 0
 217.504882812 -9 202.504882812 2 190.504882812 17 c 0
 178.504882812 32 169.504882812 49 162.504882812 70 c 0
 155.504882812 91 151.504882812 114 151.504882812 139 c 0
 151.504882812 159 153.504882812 179 158.504882812 200 c 0
 169.504882812 249 184.504882812 297 204.504882812 343 c 0
 224.504882812 389 245.504882812 432 269.504882812 469 c 0
 291.504882812 506 315.504882812 540 341.504882812 571 c 0
 367.504882812 602 393.504882812 627 418.504882812 648 c 0
 443.504882812 669 469.504882812 685 493.504882812 696 c 0
 517.504882812 707 539.504882812 713 559.504882812 713 c 0
 580.504882812 713 598.504882812 710 615.504882812 705 c 1
 618.504882812 711 622.504882812 710 625.504882812 701 c 1xb0
 627.504882812 712 629.504882812 716 630.504882812 711 c 1
 634.504882812 720 639.504882812 727 646.504882812 732 c 0
 653.504882812 737 659.504882812 740 666.504882812 740 c 2
 671.504882812 741 l 2
 676.504882812 741 681.504882812 739 686.504882812 735 c 0
 692.504882812 730 695.504882812 723 695.504882812 713 c 0
 695.504882812 697 693.504882812 678 689.504882812 656 c 0
 688.504882812 647 686.504882812 635 682.504882812 621 c 0
 678.504882812 607 675.504882812 598 675.504882812 596 c 0
 673.504882812 583 665.504882812 570 654.504882812 557 c 0
 643.504882812 544 634.504882812 537 627.504882812 537 c 2
 622.504882812 537 l 2
 615.504882812 537 609.504882812 539 604.504882812 544 c 0
 600.504882812 547 598.504882812 552 598.504882812 558 c 0
 598.504882812 559 599.504882812 562 599.504882812 565 c 0
 600.504882812 571 605.504882812 588 612.504882812 616 c 0
 611.504882812 623 609.504882812 625 607.504882812 621 c 1
 604.504882812 623 598.504882812 629 589.504882812 637 c 0
 587.504882812 639 583.504882812 642 578.504882812 645 c 0
 569.504882812 651 559.504882812 654 548.504882812 654 c 0
 528.504882812 654 505.504882812 647 481.504882812 632 c 0
 457.504882812 617 433.504882812 596 409.504882812 570 c 0
 385.504882812 544 360.504882812 514 338.504882812 481 c 0
 316.504882812 448 295.504882812 409 277.504882812 367 c 0
 257.504882812 325 243.504882812 281 234.504882812 239 c 0
 230.504882812 219 228.504882812 200 228.504882812 181 c 0
 228.504882812 169 229.504882812 157 231.504882812 145 c 0
 235.504882812 114 245.504882812 88 263.504882812 68 c 0
 280.504882812 47 301.504882812 36 326.504882812 36 c 0
 346.504882812 36 364.504882812 38 384.504882812 43 c 0
 404.504882812 48 421.504882812 54 437.504882812 62 c 0
 453.504882812 70 467.504882812 76 479.504882812 84 c 0
 491.504882812 92 502.504882812 100 513.504882812 109 c 0
 521.504882812 114 528.504882812 119 533.504882812 121 c 0
 538.504882812 123 543.504882812 125 548.504882812 125 c 0
 551.504882812 125 554.504882812 124 556.504882812 122 c 0
 560.504882812 117 562.504882812 113 562.504882812 108 c 0
 562.504882812 97 554.504882812 82 537.504882812 64 c 0
 477.504882812 1 400.504882812 -31 304.504882812 -31 c 2xd0
EndSplineSet
EndChar

StartChar: D
Encoding: 68 68 46
Width: 670
GlyphClass: 2
Flags: HMW
HStem: -31 61<334.56 381.06 347.06 381.06> 712 21G<331.06 335.06 331.06 331.06>
VStem: 331.06 4<688 688 712 712> 550.06 65<341 379>
LayerCount: 2
Fore
SplineSet
335.059570312 712 m 1
 331.059570312 712 l 1
 332.059570312 726 334.059570312 732 335.059570312 730 c 2
 335.059570312 712 l 1
335.059570312 687 m 1
 346.059570312 686 359.059570312 683 372.059570312 680 c 0
 389.059570312 676 405.059570312 671 422.059570312 664 c 0
 439.059570312 657 456.059570312 647 475.059570312 635 c 0
 494.059570312 623 511.059570312 609 528.059570312 593 c 0
 545.059570312 577 559.059570312 557 573.059570312 533 c 0
 587.059570312 509 597.059570312 484 604.059570312 457 c 0
 611.059570312 430 615.059570312 398 615.059570312 363 c 0
 615.059570312 319 610.059570312 272 598.059570312 222 c 0
 592.059570312 200 584.059570312 176 573.059570312 153 c 0
 562.059570312 130 549.059570312 107 532.059570312 85 c 0
 515.059570312 63 498.059570312 43 479.059570312 26 c 0
 461.059570312 9 441.059570312 -6 420.059570312 -16 c 0
 399.059570312 -26 376.059570312 -31 355.059570312 -31 c 2
 347.059570312 -31 l 2
 322.059570312 -31 297.059570312 -29 272.059570312 -27 c 0
 247.059570312 -25 227.059570312 -21 211.059570312 -17 c 0
 195.059570312 -13 180.059570312 -9 167.059570312 -5 c 0
 154.059570312 -1 146.059570312 0 143.059570312 0 c 0
 135.059570312 0 129.059570312 3 126.059570312 8 c 0
 124.059570312 10 123.059570312 15 123.059570312 20 c 0
 123.059570312 25 124.059570312 30 126.059570312 36 c 0
 135.059570312 68 149.059570312 125 168.059570312 207 c 0
 187.059570312 289 204.059570312 377 223.059570312 472 c 0
 230.059570312 509 236.059570312 533 239.059570312 545 c 0
 242.059570312 557 246.059570312 575 252.059570312 600 c 0
 258.059570312 625 262.059570312 640 263.059570312 645 c 0
 266.059570312 660 272.059570312 672 280.059570312 679 c 0
 288.059570312 686 296.059570312 690 305.059570312 690 c 0
 313.059570312 690 322.059570312 689 331.059570312 688 c 1
 326.059570312 654 320.059570312 628 314.059570312 611 c 0
 293.059570312 525 274.059570312 433 257.059570312 338 c 0
 249.059570312 287 241.059570312 243 232.059570312 208 c 0
 220.059570312 151 211.059570312 104 204.059570312 69 c 0
 206.059570312 60 210.059570312 58 212.059570312 65 c 1
 235.059570312 52 259.059570312 43 284.059570312 38 c 0
 309.059570312 33 339.059570312 30 372.059570312 30 c 0
 390.059570312 30 408.059570312 36 426.059570312 50 c 0
 444.059570312 64 460.059570312 81 474.059570312 102 c 0
 488.059570312 123 500.059570312 145 512.059570312 169 c 0
 524.059570312 193 533.059570312 218 538.059570312 241 c 0
 546.059570312 275 550.059570312 307 550.059570312 337 c 0
 550.059570312 421 521.059570312 489 461.059570312 540 c 0
 436.059570312 562 397.059570312 586 346.059570312 611 c 1
 346.059570312 616 l 1
 343.059570312 616 l 1
 343.059570312 617 l 1
 341.059570312 617 l 1
 341.059570312 618 l 1
 339.059570312 618 l 1
 339.059570312 619 l 1
 335.059570312 619 l 1
 335.059570312 687 l 1
EndSplineSet
EndChar

StartChar: E
Encoding: 69 69 47
Width: 670
GlyphClass: 2
Flags: HMW
HStem: -20 63<210.7 291.2> -6 66<480.2 526.7 486.7 526.7> 312 62<267.7 305.7> 332 57<559.2 588.7> 615 59<511.7 533.2 487.7 539.7>
VStem: 132.7 77<27.5 74.5>
LayerCount: 2
Fore
SplineSet
498.700195312 -6 m 2x4c
 486.700195312 -6 l 2
 473.700195312 -6 452.700195312 -7 421.700195312 -9 c 0
 326.700195312 -16 258.700195312 -20 220.700195312 -20 c 0xac
 200.700195312 -20 186.700195312 -19 173.700195312 -18 c 0
 162.700195312 -18 153.700195312 -11 144.700195312 0 c 0
 137.700195312 9 132.700195312 21 132.700195312 34 c 0
 132.700195312 47 139.700195312 81 152.700195312 136 c 0
 162.700195312 180 173.700195312 228 186.700195312 279 c 0
 199.700195312 330 210.700195312 388 223.700195312 451 c 0
 231.700195312 491 237.700195312 517 240.700195312 530 c 0
 243.700195312 543 248.700195312 562 255.700195312 587 c 0
 262.700195312 612 265.700195312 627 266.700195312 634 c 0
 270.700195312 649 276.700195312 660 284.700195312 668 c 0
 292.700195312 676 301.700195312 680 310.700195312 680 c 1
 311.700195312 672 313.700195312 672 314.700195312 680 c 0
 318.700195312 680 321.700195312 679 324.700195312 678 c 0
 327.700195312 677 330.700195312 674 331.700195312 670 c 0
 332.700195312 659 334.700195312 656 335.700195312 661 c 1
 337.700195312 654 340.700195312 654 342.700195312 663 c 1
 390.700195312 670 451.700195312 674 523.700195312 674 c 0
 542.700195312 674 558.700195312 673 575.700195312 673 c 0
 611.700195312 672 639.700195312 669 660.700195312 667 c 0
 671.700195312 665 678.700195312 662 680.700195312 659 c 0
 680.700195312 658 681.700195312 655 681.700195312 653 c 0
 681.700195312 651 680.700195312 647 680.700195312 643 c 0
 680.700195312 639 678.700195312 634 676.700195312 630 c 0
 671.700195312 621 666.700195312 614 659.700195312 612 c 0
 656.700195312 610 653.700195312 609 651.700195312 609 c 0
 649.700195312 609 647.700195312 610 645.700195312 610 c 0
 602.700195312 613 560.700195312 615 518.700195312 615 c 0
 504.700195312 615 489.700195312 614 474.700195312 614 c 0
 419.700195312 613 372.700195312 609 330.700195312 602 c 1
 328.700195312 593 324.700195312 593 322.700195312 601 c 1
 302.700195312 526 286.700195312 450 270.700195312 373 c 1
 275.700195312 366 279.700195312 366 284.700195312 374 c 1
 326.700195312 374 385.700195312 376 458.700195312 381 c 0
 532.700195312 386 573.700195312 389 583.700195312 389 c 0x1c
 593.700195312 389 599.700195312 386 601.700195312 384 c 0
 603.700195312 380 603.700195312 374 602.700195312 366 c 0
 600.700195312 355 595.700195312 346 590.700195312 341 c 0
 584.700195312 335 575.700195312 332 564.700195312 332 c 0
 553.700195312 332 507.700195312 329 428.700195312 322 c 0
 349.700195312 315 296.700195312 312 267.700195312 312 c 1xac
 264.700195312 303 259.700195312 303 257.700195312 311 c 1
 247.700195312 267 239.700195312 225 230.700195312 184 c 0
 216.700195312 122 209.700195312 82 209.700195312 67 c 0
 209.700195312 63 210.700195312 57 210.700195312 50 c 0
 212.700195312 41 215.700195312 41 217.700195312 48 c 1
 222.700195312 46 229.700195312 44 239.700195312 44 c 0
 248.700195312 44 262.700195312 43 281.700195312 43 c 0
 300.700195312 43 326.700195312 44 358.700195312 45 c 0
 433.700195312 49 483.700195312 53 506.700195312 58 c 0
 514.700195312 59 520.700195312 60 524.700195312 60 c 0
 528.700195312 60 532.700195312 59 534.700195312 58 c 0
 536.700195312 57 538.700195312 55 539.700195312 54 c 0
 540.700195312 53 541.700195312 50 541.700195312 47 c 0
 541.700195312 44 542.700195312 41 542.700195312 39 c 0
 542.700195312 37 541.700195312 33 541.700195312 31 c 0
 539.700195312 20 534.700195312 11 526.700195312 3 c 0
 521.700195312 -4 513.700195312 -7 504.700195312 -7 c 0
 502.700195312 -7 500.700195312 -6 498.700195312 -6 c 2x4c
EndSplineSet
EndChar

StartChar: F
Encoding: 70 70 48
Width: 670
GlyphClass: 2
Flags: HMW
HStem: 323 60<366.53 379.53> 619 63
LayerCount: 2
Fore
SplineSet
663.530273438 677 m 0
 674.530273438 676 680.530273438 673 681.530273438 671 c 0
 683.530273438 668 684.530273438 662 683.530273438 654 c 0
 681.530273438 645 675.530273438 636 668.530273438 629 c 0
 662.530273438 622 654.530273438 619 643.530273438 619 c 2
 641.530273438 619 l 2
 608.530273438 621 574.530273438 622 539.530273438 622 c 0
 474.530273438 622 402.530273438 618 323.530273438 611 c 1
 307.530273438 544 296.530273438 498 290.530273438 472 c 0
 284.530273438 446 277.530273438 414 269.530273438 376 c 1
 274.530273438 369 280.530273438 369 285.530273438 378 c 1
 310.530273438 381 337.530273438 383 366.530273438 383 c 2
 387.530273438 383 l 2
 424.530273438 382 457.530273438 379 487.530273438 376 c 0
 517.530273438 373 540.530273438 370 557.530273438 367 c 0
 563.530273438 366 567.530273438 363 570.530273438 362 c 0
 573.530273438 361 576.530273438 359 576.530273438 359 c 2
 577.530273438 357 578.530273438 354 578.530273438 350 c 2
 578.530273438 344 l 2
 576.530273438 335 571.530273438 326 565.530273438 319 c 0
 561.530273438 313 554.530273438 310 545.530273438 310 c 2
 543.530273438 310 l 2
 526.530273438 313 500.530273438 317 468.530273438 319 c 0
 436.530273438 321 399.530273438 323 359.530273438 323 c 0
 321.530273438 323 290.530273438 320 264.530273438 316 c 1
 262.530273438 307 259.530273438 307 257.530273438 315 c 1
 237.530273438 207 217.530273438 107 197.530273438 15 c 0
 193.530273438 4 186.530273438 -5 176.530273438 -12 c 0
 166.530273438 -19 156.530273438 -22 146.530273438 -22 c 0
 145.530273438 -22 143.530273438 -21 143.530273438 -21 c 2
 135.530273438 -21 129.530273438 -18 126.530273438 -13 c 0
 124.530273438 -11 123.530273438 -7 123.530273438 -2 c 0
 123.530273438 3 124.530273438 8 126.530273438 14 c 0
 135.530273438 43 147.530273438 100 166.530273438 183 c 0
 185.530273438 266 203.530273438 352 220.530273438 440 c 0
 229.530273438 484 236.530273438 515 239.530273438 530 c 0
 242.530273438 545 246.530273438 565 253.530273438 591 c 0
 258.530273438 601 263.530273438 619 268.530273438 645 c 0
 271.530273438 660 277.530273438 672 285.530273438 679 c 0
 293.530273438 686 302.530273438 690 311.530273438 690 c 2
 315.530273438 690 l 2
 320.530273438 690 323.530273438 689 326.530273438 688 c 0
 329.530273438 687 332.530273438 684 333.530273438 680 c 0
 333.530273438 669 335.530273438 667 336.530273438 672 c 1
 412.530273438 679 483.530273438 682 549.530273438 682 c 0
 594.530273438 682 632.530273438 680 663.530273438 677 c 0
EndSplineSet
EndChar

StartChar: G
Encoding: 71 71 49
Width: 670
GlyphClass: 2
Flags: HMW
HStem: -31 67<284.646 333.646 295.646 333.646> 289 59<546.146 586.646> 666 58<551.146 555.146>
VStem: 149.646 78<126.5 190.5>
LayerCount: 2
Fore
SplineSet
671.645507812 687 m 0
 679.645507812 682 684.645507812 677 686.645507812 674 c 0
 689.645507812 669 690.645507812 664 690.645507812 658 c 0
 690.645507812 650 688.645507812 640 682.645507812 629 c 0
 680.645507812 623 673.645507812 618 666.645507812 615 c 0
 662.645507812 614 659.645507812 613 657.645507812 613 c 0
 655.645507812 613 651.645507812 615 647.645507812 615 c 0
 644.645507812 616 637.645507812 621 626.645507812 630 c 0
 615.645507812 639 602.645507812 647 588.645507812 654 c 0
 574.645507812 662 561.645507812 666 548.645507812 666 c 0
 528.645507812 666 506.645507812 658 482.645507812 643 c 0
 458.645507812 628 434.645507812 607 409.645507812 580 c 0
 384.645507812 553 359.645507812 522 337.645507812 487 c 0
 315.645507812 452 294.645507812 413 276.645507812 370 c 0
 256.645507812 327 241.645507812 283 232.645507812 239 c 0
 228.645507812 219 227.645507812 200 227.645507812 181 c 0
 227.645507812 169 227.645507812 157 229.645507812 145 c 0
 233.645507812 114 245.645507812 89 262.645507812 68 c 0
 280.645507812 47 300.645507812 36 325.645507812 36 c 0
 341.645507812 36 357.645507812 42 375.645507812 54 c 0
 393.645507812 66 411.645507812 80 426.645507812 97 c 0
 441.645507812 114 456.645507812 132 471.645507812 153 c 0
 486.645507812 174 499.645507812 195 510.645507812 215 c 0
 521.645507812 235 531.645507812 253 538.645507812 270 c 0
 540.645507812 275 543.645507812 281 545.645507812 289 c 1
 538.645507812 287 532.645507812 287 526.645507812 288 c 0
 489.645507812 286 453.645507812 282 416.645507812 276 c 0
 379.645507812 270 353.645507812 263 337.645507812 254 c 0
 334.645507812 252 331.645507812 250 329.645507812 250 c 0
 327.645507812 250 325.645507812 251 323.645507812 253 c 0
 319.645507812 257 316.645507812 262 316.645507812 268 c 2
 316.645507812 270 l 2
 317.645507812 291 330.645507812 308 355.645507812 320 c 0
 372.645507812 329 408.645507812 337 461.645507812 342 c 0
 501.645507812 346 533.645507812 348 558.645507812 348 c 0
 584.645507812 348 599.645507812 347 605.645507812 345 c 2
 611.645507812 341 l 2
 613.645507812 339 615.645507812 336 615.645507812 331 c 2
 615.645507812 328 l 2
 614.645507812 318 611.645507812 310 607.645507812 304 c 0
 603.645507812 298 598.645507812 293 591.645507812 291 c 0
 589.645507812 289 587.645507812 289 585.645507812 289 c 0
 584.645507812 282 582.645507812 275 579.645507812 266 c 0
 576.645507812 257 574.645507812 249 573.645507812 244 c 0
 568.645507812 230 561.645507812 214 552.645507812 195 c 0
 543.645507812 176 531.645507812 157 517.645507812 136 c 0
 503.645507812 115 488.645507812 94 470.645507812 74 c 0
 452.645507812 54 434.645507812 36 415.645507812 20 c 0
 396.645507812 4 377.645507812 -9 356.645507812 -18 c 0
 335.645507812 -27 316.645507812 -31 297.645507812 -31 c 2
 295.645507812 -31 l 2
 273.645507812 -31 253.645507812 -27 234.645507812 -18 c 0
 215.645507812 -9 201.645507812 2 189.645507812 17 c 0
 177.645507812 32 168.645507812 49 161.645507812 70 c 0
 154.645507812 91 149.645507812 114 149.645507812 139 c 0
 149.645507812 159 152.645507812 179 157.645507812 200 c 0
 169.645507812 251 184.645507812 300 204.645507812 347 c 0
 224.645507812 394 245.645507812 437 269.645507812 475 c 0
 291.645507812 513 315.645507812 548 341.645507812 580 c 0
 367.645507812 612 392.645507812 638 418.645507812 659 c 0
 444.645507812 680 469.645507812 696 493.645507812 707 c 0
 517.645507812 718 540.645507812 724 561.645507812 724 c 0
 583.645507812 724 610.645507812 718 637.645507812 705 c 0
 652.645507812 698 663.645507812 692 671.645507812 687 c 0
EndSplineSet
EndChar

StartChar: H
Encoding: 72 72 50
Width: 670
GlyphClass: 2
Flags: HMW
HStem: 312 62<273.897 316.397 273.897 316.397>
LayerCount: 2
Fore
SplineSet
273.896484375 312 m 1
 271.896484375 304 269.896484375 297 268.896484375 293 c 0
 267.896484375 289 265.896484375 285 265.896484375 282 c 0
 246.896484375 215 226.896484375 126 204.896484375 15 c 0
 200.896484375 4 193.896484375 -5 183.896484375 -12 c 0
 173.896484375 -19 162.896484375 -22 153.896484375 -22 c 0
 152.896484375 -22 150.896484375 -21 150.896484375 -21 c 2
 143.896484375 -21 137.896484375 -18 133.896484375 -13 c 0
 131.896484375 -11 130.896484375 -7 130.896484375 -2 c 0
 130.896484375 3 131.896484375 8 133.896484375 14 c 0
 138.896484375 31 149.896484375 76 166.896484375 148 c 0
 175.896484375 186 189.896484375 248 211.896484375 334 c 0
 222.896484375 376 230.896484375 407 235.896484375 428 c 0
 240.896484375 449 246.896484375 479 255.896484375 520 c 0
 262.896484375 554 267.896484375 573 267.896484375 577 c 0
 269.896484375 586 271.896484375 597 275.896484375 612 c 0
 279.896484375 627 281.896484375 638 283.896484375 645 c 0
 287.896484375 660 294.896484375 672 302.896484375 679 c 0
 310.896484375 686 319.896484375 690 328.896484375 690 c 1
 328.896484375 682 330.896484375 682 330.896484375 690 c 1
 338.896484375 690 344.896484375 688 348.896484375 683 c 0
 350.896484375 680 352.896484375 675 352.896484375 670 c 0
 352.896484375 665 351.896484375 659 350.896484375 653 c 0
 349.896484375 647 344.896484375 633 338.896484375 611 c 0
 332.896484375 589 327.896484375 569 323.896484375 550 c 0
 319.896484375 531 314.896484375 506 307.896484375 470 c 0
 300.896484375 434 294.896484375 402 287.896484375 373 c 1
 292.896484375 366 295.896484375 366 300.896484375 374 c 1
 331.896484375 374 363.896484375 375 396.896484375 379 c 0
 429.896484375 383 458.896484375 388 485.896484375 392 c 0
 512.896484375 396 533.896484375 399 548.896484375 400 c 1
 550.896484375 411 552.896484375 421 553.896484375 430 c 0
 554.896484375 439 557.896484375 445 558.896484375 450 c 0
 564.896484375 470 569.896484375 497 575.896484375 533 c 0
 578.896484375 546 584.896484375 566 591.896484375 594 c 0
 598.896484375 622 604.896484375 639 605.896484375 645 c 0
 609.896484375 660 615.896484375 672 624.896484375 679 c 0
 633.896484375 686 641.896484375 690 650.896484375 690 c 1
 650.896484375 682 652.896484375 682 653.896484375 690 c 1
 662.896484375 690 669.896484375 688 673.896484375 683 c 0
 675.896484375 680 677.896484375 675 677.896484375 670 c 0
 677.896484375 665 676.896484375 657 674.896484375 648 c 0
 672.896484375 639 666.896484375 616 656.896484375 576 c 0
 646.896484375 536 638.896484375 502 631.896484375 472 c 0
 624.896484375 442 615.896484375 399 603.896484375 343 c 0
 594.896484375 297 579.896484375 236 559.896484375 161 c 0
 540.896484375 85 529.896484375 36 524.896484375 15 c 0
 521.896484375 4 514.896484375 -5 505.896484375 -12 c 0
 496.896484375 -19 487.896484375 -22 478.896484375 -22 c 0
 477.896484375 -22 475.896484375 -21 475.896484375 -21 c 2
 468.896484375 -21 462.896484375 -18 459.896484375 -13 c 0
 458.896484375 -11 456.896484375 -7 456.896484375 -2 c 0
 456.896484375 3 457.896484375 8 459.896484375 14 c 0
 485.896484375 107 509.896484375 211 533.896484375 327 c 1
 533.896484375 325 536.896484375 330 537.896484375 343 c 1
 532.896484375 334 527.896484375 334 522.896484375 342 c 1
 512.896484375 342 475.896484375 337 413.896484375 327 c 0
 351.896484375 317 305.896484375 312 280.896484375 312 c 2
 273.896484375 312 l 1
EndSplineSet
EndChar

StartChar: I
Encoding: 73 73 51
Width: 670
GlyphClass: 2
Flags: HMW
HStem: -14 56<143.327 166.327> -6 53<395.828 397.827 373.327 412.828> 625 59<308.827 310.327 310.327 315.327 308.827 353.327>
LayerCount: 2
Fore
SplineSet
436.327148438 -7 m 0x60
 432.327148438 -7 421.328125 -6 404.328125 -6 c 0
 387.328125 -6 365.328125 -7 336.328125 -8 c 1
 315.583984375 -13.333984375 294.83984375 -16.208984375 274.095703125 -16.208984375 c 2
 231.327148438 -12 l 1
 191.327148438 -13 164.327148438 -14 150.327148438 -14 c 0xa0
 136.327148438 -14 128.327148438 -12 124.327148438 -8 c 0
 122.327148438 -6 121.327148438 -2 121.327148438 1 c 0
 121.327148438 3 122.327148438 6 122.327148438 8 c 0
 123.327148438 17 127.327148438 26 134.327148438 32 c 0
 141.327148438 38 153.327148438 42 166.327148438 42 c 0
 193.327148438 43 240.327148438 45 308.327148438 47 c 1x60
 340.327148438 166 368.327148438 290 393.327148438 418 c 0
 399.327148438 448 402.327148438 465 402.327148438 470 c 0
 404.327148438 481 409.327148438 501 416.327148438 532 c 0
 418.327148438 541 421.327148438 555 426.327148438 575 c 0
 431.327148438 595 436.327148438 607 436.327148438 610 c 1
 436.327148438 607 438.327148438 611 439.327148438 624 c 1
 403.327148438 624 374.327148438 625 353.327148438 625 c 2
 310.327148438 625 l 2
 302.327148438 625 296.327148438 624 296.327148438 624 c 2
 286.327148438 624 279.327148438 626 276.327148438 631 c 0
 274.327148438 633 273.327148438 637 273.327148438 642 c 2
 273.327148438 649 l 2
 274.327148438 658 279.327148438 666 286.327148438 673 c 0
 293.327148438 680 302.327148438 684 315.327148438 684 c 0
 364.327148438 685 409.327148438 686 451.327148438 686 c 0
 534.327148438 686 604.327148438 683 662.327148438 676 c 0
 670.327148438 676 676.327148438 673 680.327148438 670 c 0
 684.327148438 667 686.327148438 663 686.327148438 657 c 0
 686.327148438 655 685.327148438 652 685.327148438 650 c 0
 683.327148438 641 677.327148438 631 669.327148438 622 c 0
 666.327148438 618 662.327148438 615 657.327148438 613 c 0
 654.327148438 612 651.327148438 611 649.327148438 611 c 0
 647.327148438 611 646.327148438 612 644.327148438 612 c 0
 627.327148438 614 579.327148438 618 502.327148438 623 c 1
 497.327148438 596 493.327148438 578 489.327148438 568 c 0
 473.327148438 504 458.327148438 436 445.327148438 365 c 0
 436.327148438 318 423.327148438 258 406.327148438 188 c 0
 389.327148438 118 378.327148438 71 373.327148438 47 c 1
 386.327148438 47 l 2
 409.327148438 47 456.327148438 46 525.327148438 46 c 0
 534.327148438 46 541.327148438 44 542.327148438 42 c 0xa0
 543.327148438 40 544.327148438 36 544.327148438 31 c 2
 544.327148438 23 l 2
 542.327148438 13 537.327148438 5 532.327148438 -2 c 0
 530.327148438 -6 527.327148438 -8 524.327148438 -9 c 0
 521.327148438 -10 518.327148438 -12 516.327148438 -12 c 0
 514.327148438 -12 511.327148438 -11 509.327148438 -11 c 0
 494.327148438 -9 471.327148438 -7 436.327148438 -7 c 0x60
EndSplineSet
EndChar

StartChar: J
Encoding: 74 74 52
Width: 670
GlyphClass: 2
Flags: HMW
HStem: -35 77<309.767 317.267> 611 65<650.767 668.767> 625 59<313.767 317.767 317.767 319.767 313.767 375.767>
VStem: 152.767 63<150 170.5 159.5 161.5>
LayerCount: 2
Fore
SplineSet
340.766601562 52 m 0xb0
 346.766601562 59 352.766601562 69 359.766601562 83 c 0
 372.766601562 112 387.766601562 159 402.766601562 224 c 0
 405.766601562 237 416.766601562 284 432.766601562 366 c 0
 448.766601562 445 465.766601562 531 486.766601562 623 c 1
 439.766601562 625 403.766601562 625 375.766601562 625 c 2
 317.766601562 625 l 2
 306.766601562 625 301.766601562 624 301.766601562 624 c 2
 291.766601562 624 284.766601562 626 281.766601562 631 c 0
 279.766601562 633 276.766601562 637 276.766601562 642 c 0
 276.766601562 644 277.766601562 647 277.766601562 649 c 0
 278.766601562 658 283.766601562 666 290.766601562 673 c 0
 297.766601562 680 307.766601562 684 319.766601562 684 c 0
 368.766601562 685 413.766601562 686 454.766601562 686 c 0
 536.766601562 686 606.766601562 683 664.766601562 676 c 0xd0
 672.766601562 676 678.766601562 673 682.766601562 670 c 0
 686.766601562 667 687.766601562 663 687.766601562 657 c 0
 687.766601562 655 686.766601562 652 686.766601562 650 c 0
 684.766601562 641 679.766601562 631 671.766601562 622 c 0
 667.766601562 618 664.766601562 615 659.766601562 613 c 0
 657.766601562 612 653.766601562 611 651.766601562 611 c 0
 649.766601562 611 646.766601562 612 644.766601562 612 c 0
 623.766601562 615 589.766601562 619 538.766601562 621 c 1
 532.766601562 595 525.766601562 563 518.766601562 523 c 0
 512.766601562 479 505.766601562 443 498.766601562 416 c 0
 492.766601562 384 485.766601562 349 477.766601562 309 c 0
 469.766601562 269 461.766601562 235 453.766601562 206 c 0
 436.766601562 146 418.766601562 98 401.766601562 62 c 0
 384.766601562 26 369.766601562 0 354.766601562 -14 c 0
 339.766601562 -28 324.766601562 -35 309.766601562 -35 c 0
 291.766601562 -35 273.766601562 -31 257.766601562 -24 c 0
 240.766601562 -17 226.766601562 -7 215.766601562 5 c 0
 204.766601562 17 194.766601562 31 185.766601562 46 c 0
 176.766601562 61 170.766601562 76 165.766601562 91 c 0
 160.766601562 106 156.766601562 118 155.766601562 129 c 0
 154.766601562 140 152.766601562 146 152.766601562 150 c 2
 152.766601562 159 l 2
 152.766601562 164 154.766601562 170 156.766601562 177 c 0
 158.766601562 184 161.766601562 191 164.766601562 197 c 0
 167.766601562 203 171.766601562 209 177.766601562 213 c 0
 183.766601562 217 190.766601562 221 197.766601562 222 c 0
 200.766601562 222 203.766601562 223 205.766601562 223 c 0
 210.766601562 223 214.766601562 221 216.766601562 218 c 0
 218.766601562 215 220.766601562 210 220.766601562 205 c 0
 220.766601562 203 219.766601562 199 219.766601562 196 c 0
 217.766601562 187 215.766601562 176 215.766601562 165 c 0
 215.766601562 154 217.766601562 142 220.766601562 128 c 0
 223.766601562 114 228.766601562 100 235.766601562 87 c 0
 242.766601562 74 254.766601562 64 269.766601562 55 c 0
 283.766601562 46 299.766601562 42 319.766601562 42 c 0
 326.766601562 42 334.766601562 45 340.766601562 52 c 0xb0
EndSplineSet
EndChar

StartChar: K
Encoding: 75 75 53
Width: 670
GlyphClass: 2
Flags: HMW
HStem: -22 21G<156.563 162.063> 695 20G<643.062 646.062>
LayerCount: 2
Fore
SplineSet
134.063476562 10 m 0
 134.063476562 13 135.0625 18 137.0625 23 c 0
 146.0625 53 159.0625 110 178.0625 193 c 0
 196.0625 277 213.0625 363 231.0625 452 c 0
 240.0625 496 247.0625 526 250.0625 541 c 0
 252.0625 556 258.0625 578 265.0625 607 c 0
 272.0625 635 277.0625 653 278.0625 660 c 0
 282.0625 678 288.0625 691 296.0625 700 c 0
 304.0625 709 312.0625 714 321.0625 714 c 1
 322.0625 722 324.0625 722 324.0625 714 c 1
 332.0625 714 338.0625 711 342.0625 703 c 0
 344.0625 698 345.0625 692 345.0625 683 c 0
 345.0625 678 344.0625 674 343.0625 669 c 0
 340.0625 653 332.0625 618 319.0625 564 c 0
 306.0625 509 293.0625 452 280.0625 391 c 1
 422.0625 530 l 2
 463.0625 573 503.0625 611 545.0625 642 c 0
 578.0625 670 599.0625 688 608.0625 695 c 0
 617.0625 704 626.0625 710 633.0625 712 c 0
 638.0625 714 642.0625 715 644.0625 715 c 0
 648.0625 715 652.0625 711 655.0625 703 c 0
 657.0625 698 658.0625 692 658.0625 685 c 0
 658.0625 676 649.0625 665 632.0625 651 c 0
 620.0625 639 580.0625 603 511.0625 542 c 1
 447.0625 478 387.0625 419 332.0625 366 c 1
 337.0625 357 l 2
 351.0625 334 376.0625 296 412.0625 245 c 0
 448.0625 191 478.0625 145 503.0625 106 c 0
 528.041015625 71.0302734375 543.041992188 48.0400390625 545.063476562 39.0234375 c 0
 544.948242188 28.3505859375 542.916015625 17.7333984375 538.063476562 9 c 0
 534.063476562 0 529.063476562 -8 522.063476562 -13 c 0
 515.063476562 -18 510.063476562 -21 505.063476562 -21 c 0
 497.063476562 -21 490.063476562 -13 484.063476562 4 c 0
 480.063476562 13 464.063476562 36 437.063476562 73 c 0
 410.063476562 110 381.063476562 152 350.063476562 196 c 0
 319.063476562 245 297.063476562 283 284.063476562 310 c 2
 270.063476562 337 l 1
 259.063476562 286 l 1
 208.063476562 24 l 2
 204.063476562 9 197.063476562 -2 187.063476562 -10 c 0
 177.063476562 -18 167.063476562 -22 157.063476562 -22 c 0
 156.063476562 -22 154.063476562 -21 154.063476562 -21 c 2
 146.063476562 -21 140.063476562 -17 137.063476562 -8 c 0
 135.063476562 -3 134.063476562 3 134.063476562 10 c 0
EndSplineSet
EndChar

StartChar: L
Encoding: 76 76 54
Width: 670
GlyphClass: 2
Flags: HMW
HStem: -15 62.9962
LayerCount: 2
Fore
SplineSet
547.440429688 72 m 0
 550.440429688 63 551.439453125 54 550.439453125 44 c 0
 548.439453125 35 543.439453125 27 538.439453125 22 c 0
 533.439453125 17 523.439453125 12 509.439453125 10 c 0
 466.439453125 1 406.439453125 -5 329.439453125 -9 c 0
 250.439453125 -13 190.439453125 -15 150.439453125 -15 c 0
 142.439453125 -15 136.439453125 -12 133.439453125 -7 c 0
 131.439453125 -5 130.439453125 -1 130.439453125 4 c 0
 130.439453125 9 131.439453125 14 133.439453125 20 c 0
 146.439453125 51 158.439453125 89 171.439453125 135 c 0
 194.439453125 206 215.439453125 275 233.439453125 341 c 0
 242.439453125 372 254.439453125 427 269.439453125 506 c 0
 284.439453125 585 292.439453125 629 293.439453125 636 c 0
 297.439453125 652 303.439453125 664 311.439453125 671 c 0
 319.439453125 678 327.439453125 682 335.439453125 682 c 1
 336.439453125 674 338.439453125 674 338.439453125 682 c 1
 345.439453125 682 351.439453125 679 355.439453125 674 c 0
 357.439453125 672 358.439453125 668 358.439453125 662 c 0
 358.439453125 656 357.439453125 650 356.439453125 645 c 0
 352.439453125 626 347.439453125 600 339.439453125 567 c 0
 330.439453125 517 320.439453125 475 310.439453125 441 c 0
 299.439453125 389 289.439453125 345 279.439453125 309 c 0
 273.439453125 281 263.439453125 240 248.439453125 187 c 0
 232.439453125 134 221.439453125 92 214.439453125 62 c 0
 213.8515625 54.35546875 212.91796875 49.8232421875 212.044921875 47.99609375 c 1
 226.0859375 47.9287109375 234.62109375 47 239.440429688 47 c 0
 283.440429688 47 335.440429688 51 395.440429688 58 c 0
 459.440429688 65 505.440429688 72 530.440429688 78 c 1
 537.440429688 78 l 2
 542.440429688 78 545.440429688 76 547.440429688 72 c 0
EndSplineSet
EndChar

StartChar: M
Encoding: 77 77 55
Width: 670
GlyphClass: 2
Flags: HMW
HStem: 664 20G
VStem: 129.735 1<-14.5 -10> 506.736 62<39 84 51.5 71>
LayerCount: 2
Fore
SplineSet
326.736328125 -7 m 1
 319.736328125 -7 314.736328125 -5 311.736328125 -1 c 0
 308.736328125 4 305.736328125 11 305.736328125 19 c 0
 305.736328125 51 310.736328125 124 319.736328125 239 c 0
 328.736328125 354 336.736328125 464 345.736328125 570 c 0
 347.736328125 610 352.736328125 648 355.736328125 684 c 1
 345.736328125 651 334.736328125 616 323.736328125 578 c 0
 308.736328125 529 293.736328125 470 275.736328125 403 c 0
 265.736328125 364 252.736328125 316 236.736328125 257 c 0
 227.736328125 224 218.736328125 194 210.736328125 167 c 0
 200.736328125 137 192.736328125 113 187.736328125 95 c 0
 182.736328125 78 177.736328125 65 176.736328125 58 c 0
 172.736328125 37 165.736328125 20 155.736328125 8 c 0
 146.736328125 -4 139.736328125 -10 130.736328125 -10 c 1
 130.736328125 -19 129.736328125 -19 129.736328125 -10 c 1
 128.736328125 -10 126.736328125 -8 125.736328125 -7 c 0
 121.736328125 -5 118.736328125 6 118.736328125 25 c 0
 118.736328125 33 121.736328125 44 124.736328125 58 c 0
 126.736328125 66 129.736328125 79 135.736328125 98 c 0
 141.736328125 118 150.736328125 144 161.736328125 178 c 0
 172.736328125 214 182.736328125 241 187.736328125 260 c 2
 234.736328125 412 l 2
 242.736328125 441 251.736328125 477 264.736328125 519 c 0
 288.736328125 601 306.736328125 649 317.736328125 666 c 0
 324.736328125 679 332.736328125 689 343.736328125 695 c 0
 354.736328125 701 364.736328125 704 372.736328125 704 c 2
 376.736328125 704 l 1
 377.736328125 704 l 2
 386.736328125 704 393.736328125 702 398.736328125 697 c 0
 403.736328125 691 404.736328125 681 404.736328125 667 c 2
 404.736328125 659 l 2
 404.736328125 606 393.736328125 483 371.736328125 291 c 0
 361.736328125 198 355.736328125 137 353.736328125 107 c 1
 360.736328125 97 368.736328125 95 375.736328125 102 c 1
 401.736328125 201 425.736328125 289 448.736328125 368 c 0
 465.736328125 425 484.736328125 482 505.736328125 539 c 0
 526.736328125 595 542.736328125 638 556.736328125 668 c 0
 560.736328125 678 566.736328125 686 573.736328125 692 c 0
 581.736328125 698 588.736328125 702 594.736328125 703 c 0
 600.736328125 703 606.736328125 704 609.736328125 704 c 2
 617.736328125 704 l 1
 621.736328125 704 l 1
 633.736328125 704 l 2
 635.736328125 704 640.736328125 703 644.736328125 702 c 0
 648.736328125 700 651.736328125 697 652.736328125 695 c 0
 653.736328125 693 654.736328125 689 655.736328125 683 c 0
 656.736328125 679 657.736328125 674 657.736328125 668 c 2
 657.736328125 665 l 2
 655.736328125 644 640.736328125 546 611.736328125 370 c 0
 583.736328125 195 568.736328125 96 568.736328125 72 c 0
 568.736328125 31 557.736328125 6 537.736328125 -4 c 0
 533.736328125 -6 530.736328125 -7 527.736328125 -7 c 0
 524.736328125 -7 519.736328125 -5 516.736328125 -2 c 0
 509.736328125 3 506.736328125 17 506.736328125 39 c 2
 506.736328125 44 l 2
 506.736328125 98 539.736328125 294 604.736328125 632 c 1
 597.736328125 642 588.736328125 644 580.736328125 639 c 1
 540.736328125 537 510.736328125 446 488.736328125 363 c 0
 466.736328125 286 444.736328125 212 421.736328125 143 c 0
 398.736328125 74 383.736328125 32 375.736328125 17 c 0
 368.736328125 1 352.736328125 -7 330.736328125 -7 c 1
 329.736328125 -15 327.736328125 -15 326.736328125 -7 c 1
EndSplineSet
EndChar

StartChar: N
Encoding: 78 78 56
Width: 670
GlyphClass: 2
Flags: HMW
HStem: -12 21G<142.241 148.741> 685 20G<326.741 329.741 656.741 663.741>
LayerCount: 2
Fore
SplineSet
573.241210938 190 m 0
 559.241210938 133 548.241210938 90 540.241210938 63 c 0
 531.241210938 35 525.241210938 18 522.241210938 11 c 0
 515.241210938 -6 501.241210938 -14 479.241210938 -14 c 1
 478.241210938 -22 476.241210938 -22 475.241210938 -14 c 1
 468.241210938 -14 463.241210938 -12 460.241210938 -7 c 0
 456.241210938 -2 453.241210938 5 453.241210938 13 c 0
 451.241210938 26 444.241210938 56 431.241210938 101 c 2
 392.241210938 246 l 2
 379.241210938 295 365.241210938 349 352.241210938 410 c 0
 339.241210938 471 331.241210938 523 327.241210938 565 c 0
 325.241210938 595 321.241210938 624 319.241210938 653 c 1
 314.241210938 626 309.241210938 597 304.241210938 567 c 0
 292.241210938 494 279.241210938 425 265.241210938 362 c 0
 250.241210938 298 234.241210938 233 217.241210938 167 c 0
 200.241210938 103 190.241210938 63 188.241210938 49 c 0
 185.241210938 27 178.241210938 11 169.241210938 2 c 0
 161.241210938 -7 153.241210938 -12 144.241210938 -12 c 0
 140.241210938 -12 137.241210938 -10 135.241210938 -8 c 0
 133.241210938 -6 131.241210938 3 131.241210938 17 c 0
 131.241210938 25 133.241210938 35 136.241210938 48 c 0
 138.241210938 62 152.241210938 114 174.241210938 204 c 2
 233.241210938 443 l 2
 249.241210938 512 263.241210938 578 274.241210938 640 c 0
 276.241210938 653 279.241210938 664 284.241210938 673 c 0
 288.241210938 683 293.241210938 690 299.241210938 695 c 0
 306.241210938 699 311.241210938 702 316.241210938 703 c 0
 321.241210938 704 325.241210938 705 328.241210938 705 c 0
 331.241210938 705 335.241210938 704 337.241210938 704 c 0
 346.241210938 704 353.241210938 702 358.241210938 697 c 0
 362.241210938 692 365.241210938 682 365.241210938 668 c 0
 367.241210938 625 384.241210938 543 414.241210938 422 c 0
 443.241210938 301 469.241210938 204 491.241210938 130 c 0
 495.241210938 115 499.241210938 102 503.241210938 92 c 1
 506.241210938 103 510.241210938 116 513.241210938 132 c 0
 528.241210938 195 549.241210938 288 574.241210938 409 c 0
 601.241210938 530 616.241210938 609 620.241210938 649 c 0
 622.241210938 664 627.241210938 677 635.241210938 688 c 0
 644.241210938 699 652.241210938 705 661.241210938 705 c 0
 666.241210938 705 671.241210938 704 673.241210938 703 c 0
 675.241210938 702 678.241210938 700 679.241210938 698 c 0
 680.241210938 693 681.241210938 685 681.241210938 673 c 0
 681.241210938 671 680.241210938 664 679.241210938 654 c 0
 679.241210938 643 667.241210938 590 645.241210938 495 c 0
 624.241210938 397 600.241210938 295 573.241210938 190 c 0
EndSplineSet
EndChar

StartChar: O
Encoding: 79 79 57
Width: 670
GlyphClass: 2
Flags: HMW
HStem: -24 72<309.379 310.379> 649 44<483.379 484.879>
VStem: 168.379 70<138.5 181.5> 575.379 65<517 533 517 534>
LayerCount: 2
Fore
SplineSet
615.37890625 367 m 0
 607.37890625 329 597.37890625 291 586.37890625 252 c 0
 575.37890625 213 564.37890625 183 553.37890625 161 c 0
 539.37890625 130 524.37890625 104 508.37890625 82 c 0
 493.37890625 61 477.37890625 43 462.37890625 29 c 0
 447.37890625 15 431.37890625 5 413.37890625 -3 c 0
 395.37890625 -11 377.37890625 -17 359.37890625 -20 c 0
 341.37890625 -23 321.37890625 -24 299.37890625 -24 c 0
 266.37890625 -24 237.37890625 -12 215.37890625 10 c 0
 193.37890625 32 178.37890625 62 171.37890625 101 c 0
 169.37890625 116 168.37890625 131 168.37890625 146 c 0
 168.37890625 161 172.37890625 189 179.37890625 231 c 0
 180.37890625 234 182.37890625 240 183.37890625 248 c 0
 190.37890625 278 195.37890625 302 200.37890625 320 c 0
 205.37890625 338 211.37890625 362 220.37890625 392 c 0
 237.37890625 448 259.37890625 501 288.37890625 551 c 0
 310.37890625 593 340.37890625 627 380.37890625 653 c 0
 420.37890625 679 462.37890625 693 504.37890625 693 c 0
 525.37890625 693 545.37890625 688 564.37890625 679 c 0
 583.37890625 670 598.37890625 657 611.37890625 639 c 0
 624.37890625 621 632.37890625 598 637.37890625 570 c 0
 639.37890625 556 640.37890625 541 640.37890625 525 c 0
 640.37890625 509 638.37890625 492 636.37890625 473 c 0
 631.37890625 440 623.37890625 405 615.37890625 367 c 0
364.37890625 55 m 0
 380.37890625 60 396.37890625 67 412.37890625 77 c 0
 428.37890625 87 442.37890625 101 456.37890625 118 c 0
 470.37890625 135 482.37890625 154 493.37890625 176 c 0
 498.37890625 184 505.37890625 204 514.37890625 237 c 0
 523.37890625 269 534.37890625 307 545.37890625 351 c 0
 556.37890625 395 565.37890625 439 572.37890625 481 c 0
 574.37890625 494 575.37890625 507 575.37890625 519 c 0
 575.37890625 549 570.37890625 576 557.37890625 598 c 0
 546.37890625 617 533.37890625 630 517.37890625 639 c 0
 506.37890625 646 492.37890625 649 477.37890625 649 c 0
 444.37890625 649 413.37890625 635 385.37890625 606 c 0
 358.37890625 579 335.37890625 541 315.37890625 492 c 0
 288.37890625 428 266.37890625 352 249.37890625 265 c 0
 242.37890625 225 238.37890625 194 238.37890625 169 c 0
 238.37890625 140 242.37890625 116 249.37890625 97 c 0
 254.37890625 83 263.37890625 71 275.37890625 62 c 0
 287.37890625 53 301.37890625 48 317.37890625 48 c 0
 333.37890625 48 348.37890625 50 364.37890625 55 c 0
EndSplineSet
EndChar

StartChar: P
Encoding: 80 80 58
Width: 670
GlyphClass: 2
Flags: HMW
HStem: 230 69<344.42 367.42 342.42 380.42> 642 45<445.92 491.42>
VStem: 277.92 3 573.92 62<538.5 539.5>
LayerCount: 2
Fore
SplineSet
338.919921875 633 m 1
 334.919921875 614 328.919921875 587 319.919921875 551 c 0
 310.919921875 515 301.919921875 478 293.919921875 440 c 0
 285.919921875 402 276.919921875 361 267.919921875 319 c 1
 276.919921875 315 l 2
 298.919921875 304 325.919921875 299 358.919921875 299 c 0
 375.919921875 299 390.919921875 301 405.919921875 304 c 0
 420.919921875 307 433.919921875 311 445.919921875 316 c 0
 457.919921875 321 467.919921875 328 477.919921875 336 c 0
 487.919921875 344 497.919921875 352 504.919921875 360 c 0
 511.919921875 368 518.919921875 378 525.919921875 389 c 0
 532.919921875 400 537.919921875 409 541.919921875 418 c 0
 545.919921875 427 549.919921875 437 553.919921875 448 c 0
 557.919921875 459 561.919921875 469 563.919921875 476 c 0
 565.919921875 483 568.919921875 493 570.919921875 504 c 0
 572.919921875 515 573.919921875 526 573.919921875 535 c 0
 573.919921875 544 573.919921875 551 572.919921875 558 c 0
 569.919921875 575 562.919921875 588 553.919921875 599 c 0
 544.919921875 610 535.919921875 618 522.919921875 625 c 0
 511.919921875 632 499.919921875 637 488.919921875 639 c 0
 477.919921875 641 466.919921875 642 455.919921875 642 c 0
 435.919921875 642 397.919921875 639 338.919921875 633 c 1
176.919921875 141 m 0
 183.919921875 163 189.920898438 193 195.920898438 231 c 0
 202.920898438 258 210.920898438 294 217.920898438 337 c 0
 226.920898438 379 232.920898438 414 238.920898438 442 c 0
 249.706054688 490.04296875 263.375 547.69921875 279.927734375 614.96875 c 0
 279.279296875 615.579101562 278.456054688 618.640625 277.919921875 624 c 1
 276.919921875 617 274.919921875 619 274.919921875 628 c 0
 274.919921875 630 273.919921875 632 273.919921875 634 c 0
 273.919921875 636 274.919921875 640 275.919921875 642 c 0
 277.919921875 649 280.919921875 655 285.919921875 660 c 0
 290.919921875 665 295.919921875 668 299.919921875 669 c 0
 320.919921875 674 350.919921875 679 390.919921875 682 c 0
 430.919921875 685 457.919921875 687 472.919921875 687 c 0
 509.919921875 687 543.919921875 680 570.919921875 665 c 0
 597.919921875 650 616.919921875 627 627.919921875 598 c 0
 633.919921875 581 635.919921875 563 635.919921875 543 c 0
 635.919921875 534 634.919921875 516 630.919921875 489 c 0
 621.919921875 453 608.919921875 420 589.919921875 388 c 0
 570.919921875 356 550.919921875 328 526.919921875 305 c 0
 504.919921875 282 478.919921875 263 450.919921875 250 c 0
 422.919921875 237 394.919921875 230 365.919921875 230 c 0
 322.919921875 230 288.919921875 233 266.919921875 240 c 1
 261.919921875 233 258.919921875 235 254.919921875 244 c 1
 247.919921875 207 242.919921875 176 238.919921875 151 c 0
 234.919921875 126 227.919921875 81 216.919921875 14 c 0
 214.919921875 4 207.919921875 -4 197.919921875 -10 c 0
 187.919921875 -16 178.919921875 -19 168.919921875 -19 c 0
 158.919921875 -19 151.919921875 -16 146.919921875 -11 c 0
 144.919921875 -9 142.919921875 -5 142.919921875 -1 c 0
 142.919921875 3 144.919921875 7 146.919921875 14 c 0
 153.919921875 42 163.919921875 84 176.919921875 141 c 0
EndSplineSet
EndChar

StartChar: Q
Encoding: 81 81 59
Width: 670
GlyphClass: 2
Flags: HMW
HStem: -39 20G -24 72 649 44
VStem: 171.617 71 343.617 46<146.5 196.5> 574.617 65
LayerCount: 2
Fore
SplineSet
347.6171875 48 m 1x7c
 361.6171875 48 l 1
 358.6171875 63 l 2
 351.6171875 92 346.6171875 115 344.6171875 132 c 0
 344.6171875 138 343.6171875 144 343.6171875 149 c 0
 343.6171875 174 350.6171875 193 365.6171875 204 c 0
 370.6171875 208 375.6171875 210 379.6171875 210 c 0
 381.6171875 210 382.6171875 210 384.6171875 208 c 0
 386.6171875 206 389.6171875 200 389.6171875 193 c 0
 391.6171875 160 400.6171875 123 412.6171875 82 c 2
 416.6171875 67 l 1
 427.6171875 75 l 2
 457.6171875 96 482.6171875 129 499.6171875 173 c 0
 504.6171875 183 510.6171875 203 518.6171875 234 c 0
 527.6171875 265 536.6171875 303 547.6171875 349 c 0
 558.6171875 395 566.6171875 439 571.6171875 481 c 0
 573.6171875 494 574.6171875 507 574.6171875 519 c 0
 574.6171875 552 568.6171875 579 555.6171875 601 c 0
 545.6171875 618 533.6171875 631 517.6171875 639 c 0
 506.6171875 646 492.6171875 649 477.6171875 649 c 0
 444.6171875 649 413.6171875 635 385.6171875 608 c 0
 357.6171875 581 335.6171875 543 315.6171875 494 c 0
 284.6171875 423 262.6171875 347 249.6171875 264 c 0
 245.6171875 240 242.6171875 218 242.6171875 197 c 0
 242.6171875 184 244.6171875 171 246.6171875 158 c 0
 251.6171875 125 260.6171875 99 276.6171875 79 c 0
 293.6171875 58 313.6171875 48 338.6171875 48 c 2
 347.6171875 48 l 1x7c
456.6171875 -211 m 0
 449.6171875 -209 444.618164062 -203.999023438 441.618164062 -194.999023438 c 0
 436.618164062 -182.999023438 427.618164062 -159.999023438 415.618164062 -127.999023438 c 0
 403.618164062 -95.9990234375 391.618164062 -59.9990234375 378.618164062 -18.9990234375 c 1xbc
 376.618164062 -27.9990234375 371.618164062 -27.9990234375 368.618164062 -20.9990234375 c 1
 353.618164062 -22.9990234375 337.618164062 -23.9990234375 320.618164062 -23.9990234375 c 0
 297.618164062 -23.9990234375 276.618164062 -19.9990234375 256.618164062 -10.9990234375 c 0
 236.618164062 -1.9990234375 221.618164062 10.0009765625 209.618164062 25.0009765625 c 0
 197.618164062 40.0009765625 187.618164062 60.0009765625 180.618164062 81.0009765625 c 0
 173.618164062 102.000976562 171.618164062 126.000976562 171.618164062 152.000976562 c 0
 171.618164062 178.000976562 173.618164062 205.000976562 178.618164062 232.000976562 c 0
 203.618164062 360.000976562 241.618164062 465.000976562 288.618164062 547.000976562 c 0
 310.618164062 589.000976562 341.618164062 623.000976562 381.618164062 651.000976562 c 0
 421.618164062 679.000976562 462.618164062 693.000976562 504.618164062 693.000976562 c 0
 549.618164062 693.000976562 584.618164062 677.000976562 609.618164062 644.000976562 c 0
 622.618164062 627.000976562 630.618164062 605.000976562 635.618164062 576.000976562 c 0
 637.618164062 561.000976562 639.618164062 545.000976562 639.618164062 528.000976562 c 0
 639.618164062 511.000976562 637.618164062 493.000976562 635.618164062 473.000976562 c 0
 629.618164062 427.000976562 618.618164062 372.000976562 602.618164062 307.000976562 c 0
 586.618164062 242.000976562 569.618164062 191.000976562 554.618164062 155.000976562 c 0
 526.618164062 86.0009765625 489.618164062 36.0009765625 442.618164062 7.0009765625 c 1
 440.044921875 -1.5751953125 436.736328125 -4.267578125 434.584960938 -0.4453125 c 1
 451.262695312 -42.5927734375 467.958984375 -83.77734375 485.6171875 -124 c 0
 490.6171875 -144 496.6171875 -155 501.6171875 -158 c 0
 501.6171875 -160 502.6171875 -163 502.6171875 -165 c 0
 502.6171875 -167 502.6171875 -170 501.6171875 -173 c 0
 499.6171875 -180 494.6171875 -187 489.6171875 -193 c 0
 484.6171875 -199 481.6171875 -205 477.6171875 -207 c 0
 472.6171875 -210 467.6171875 -212 462.6171875 -212 c 0
 460.6171875 -212 458.6171875 -211 456.6171875 -211 c 0
EndSplineSet
EndChar

StartChar: R
Encoding: 82 82 60
Width: 670
GlyphClass: 2
Flags: HMW
VStem: 164.886 1<-21 -19> 344.886 3 347.886 4<682 682> 573.886 64<459.5 483>
LayerCount: 2
Fore
SplineSet
501.885742188 -17 m 0xd0
 495.885742188 -15 490.885742188 -9 486.885742188 0 c 0
 479.885742188 15 470.885742188 32 457.885742188 53 c 0
 444.885742188 74 429.885742188 97 410.885742188 122 c 0
 391.885742188 147 370.885742188 172 344.885742188 197 c 0
 318.885742188 222 293.885742188 242 267.885742188 257 c 0
 266.182617188 255.296875 264.595703125 254.40625 263.045898438 254.40625 c 0
 260.044921875 254.40625 257.182617188 257.74609375 253.885742188 265 c 1
 253.885742188 253.838867188 252.411132812 248.57421875 251.361328125 248.57421875 c 0
 251.188476562 248.57421875 251.02734375 248.716796875 250.885742188 249 c 1
 243.885742188 210 235.885742188 165 228.885742188 112 c 0
 221.885742188 59 217.885742188 27 215.885742188 14 c 0
 213.885742188 4 207.885742188 -4 197.885742188 -10 c 0
 187.885742188 -16 178.885742188 -19 167.885742188 -19 c 2
 165.885742188 -19 l 1
 165.885742188 -23 165.635742188 -25 165.385742188 -25 c 0
 165.135742188 -25 164.885742188 -23 164.885742188 -19 c 1
 155.885742188 -19 148.885742188 -16 144.885742188 -11 c 0
 143.885742188 -9 141.885742188 -5 141.885742188 -1 c 0
 141.885742188 3 142.885742188 8 144.885742188 14 c 0
 155.885742188 49 163.885742188 79 169.885742188 104 c 0
 175.885742188 129 189.885742188 189 210.885742188 284 c 0
 212.885742188 298 219.885742188 325 230.885742188 365 c 0
 241.885742188 407 251.885742188 446 258.885742188 483 c 0
 262.885742188 505 266.885742188 537 272.885742188 576 c 0
 278.885742188 615 282.885742188 638 284.885742188 645 c 1
 232.922851562 468.625 206.922851562 380.375 206.885742188 380.375 c 1
 206.885742188 380.375 232.848632812 468.875 284.885742188 646 c 1
 284.885742188 643.215820312 285.043945312 641.85546875 285.234375 641.85546875 c 0
 285.522460938 641.85546875 285.885742188 644.9765625 285.885742188 651 c 0
 286.885742188 661 291.885742188 670 300.885742188 678 c 0
 307.885742188 686 316.885742188 690 326.885742188 690 c 0
 335.885742188 690 341.885742188 688 344.885742188 685 c 0
 345.448242188 679.9375 346.327148438 677.40625 346.98828125 677.40625 c 0
 347.502929688 677.40625 347.885742188 678.9375 347.885742188 682 c 1
 348.385742188 678 349.135742188 676 349.885742188 676 c 0
 350.635742188 676 351.385742188 678 351.885742188 682 c 1xb0
 395.885742188 680 436.885742188 672 471.885742188 661 c 0
 506.885742188 649 536.885742188 635 558.885742188 619 c 0
 580.885742188 603 599.885742188 584 612.885742188 563 c 0
 625.885742188 542 634.885742188 523 636.885742188 502 c 0
 636.885742188 495 637.885742188 487 637.885742188 479 c 0
 637.885742188 466 635.885742188 453 633.885742188 440 c 0
 626.885742188 409 613.885742188 383 593.885742188 363 c 0
 584.885742188 354 573.885742188 345 560.885742188 337 c 0
 547.885742188 329 534.885742188 323 520.885742188 318 c 0
 507.885742188 313 492.885742188 308 475.885742188 304 c 0
 458.885742188 300 442.885742188 295 425.885742188 293 c 0
 408.885742188 291 389.885742188 289 368.885742188 287 c 1
 362.698242188 281.9375 356.510742188 279.40625 350.323242188 279.40625 c 2
 335.885742188 284 l 1
 344.249023438 270.060546875 353.4765625 263.893554688 361.961914062 263.893554688 c 0
 362.607421875 263.893554688 363.249023438 263.9296875 363.885742188 264 c 0
 412.885742188 230 452.885742188 190 485.885742188 146 c 0
 519.885742188 102 540.885742188 64 547.885742188 33 c 1
 547.885742188 30 l 2
 547.885742188 22 545.885742188 15 541.885742188 8 c 0
 536.885742188 -1 529.885742188 -7 522.885742188 -12 c 0
 516.885742188 -16 511.885742188 -18 506.885742188 -18 c 0
 505.885742188 -18 503.885742188 -17 501.885742188 -17 c 0xd0
493.885742188 368 m 0
 505.885742188 372 516.885742188 377 527.885742188 384 c 0
 549.885742188 397 564.885742188 417 570.885742188 442 c 0
 572.885742188 449 573.885742188 456 573.885742188 463 c 0
 573.885742188 477 570.885742188 491 563.885742188 504 c 0
 553.885742188 524 539.885742188 540 522.885742188 554 c 0
 506.885742188 568 487.885742188 581 466.885742188 592 c 0
 426.885742188 613 388.885742188 628 348.885742188 636 c 2
 338.885742188 638 l 1
 327.885742188 581 318.885742188 535 312.885742188 500 c 0
 311.885742188 493 308.885742188 480 303.885742188 462 c 0
 298.885742188 444 288.885742188 407 271.885742188 350 c 1
 283.885742188 347 l 2
 290.885742188 346 300.885742188 345 311.885742188 345 c 2
 314.885742188 345 l 2
 316.885742188 345 326.885742188 346 345.885742188 347 c 0
 415.885742188 350 464.885742188 357 493.885742188 368 c 0
EndSplineSet
EndChar

StartChar: S
Encoding: 83 83 61
Width: 670
GlyphClass: 2
Flags: HMW
HStem: -29 62<301.911 305.911> 668 56<510.911 555.911>
VStem: 262.411 70<474 520.5> 526.411 71<234.5 287.5>
LayerCount: 2
Fore
SplineSet
165.411132812 117 m 0
 172.411132812 120 178.411132812 123 181.411132812 123 c 0
 184.411132812 123 188.411132812 124 189.411132812 124 c 2
 194.411132812 124 l 2
 195.411132812 124 197.411132812 122 199.411132812 119 c 0
 201.411132812 116 205.411132812 110 208.411132812 103 c 0
 216.411132812 82 229.411132812 65 249.411132812 52 c 0
 267.411132812 39 289.411132812 33 314.411132812 33 c 0
 329.411132812 33 345.411132812 36 362.411132812 41 c 0
 379.411132812 46 395.411132812 52 412.411132812 62 c 0
 429.411132812 72 445.411132812 84 460.411132812 97 c 0
 475.411132812 110 487.411132812 125 498.411132812 143 c 0
 509.411132812 161 517.411132812 180 521.411132812 200 c 0
 524.411132812 216 526.411132812 229 526.411132812 240 c 0
 526.411132812 259 523.411132812 275 516.411132812 290 c 0
 511.411132812 299 504.411132812 308 495.411132812 317 c 0
 486.411132812 326 476.411132812 334 463.411132812 341 c 0
 450.411132812 348 435.411132812 353 416.411132812 358 c 0
 397.411132812 363 376.411132812 368 353.411132812 371 c 0
 335.411132812 373 319.411132812 380 306.411132812 389 c 0
 293.411132812 398 284.411132812 409 277.411132812 422 c 0
 267.411132812 442 262.411132812 463 262.411132812 485 c 0
 262.411132812 492 262.411132812 499 264.411132812 508 c 0
 269.411132812 530 276.411132812 551 287.411132812 572 c 0
 298.411132812 593 312.411132812 612 329.411132812 631 c 0
 346.411132812 650 366.411132812 666 387.411132812 680 c 0
 408.411132812 694 433.411132812 704 461.411132812 712 c 0
 489.411132812 720 517.411132812 724 548.411132812 724 c 0
 563.411132812 724 585.411132812 722 612.411132812 719 c 0
 639.411132812 716 658.411132812 712 667.411132812 708 c 0
 674.411132812 706 679.411132812 701 681.411132812 694 c 0
 681.411132812 691 682.411132812 687 682.411132812 683 c 0
 682.411132812 679 681.411132812 673 679.411132812 667 c 0
 677.411132812 661 674.411132812 656 671.411132812 654 c 0
 668.411132812 652 664.411132812 649 660.411132812 649 c 0
 656.411132812 649 653.411132812 648 649.411132812 648 c 0
 645.411132812 648 641.411132812 649 636.411132812 650 c 0
 634.411132812 650 630.411132812 652 628.411132812 653 c 0
 617.411132812 656 609.411132812 660 602.411132812 661 c 0
 595.411132812 662 585.411132812 664 571.411132812 665 c 0
 557.411132812 667 541.411132812 668 524.411132812 668 c 0
 497.411132812 668 470.411132812 663 444.411132812 653 c 0
 418.411132812 643 394.411132812 628 373.411132812 608 c 0
 352.411132812 588 340.411132812 566 335.411132812 540 c 0
 333.411132812 532 332.411132812 524 332.411132812 517 c 0
 332.411132812 495 340.411132812 476 353.411132812 460 c 0
 370.411132812 439 398.411132812 428 436.411132812 426 c 0
 466.411132812 424 492.411132812 418 513.411132812 409 c 0
 534.411132812 400 551.411132812 389 562.411132812 376 c 0
 574.411132812 363 583.411132812 348 589.411132812 331 c 0
 595.411132812 314 597.411132812 296 597.411132812 279 c 0
 597.411132812 262 596.411132812 243 591.411132812 223 c 0
 584.411132812 192 573.411132812 164 558.411132812 137 c 0
 543.411132812 110 527.411132812 87 507.411132812 67 c 0
 487.411132812 47 466.411132812 30 443.411132812 15 c 0
 420.411132812 0 394.411132812 -11 369.411132812 -18 c 0
 344.411132812 -25 318.411132812 -29 293.411132812 -29 c 0
 253.411132812 -29 221.411132812 -20 194.411132812 -2 c 0
 167.411132812 16 150.411132812 36 144.411132812 60 c 0
 143.411132812 67 142.411132812 74 142.411132812 80 c 0
 142.411132812 86 144.411132812 92 146.411132812 97 c 0
 150.411132812 106 156.411132812 112 165.411132812 117 c 0
EndSplineSet
EndChar

StartChar: T
Encoding: 84 84 62
Width: 670
GlyphClass: 2
Flags: HMW
HStem: 612 64<635.9 663.4 635.9 663.4>
LayerCount: 2
Fore
SplineSet
376.900390625 303 m 0
 404.900390625 459 422.900390625 560 431.900390625 606 c 1
 431.900390625 603 433.900390625 607 434.900390625 620 c 1
 350.900390625 625 303.900390625 628 291.900390625 630 c 0
 271.900390625 633 261.900390625 640 261.900390625 649 c 0
 261.900390625 651 262.900390625 653 262.900390625 655 c 0
 263.900390625 665 269.900390625 674 278.900390625 682 c 0
 284.900390625 687 291.900390625 690 298.900390625 690 c 0
 300.900390625 690 302.900390625 689 304.900390625 689 c 0
 337.900390625 682 454.900390625 678 657.900390625 676 c 0
 668.900390625 676 675.900390625 674 677.900390625 670 c 0
 679.900390625 666 680.900390625 662 680.900390625 657 c 0
 680.900390625 655 679.900390625 652 679.900390625 650 c 0
 677.900390625 640 671.900390625 631 663.900390625 622 c 0
 656.900390625 615 648.900390625 612 639.900390625 612 c 2
 635.900390625 612 l 2
 617.150390625 609.75 598.822265625 608.625 580.916015625 608.625 c 0
 551.072265625 608.625 522.400390625 611.75 494.900390625 618 c 1
 466.900390625 475 429.900390625 277 384.900390625 24 c 0
 381.900390625 13 374.900390625 4 364.900390625 -3 c 0
 354.900390625 -10 344.900390625 -13 335.900390625 -13 c 2
 332.900390625 -13 l 2
 324.900390625 -13 318.900390625 -10 314.900390625 -5 c 0
 313.900390625 -3 312.900390625 1 312.900390625 6 c 0
 312.900390625 11 313.900390625 16 315.900390625 23 c 0
 324.900390625 54 345.900390625 147 376.900390625 303 c 0
EndSplineSet
EndChar

StartChar: U
Encoding: 85 85 63
Width: 670
GlyphClass: 2
Flags: HMW
HStem: -29 67<300.28 357.28>
VStem: 160.28 68<141.5 183.5> 260.28 62
LayerCount: 2
Fore
SplineSet
592.280273438 251 m 0
 585.280273438 222 576.280273438 194 563.280273438 168 c 0
 552.280273438 143 539.280273438 121 526.280273438 102 c 0
 513.280273438 83 500.280273438 66 485.280273438 51 c 0
 470.280273438 36 455.280273438 24 440.280273438 14 c 0
 425.280273438 4 410.280273438 -5 394.280273438 -11 c 0
 378.280273438 -17 364.280273438 -21 350.280273438 -24 c 0
 336.280273438 -27 321.280273438 -29 307.280273438 -29 c 0
 293.280273438 -29 278.280273438 -27 263.280273438 -22 c 0
 247.280273438 -17 231.280273438 -8 216.280273438 4 c 0
 201.280273438 16 189.280273438 31 179.280273438 49 c 0
 169.280273438 67 163.280273438 91 161.280273438 121 c 0
 161.280273438 129 160.280273438 137 160.280273438 146 c 0
 160.280273438 170 162.280273438 196 167.280273438 224 c 0
 209.280273438 427 240.280273438 564 260.280273438 637 c 0
 264.280273438 653 271.280273438 665 280.280273438 673 c 0
 289.280273438 681 298.280273438 685 307.280273438 685 c 0
 313.280273438 685 317.280273438 684 319.280273438 681 c 0
 321.280273438 678 322.280273438 673 322.280273438 667 c 0
 322.280273438 661 320.280273438 655 319.280273438 648 c 0
 269.280273438 422 240.280273438 285 233.280273438 238 c 0
 229.280273438 214 228.280273438 193 228.280273438 174 c 0
 228.280273438 160 229.280273438 146 231.280273438 131 c 0
 234.280273438 113 241.280273438 97 249.280273438 83 c 0
 257.280273438 69 269.280273438 59 284.280273438 50 c 0
 299.280273438 42 315.280273438 38 335.280273438 38 c 0
 379.280273438 38 418.280273438 54 452.280273438 88 c 0
 486.280273438 122 511.280273438 172 529.280273438 239 c 0
 538.280273438 267 548.280273438 303 557.280273438 345 c 0
 567.280273438 387 576.280273438 426 583.280273438 459 c 0
 606.280273438 566 619.280273438 623 620.280273438 629 c 0
 627.280273438 656 635.280273438 673 643.280273438 679 c 0
 647.280273438 682 650.280273438 685 653.280273438 685 c 0
 656.280273438 685 660.280273438 686 665.280273438 686 c 0
 670.280273438 686 673.280273438 685 675.280273438 684 c 0
 677.280273438 683 680.280273438 680 682.280273438 676 c 0
 684.280273438 672 685.280273438 669 685.280273438 664 c 0
 685.280273438 659 684.280273438 652 683.280273438 645 c 0
 664.280273438 541 634.280273438 410 592.280273438 251 c 0
EndSplineSet
EndChar

StartChar: V
Encoding: 86 86 64
Width: 670
GlyphClass: 2
Flags: HMW
VStem: 247.874 64<623 664 631 664>
LayerCount: 2
Fore
SplineSet
697.874023438 674 m 2
 697.874023438 668 l 2
 696.874023438 662 691.874023438 654 684.874023438 645 c 0
 662.874023438 610 610.874023438 512 527.874023438 352 c 1
 450.874023438 193 399.874023438 85 375.874023438 27 c 0
 371.874023438 15 366.874023438 6 359.874023438 -1 c 0
 352.874023438 -8 344.874023438 -12 335.874023438 -12 c 2
 329.874023438 -12 l 2
 319.874023438 -12 311.874023438 -10 306.874023438 -5 c 0
 300.874023438 0 296.874023438 10 295.874023438 24 c 0
 286.874023438 96 275.874023438 204 264.874023438 350 c 0
 253.874023438 494 247.874023438 585 247.874023438 623 c 2
 247.874023438 631 l 2
 247.874023438 672 256.874023438 697 276.874023438 707 c 0
 281.874023438 709 284.874023438 711 288.874023438 711 c 0
 292.874023438 711 296.874023438 709 299.874023438 706 c 0
 306.874023438 700 310.874023438 686 311.874023438 664 c 0
 311.874023438 659 314.874023438 599 320.874023438 486 c 2
 328.874023438 359 l 1
 336.874023438 226 l 2
 339.874023438 184 342.874023438 151 344.874023438 126 c 0
 344.874023438 109 346.874023438 94 347.874023438 82 c 1
 354.874023438 90 360.874023438 102 367.874023438 117 c 0
 403.874023438 192 455.874023438 301 522.874023438 445 c 2
 629.874023438 664 l 2
 639.874023438 685 650.874023438 699 661.874023438 705 c 0
 666.874023438 709 671.874023438 711 676.874023438 711 c 0
 678.874023438 711 681.874023438 710 686.874023438 708 c 0
 689.874023438 704 692.874023438 699 694.874023438 692 c 0
 696.874023438 687 697.874023438 681 697.874023438 674 c 2
EndSplineSet
EndChar

StartChar: W
Encoding: 87 87 65
Width: 670
GlyphClass: 2
Flags: HMW
VStem: 638.24 57
LayerCount: 2
Fore
SplineSet
169.240234375 27 m 2
 169.240234375 30 l 1
 169.240234375 30 170.240234375 31 170.240234375 32 c 0
 170.240234375 34 171.240234375 58 174.240234375 105 c 0
 176.240234375 136 180.240234375 168 184.240234375 199 c 0
 194.240234375 276 215.240234375 420 246.240234375 632 c 0
 252.240234375 675 264.240234375 702 284.240234375 711 c 0
 286.240234375 713 291.240234375 714 293.240234375 714 c 2
 295.240234375 714 l 2
 299.240234375 713 302.240234375 710 305.240234375 708 c 0
 307.240234375 707 309.240234375 702 309.240234375 693 c 0
 309.240234375 690 310.240234375 686 310.240234375 681 c 0
 310.240234375 679 309.240234375 676 308.240234375 672 c 0
 299.240234375 633 277.240234375 490 242.240234375 242 c 0
 239.240234375 219 236.240234375 187 231.240234375 147 c 0
 226.240234375 103 222.240234375 75 221.240234375 65 c 1
 228.240234375 55 236.240234375 53 244.240234375 59 c 1
 251.240234375 81 261.240234375 108 271.240234375 140 c 0
 280.240234375 169 301.240234375 237 334.240234375 342 c 2
 334.240234375 342 348.240234375 392 380.240234375 493 c 0
 397.240234375 545 412.240234375 588 424.240234375 622 c 0
 436.240234375 657 444.240234375 678 449.240234375 687 c 0
 456.240234375 703 471.240234375 711 492.240234375 711 c 1
 493.240234375 720 495.240234375 720 496.240234375 712 c 1
 511.240234375 712 518.240234375 703 518.240234375 685 c 0
 518.240234375 668 514.240234375 621 506.240234375 544 c 0
 504.240234375 517 499.240234375 479 493.240234375 428 c 0
 488.240234375 378 484.240234375 340 482.240234375 313 c 0
 477.240234375 273 470.240234375 208 464.240234375 116 c 0
 462.240234375 81 461.240234375 49 459.240234375 18 c 1
 468.240234375 45 477.240234375 75 486.240234375 108 c 0
 516.240234375 204 553.240234375 332 596.240234375 493 c 0
 620.240234375 572 634.240234375 623 638.240234375 645 c 0
 641.240234375 667 648.240234375 684 658.240234375 696 c 0
 667.240234375 707 675.240234375 713 683.240234375 713 c 0
 685.240234375 713 689.240234375 712 690.240234375 711 c 0
 694.240234375 708 695.240234375 697 695.240234375 678 c 0
 695.240234375 670 694.240234375 659 691.240234375 645 c 0
 683.240234375 611 668.240234375 560 646.240234375 491 c 2
 601.240234375 347 l 1
 601.240234375 347 590.240234375 303 563.240234375 217 c 0
 546.240234375 161 533.240234375 118 522.240234375 89 c 0
 511.240234375 59 502.240234375 39 495.240234375 28 c 0
 488.240234375 14 478.240234375 4 467.240234375 -3 c 0
 456.240234375 -8 448.240234375 -11 441.240234375 -11 c 2
 437.240234375 -11 l 1
 435.240234375 -11 l 2
 426.240234375 -11 419.240234375 -8 414.240234375 -3 c 0
 409.240234375 2 407.240234375 12 407.240234375 26 c 2
 407.240234375 30 l 2
 407.240234375 92 414.240234375 175 428.240234375 279 c 2
 446.240234375 411 l 2
 458.240234375 504 466.240234375 566 469.240234375 595 c 1
 462.240234375 605 454.240234375 607 447.240234375 601 c 1
 416.240234375 490 382.240234375 374 346.240234375 255 c 0
 311.240234375 137 286.240234375 61 271.240234375 26 c 0
 268.240234375 15 262.240234375 7 254.240234375 1 c 0
 246.240234375 -4 238.240234375 -8 230.240234375 -9 c 0
 222.240234375 -10 216.240234375 -11 209.240234375 -11 c 0
 198.240234375 -10 188.240234375 -9 180.240234375 -8 c 0
 177.240234375 -6 175.240234375 -4 174.240234375 -2 c 0
 172.240234375 0 171.240234375 4 170.240234375 11 c 0
 169.240234375 16 169.240234375 21 169.240234375 27 c 2
203.240234375 -11 m 1024
EndSplineSet
EndChar

StartChar: X
Encoding: 88 88 66
Width: 670
GlyphClass: 2
Flags: HMW
VStem: 279.902 66
LayerCount: 2
Fore
SplineSet
508.90234375 -18 m 0
 501.90234375 -15 495.90234375 -7 489.90234375 5 c 0
 482.90234375 19 473.90234375 41 464.90234375 71 c 0
 455.90234375 100 444.90234375 137 432.90234375 183 c 0
 420.90234375 230 409.90234375 271 400.90234375 305 c 1
 387.90234375 288 l 2
 362.90234375 255 322.90234375 200 269.90234375 123 c 0
 213.90234375 48 182.90234375 7 175.90234375 0 c 0
 166.90234375 -11 158.90234375 -18 151.90234375 -21 c 0
 147.90234375 -23 143.90234375 -24 141.90234375 -24 c 0
 136.90234375 -24 132.90234375 -19 127.90234375 -9 c 0
 124.90234375 -3 122.90234375 4 122.90234375 11 c 0
 122.90234375 18 129.90234375 31 141.90234375 48 c 0
 148.90234375 56 184.90234375 98 248.90234375 175 c 1
 308.90234375 255 351.90234375 315 380.90234375 357 c 1
 284.90234375 627 l 2
 281.90234375 635 279.90234375 642 279.90234375 649 c 0
 279.90234375 667 285.90234375 682 296.90234375 693 c 0
 304.90234375 702 312.90234375 706 320.90234375 706 c 0
 322.90234375 706 326.90234375 704 330.90234375 702 c 0
 336.90234375 698 341.90234375 690 345.90234375 679 c 0
 358.90234375 651 385.90234375 567 427.90234375 427 c 2
 434.90234375 405 l 1
 447.90234375 424 l 2
 545.90234375 568 607.90234375 654 633.90234375 683 c 0
 641.90234375 694 649.90234375 701 657.90234375 705 c 0
 662.90234375 707 667.90234375 709 671.90234375 709 c 0
 676.90234375 709 680.90234375 707 684.90234375 700 c 0
 686.90234375 695 689.90234375 689 689.90234375 683 c 0
 689.90234375 682 690.90234375 679 690.90234375 676 c 2
 687.90234375 667 l 2
 685.90234375 661 681.90234375 655 674.90234375 648 c 2
 580.90234375 532 l 1
 521.90234375 450 482.90234375 395 461.90234375 364 c 0
 459.90234375 362 456.90234375 358 452.90234375 351 c 1
 462.90234375 321 478.90234375 269 499.90234375 195 c 0
 520.90234375 121 535.90234375 75 544.90234375 55 c 0
 549.90234375 45 551.90234375 36 551.90234375 28 c 0
 551.90234375 22 550.90234375 16 549.90234375 11 c 0
 548.90234375 6 545.90234375 1 541.90234375 -5 c 0
 533.90234375 -16 525.90234375 -22 518.90234375 -22 c 0
 516.90234375 -22 512.90234375 -20 508.90234375 -18 c 0
EndSplineSet
EndChar

StartChar: Y
Encoding: 89 89 67
Width: 670
GlyphClass: 2
Flags: HMW
VStem: 250.756 76<613 653.5 626 653.5>
LayerCount: 2
Fore
SplineSet
673.755859375 623 m 0
 668.755859375 615 659.755859375 601.999023438 646.755859375 582.999023438 c 0
 633.755859375 563.999023438 621.755859375 546.999023438 613.755859375 533.999023438 c 0
 605.755859375 520.999023438 588.755859375 496.999023438 563.755859375 461.999023438 c 0
 541.755859375 426.999023438 521.755859375 396.999023438 507.755859375 374.999023438 c 0
 475.713867188 324.647460938 440.103515625 298.091796875 411.755859375 209 c 0
 390.755859375 143 395.576171875 95.607421875 347.755859375 -17 c 0
 342.659179688 -29.0009765625 321.755859375 -35 310.755859375 -38 c 0
 308.755859375 -38 304.755859375 -39 302.755859375 -39 c 0
 297.755859375 -39 292.755859375 -37 287.755859375 -33 c 0
 282.755859375 -28 278.755859375 -21 278.755859375 -13 c 0
 278.755859375 -10 280.755859375 -6 280.755859375 -4 c 0
 281.755859375 3 287.061523438 8.7080078125 290.755859375 18 c 0
 323.755859375 101 290.755859375 18 354.755859375 231 c 1
 348.755859375 258 340.755859375 291 329.755859375 329 c 0
 318.755859375 367 311.755859375 393 307.755859375 407 c 0
 303.755859375 421 296.755859375 443 286.755859375 475 c 0
 277.755859375 504 269.755859375 530 263.755859375 551 c 0
 257.755859375 572 252.755859375 593 250.755859375 613 c 2
 250.755859375 626 l 2
 250.755859375 634 251.755859375 641 253.755859375 647 c 0
 256.755859375 657 261.755859375 665 266.755859375 670 c 0
 271.755859375 675 276.755859375 680 283.755859375 682 c 0
 289.755859375 684 294.755859375 686 299.755859375 686 c 0
 303.755859375 686 307.755859375 685 311.755859375 684 c 0
 315.755859375 683 318.755859375 679 320.755859375 673 c 0
 322.755859375 667 326.755859375 659 326.755859375 648 c 0
 327.755859375 625 330.755859375 600 334.755859375 573 c 0
 335.755859375 564 337.755859375 552 341.755859375 536 c 0
 345.755859375 520 348.755859375 510 349.755859375 506 c 0
 360.755859375 464 367.755859375 442 367.755859375 442 c 2
 378.755859375 403 386.755859375 365 392.755859375 328 c 0
 393.755859375 311 395.755859375 301 396.755859375 300 c 0
 401.755859375 300 407.755859375 308 412.755859375 323 c 0
 414.755859375 327 423.755859375 340 436.755859375 362 c 0
 449.755859375 384 471.755859375 418 500.755859375 465 c 0
 529.755859375 512 550.755859375 548 565.755859375 574 c 0
 570.755859375 583 578.755859375 595 589.755859375 611 c 0
 601.755859375 627 611.755859375 640 616.755859375 649 c 0
 622.755859375 660 628.755859375 668 634.755859375 675 c 0
 640.755859375 682 646.755859375 686 651.755859375 688 c 0
 661.755859375 692 669.755859375 692 676.755859375 689 c 0
 678.755859375 687 682.755859375 684 684.755859375 682 c 0
 687.755859375 677 688.755859375 670 688.755859375 663 c 0
 688.755859375 661 688.755859375 656 687.755859375 651 c 0
 685.755859375 642 679.755859375 633 673.755859375 623 c 0
EndSplineSet
EndChar

StartChar: Z
Encoding: 90 90 68
Width: 670
GlyphClass: 2
Flags: HMW
HStem: 9 63 627 69<295.856 342.356 299.356 342.356> 629 55
LayerCount: 2
Fore
SplineSet
550.35546875 40 m 2xa0
 548.35546875 29 543.35546875 21 536.35546875 14 c 0
 529.35546875 7 520.35546875 3 506.35546875 3 c 0
 503.35546875 3 470.35546875 4 410.35546875 6 c 0
 350.35546875 8 294.35546875 9 241.35546875 9 c 0
 218.35546875 9 188.35546875 8 149.35546875 7 c 2
 148.35546875 7 l 2
 146.35546875 7 142.35546875 8 141.35546875 9 c 0
 140.35546875 10 137.35546875 15 135.35546875 20 c 0
 133.35546875 25 133.35546875 31 133.35546875 36 c 2
 133.35546875 49 l 2
 134.35546875 55 140.35546875 66 149.35546875 81 c 0
 158.35546875 96 173.35546875 117 194.35546875 144 c 0
 222.35546875 181 280.35546875 256 370.35546875 368 c 0
 459.35546875 480 527.35546875 561 571.35546875 612 c 2
 591.35546875 634 l 1
 542.35546875 632 487.35546875 630 425.35546875 629 c 0
 363.35546875 628 321.35546875 627 300.35546875 627 c 2xc0
 299.35546875 627 l 2
 292.35546875 627 286.35546875 628 285.35546875 632 c 0
 284.35546875 636 282.35546875 640 282.35546875 644 c 0
 282.35546875 648 283.35546875 651 283.35546875 655 c 0
 285.35546875 664 292.35546875 674 302.35546875 683 c 0
 312.35546875 692 324.35546875 696 336.35546875 696 c 0
 348.35546875 696 365.35546875 694 386.35546875 690 c 0
 407.35546875 686 426.35546875 684 441.35546875 684 c 2
 458.35546875 684 l 2
 497.35546875 684 548.35546875 686 612.35546875 691 c 0
 650.35546875 693 671.35546875 695 671.35546875 695 c 2
 673.35546875 695 676.35546875 694 677.35546875 693 c 0
 678.35546875 692 680.35546875 689 681.35546875 687 c 0
 683.35546875 682 686.35546875 676 686.35546875 670 c 0
 686.35546875 667 684.35546875 663 684.35546875 658 c 0
 682.35546875 654 678.35546875 648 669.35546875 639 c 0
 660.35546875 630 647.35546875 618 633.35546875 605 c 0
 619.35546875 592 610.35546875 581 603.35546875 573 c 0
 576.35546875 540 537.35546875 493 487.35546875 431 c 0
 437.35546875 369 388.35546875 308 340.35546875 247 c 0
 292.35546875 186 250.35546875 131 217.35546875 84 c 2
 202.35546875 63 l 1
 229.35546875 65 l 2
 298.35546875 70 361.35546875 72 420.35546875 72 c 0
 467.35546875 72 502.35546875 70 524.35546875 66 c 0
 536.35546875 64 544.35546875 60 548.35546875 55 c 0
 550.35546875 53 550.35546875 50 550.35546875 46 c 2
 550.35546875 40 l 2xa0
EndSplineSet
EndChar

StartChar: bracketleft
Encoding: 91 91 69
Width: 670
GlyphClass: 2
Flags: HMW
HStem: -69 47 773 64<632.292 634.292>
LayerCount: 2
Fore
SplineSet
556.291992188 837 m 1
 627.291992188 837 l 2
 641.291992188 837 649.291992188 838 649.291992188 838 c 2
 658.291992188 838 664.291992188 837 666.291992188 833 c 0
 668.291992188 829 669.291992188 824 669.291992188 819 c 2
 669.291992188 812 l 2
 668.291992188 807 665.291992188 803 663.291992188 798 c 0
 657.291992188 786 650.291992188 778 641.291992188 775 c 0
 638.291992188 774 635.291992188 773 633.291992188 773 c 0
 631.291992188 773 628.291992188 774 627.291992188 774 c 0
 604.291992188 778 566.291992188 780 514.291992188 780 c 0
 491.291992188 780 461.291992188 779 426.291992188 778 c 1
 421.291992188 758 412.291992188 719 397.291992188 661 c 0
 382.291992188 603 370.291992188 555 360.291992188 516 c 0
 350.291992188 477 339.291992188 431 327.291992188 377 c 0
 320.291992188 337 304.291992188 268 280.291992188 170 c 0
 256.291992188 72 241.291992188 8 234.291992188 -22 c 1
 277.291992188 -22 l 2
 307.291992188 -22 343.291992188 -21 385.291992188 -20 c 0
 427.291992188 -19 450.291992188 -17 455.291992188 -17 c 0
 465.291992188 -17 471.291992188 -19 473.291992188 -21 c 0
 475.291992188 -25 475.291992188 -31 474.291992188 -39 c 0
 472.291992188 -49 468.291992188 -58 462.291992188 -65 c 0
 460.291992188 -68 456.291992188 -71 453.291992188 -72 c 0
 450.291992188 -73 447.291992188 -74 445.291992188 -74 c 0
 443.291992188 -74 440.291992188 -73 438.291992188 -73 c 0
 423.291992188 -71 403.291992188 -70 378.291992188 -70 c 0
 376.291992188 -70 368.291992188 -69 357.291992188 -69 c 0
 346.291992188 -69 331.291992188 -70 314.291992188 -71 c 0
 251.291992188 -75 208.291992188 -77 186.291992188 -77 c 0
 173.291992188 -77 165.291992188 -74 161.291992188 -70 c 0
 159.291992188 -68 158.291992188 -65 158.291992188 -61 c 0
 158.291992188 -55 160.291992188 -47 165.291992188 -37 c 1
 165.291992188 -36 l 1
 168.291992188 -27 l 2
 179.291992188 8 196.291992188 71 218.291992188 161 c 0
 240.291992188 251 261.291992188 341 280.291992188 431 c 0
 283.291992188 452 288.291992188 474 294.291992188 500 c 0
 300.291992188 526 312.291992188 579 332.291992188 660 c 0
 337.291992188 681 342.291992188 703 349.291992188 729 c 0
 356.291992188 755 360.291992188 772 362.291992188 781 c 2
 363.291992188 784 l 2
 363.291992188 788 362.291992188 791 362.291992188 793 c 0
 362.291992188 805 367.291992188 815 377.291992188 824 c 0
 384.291992188 831 395.291992188 835 408.291992188 835 c 0
 452.291992188 836 493.291992188 837 529.291992188 837 c 2
 556.291992188 837 l 1
EndSplineSet
EndChar

StartChar: backslash
Encoding: 92 92 70
Width: 670
GlyphClass: 2
Flags: HMW
VStem: 472.443 71<4.29497e+09 4.29497e+09>
LayerCount: 2
Fore
SplineSet
495.442382812 -45 m 0
 484.442382812 -39 477.442382812 -29 472.442382812 -14 c 0
 470.442382812 -3 462.442382812 27 451.442382812 76 c 0
 440.442382812 125 432.442382812 160 427.442382812 181 c 0
 418.442382812 214 391.442382812 296 348.442382812 429 c 0
 305.442382812 562 279.442382812 645 271.442382812 679 c 0
 270.442382812 684 269.442382812 689 269.442382812 694 c 0
 269.442382812 702 271.442382812 709 273.442382812 715 c 0
 278.442382812 724 285.442382812 731 295.442382812 736 c 0
 303.442382812 739 310.442382812 741 317.442382812 741 c 0
 322.442382812 741 328.442382812 739 332.442382812 735 c 0
 336.442382812 731 339.442382812 726 341.442382812 718 c 0
 364.442382812 621 388.442382812 535 410.442382812 458 c 0
 445.442382812 333 490.442382812 190 544.442382812 30 c 0
 546.442382812 24 547.442382812 17 547.442382812 10 c 0
 547.442382812 3 545.442382812 -6 543.442382812 -15 c 0
 538.442382812 -31 531.442382812 -41 523.442382812 -45 c 0
 518.442382812 -47 514.442382812 -49 509.442382812 -49 c 0
 504.442382812 -49 500.442382812 -47 495.442382812 -45 c 0
EndSplineSet
EndChar

StartChar: bracketright
Encoding: 93 93 71
Width: 670
GlyphClass: 2
Flags: HMW
HStem: -69 49 780 57<493.595 508.095>
LayerCount: 2
Fore
SplineSet
520.594726562 837 m 2
 557.594726562 837 597.594726562 836 639.594726562 835 c 0
 651.594726562 835 659.594726562 832 662.594726562 827 c 0
 664.594726562 824 666.594726562 820 666.594726562 816 c 0
 666.594726562 812 665.594726562 809 665.594726562 806 c 0
 663.594726562 801 661.594726562 796 659.594726562 792 c 2
 657.594726562 789 l 1
 657.594726562 787 l 1
 655.594726562 781 l 1
 655.594726562 780 l 2
 655.594726562 775 650.594726562 760 645.594726562 735 c 2
 615.594726562 591 l 2
 603.594726562 535 590.594726562 483 577.594726562 436 c 0
 555.594726562 346 534.594726562 256 514.594726562 166 c 0
 494.594726562 76 482.594726562 14 477.594726562 -21 c 2
 475.594726562 -30 l 1
 475.594726562 -32 l 2
 475.594726562 -39 474.594726562 -45 473.594726562 -50 c 0
 472.594726562 -58 467.594726562 -64 460.594726562 -69 c 0
 453.594726562 -74 443.594726562 -77 430.594726562 -77 c 0
 408.594726562 -77 366.594726562 -74 305.594726562 -71 c 0
 287.594726562 -71 266.594726562 -69 243.594726562 -69 c 0
 220.594726562 -69 200.594726562 -71 180.594726562 -73 c 0
 177.594726562 -73 173.594726562 -74 172.594726562 -74 c 0
 167.594726562 -74 163.594726562 -72 162.594726562 -70 c 0
 161.594726562 -63 161.594726562 -55 163.594726562 -44 c 0
 165.594726562 -35 170.594726562 -29 175.594726562 -24 c 0
 180.594726562 -19 189.594726562 -17 200.594726562 -17 c 0
 204.594726562 -17 226.594726562 -19 268.594726562 -20 c 0
 310.594726562 -21 345.594726562 -22 375.594726562 -22 c 2
 412.594726562 -22 l 1
 418.594726562 4 432.594726562 67 453.594726562 165 c 0
 474.594726562 263 490.594726562 331 501.594726562 371 c 1
 501.594726562 372 l 1
 514.594726562 425 526.594726562 472 534.594726562 511 c 0
 542.594726562 550 560.594726562 639 589.594726562 778 c 1
 550.594726562 779 519.594726562 780 496.594726562 780 c 0
 446.594726562 780 409.594726562 778 383.594726562 774 c 0
 381.594726562 774 377.594726562 773 375.594726562 773 c 0
 373.594726562 773 370.594726562 773 368.594726562 774 c 0
 366.594726562 775 364.594726562 778 364.594726562 780 c 0
 361.594726562 789 360.594726562 798 362.594726562 807 c 0
 364.594726562 816 368.594726562 823 375.594726562 830 c 0
 381.594726562 835 389.594726562 838 400.594726562 838 c 2
 401.594726562 838 l 2
 429.594726562 838 460.594726562 837 493.594726562 837 c 2
 520.594726562 837 l 2
EndSplineSet
EndChar

StartChar: asciicircum
Encoding: 94 94 72
Width: 670
GlyphClass: 2
Flags: HMW
HStem: 607 326<258.613 541.113>
LayerCount: 2
Fore
SplineSet
651.112304688 614 m 0
 646.112304688 619 637.112304688 630 625.112304688 648 c 0
 623.112304688 650 619.112304688 654 617.112304688 658 c 0
 590.112304688 698 573.112304688 726 563.112304688 743 c 0
 553.112304688 760 541.112304688 787 524.112304688 824 c 2
 515.112304688 841 l 1
 503.112304688 828 l 2
 481.112304688 803 462.112304688 783 445.112304688 767 c 0
 428.112304688 751 415.112304688 739 405.112304688 731 c 0
 395.112304688 723 382.112304688 713 366.112304688 699 c 0
 350.112304688 685 334.112304688 670 316.112304688 653 c 0
 313.112304688 651 308.112304688 647 303.112304688 642 c 0
 285.112304688 625 272.112304688 615 265.112304688 610 c 0
 263.112304688 608 260.112304688 607 259.112304688 607 c 0
 258.112304688 607 257.112304688 609 255.112304688 609 c 0
 248.112304688 613 242.112304688 620 239.112304688 631 c 0
 239.112304688 632 238.112304688 634 238.112304688 636 c 0
 238.112304688 647 246.112304688 659 258.112304688 672 c 0
 273.112304688 689 294.112304688 709 320.112304688 734 c 0
 346.112304688 759 375.112304688 786 407.112304688 817 c 0
 439.112304688 848 471.112304688 882 504.112304688 918 c 0
 510.112304688 925 518.112304688 929 527.112304688 931 c 0
 531.112304688 932 535.112304688 933 539.112304688 933 c 0
 543.112304688 933 547.112304688 932 551.112304688 931 c 0
 556.112304688 929 561.112304688 926 562.112304688 922 c 2
 562.112304688 921 l 1
 578.112304688 886 592.112304688 857 604.112304688 834 c 0
 616.112304688 811 625.112304688 794 632.112304688 783 c 0
 639.112304688 772 649.112304688 756 662.112304688 735 c 0
 675.112304688 714 687.112304688 696 698.112304688 679 c 0
 701.112304688 674 703.112304688 668 703.112304688 663 c 0
 703.112304688 655 700.112304688 648 695.112304688 642 c 0
 685.112304688 629 674.112304688 621 662.112304688 616 c 0
 659.112304688 614 656.112304688 613 655.112304688 613 c 0
 654.112304688 613 652.112304688 614 651.112304688 614 c 0
EndSplineSet
EndChar

StartChar: underscore
Encoding: 95 95 73
Width: 670
GlyphClass: 2
Flags: HMW
HStem: -87 60<118.002 139.502>
LayerCount: 2
Fore
SplineSet
101.502929688 -72 m 0
 101.502929688 -68 102.502929688 -64 103.502929688 -59 c 0
 105.502929688 -49 108.502929688 -41 113.502929688 -36 c 0
 118.502929688 -30 126.502929688 -27 137.502929688 -27 c 2
 139.502929688 -27 l 2
 196.502929688 -28 244.502929688 -29 284.502929688 -29 c 0
 324.502929688 -29 373.502929688 -28 434.502929688 -27 c 0
 483.502929688 -27 512.502929688 -25 523.502929688 -25 c 0
 534.502929688 -25 540.502929688 -27 541.502929688 -30 c 0
 543.502929688 -35 544.502929688 -42 543.502929688 -51 c 0
 541.502929688 -62 536.502929688 -70 531.502929688 -75 c 0
 524.502929688 -82 515.502929688 -85 504.502929688 -85 c 0
 275.502929688 -86 148.502929688 -87 121.502929688 -87 c 0
 114.502929688 -87 109.502929688 -86 106.502929688 -84 c 0
 103.502929688 -82 101.502929688 -78 101.502929688 -72 c 0
EndSplineSet
EndChar

StartChar: grave
Encoding: 96 96 74
Width: 670
GlyphClass: 2
Flags: HMW
HStem: 636 161<438.38 538.38>
LayerCount: 2
Fore
SplineSet
537.379882812 636 m 0
 529.379882812 636 521.379882812 639 512.379882812 644 c 0
 483.379882812 665 464.379882812 678 457.379882812 683 c 0
 450.379882812 688 441.379882812 695 430.379882812 704 c 0
 419.379882812 713 409.379882812 721 402.379882812 728 c 0
 397.379882812 734 394.379882812 743 394.379882812 754 c 0
 394.379882812 763 397.379882812 772 402.379882812 781 c 0
 409.379882812 788 419.379882812 794 430.379882812 796 c 0
 433.379882812 796 437.379882812 797 439.379882812 797 c 0
 445.379882812 797 450.379882812 796 455.379882812 792 c 0
 457.379882812 790 473.379882812 773 502.379882812 742 c 0
 507.379882812 736 515.379882812 729 525.379882812 720 c 0
 535.379882812 711 545.379882812 703 553.379882812 698 c 0
 563.379882812 692 569.379882812 684 571.379882812 673 c 0
 571.379882812 670 572.379882812 666 572.379882812 664 c 0
 572.379882812 658 569.379882812 653 566.379882812 649 c 0
 561.379882812 642 553.379882812 638 543.379882812 637 c 0
 541.379882812 637 539.379882812 636 537.379882812 636 c 0
EndSplineSet
EndChar

StartChar: a
Encoding: 97 97 75
Width: 670
GlyphClass: 2
Flags: HMW
HStem: -28 69 438 72
VStem: 465.886 51
LayerCount: 2
Fore
SplineSet
303.885742188 450 m 0
 328.885742188 471 363.885742188 486.999023438 406.885742188 499.999023438 c 0
 427.885742188 505.999023438 449.885742188 509.999023438 472.885742188 509.999023438 c 2
 480.885742188 509.999023438 l 2
 532.885742188 508.999023438 564.885742188 492.999023438 574.885742188 464.999023438 c 0
 582.086914062 444.74609375 585.641601562 420.64453125 585.641601562 392.51171875 c 0
 585.641601562 358.13671875 580.333984375 317.743164062 569.885742188 270.999023438 c 0
 569.885742188 268.999023438 567.885742188 260.999023438 564.885742188 247.999023438 c 0
 561.885742188 234.999023438 556.885742188 212.999023438 548.885742188 182.999023438 c 0
 540.885742188 152.999023438 537.885742188 136.999023438 537.885742188 135.999023438 c 0
 533.885742188 118.999023438 528.885742188 86.9990234375 522.885742188 36.9990234375 c 0
 521.885742188 21.9990234375 518.885742188 8.9990234375 516.885742188 -2.0009765625 c 0
 511.885742188 -26.0009765625 504.885742188 -38.0009765625 496.885742188 -38.0009765625 c 0
 475.885742188 -38.0009765625 465.885742188 -34.0009765625 465.885742188 -25.0009765625 c 0
 464.713867188 -7.427734375 464.228515625 12.205078125 464.228515625 34.09765625 c 0
 464.228515625 49.578125 464.470703125 66.1884765625 464.884765625 84 c 1
 457.884765625 71 452.884765625 64 448.884765625 64 c 0
 420.884765625 29 395.884765625 5 372.884765625 -10 c 0
 353.884765625 -22 326.884765625 -28 289.884765625 -28 c 0
 273.884765625 -28 256.884765625 -23 238.884765625 -12 c 0
 219.884765625 -1 204.884765625 17 193.884765625 40 c 0
 182.884765625 63 177.884765625 87 175.884765625 111 c 1
 179.884765625 128 185.884765625 146 193.884765625 165 c 0
 202.884765625 186 214.884765625 203 230.884765625 217 c 0
 253.884765625 238 269.884765625 251 277.884765625 255 c 0
 312.884765625 273 332.884765625 284 337.884765625 285 c 0
 379.884765625 298 402.884765625 306 407.884765625 307 c 0
 436.884765625 311 454.884765625 314 462.884765625 316 c 0
 465.884765625 317 483.884765625 323 515.884765625 335 c 0
 516.884765625 339 518.884765625 340 518.884765625 340 c 2
 521.884765625 346 523.884765625 353 524.884765625 359 c 0
 525.884765625 365 527.884765625 370 527.884765625 376 c 0
 527.884765625 382 526.884765625 389 522.884765625 398 c 0
 517.884765625 410 509.884765625 419 500.884765625 425 c 0
 493.884765625 431 479.884765625 436 460.884765625 437 c 0
 457.884765625 437 454.884765625 438 451.884765625 438 c 0
 438.884765625 438 425.884765625 435 409.884765625 430 c 0
 393.884765625 425 380.884765625 417 368.884765625 409 c 0
 346.884765625 395 329.884765625 383 318.884765625 373 c 0
 298.884765625 352 283.884765625 340 270.884765625 340 c 0
 264.884765625 340 258.884765625 343 253.884765625 348 c 0
 246.650390625 354.430664062 243.29296875 361.5078125 243.29296875 369.75 c 0
 243.29296875 371.76171875 243.493164062 373.842773438 243.885742188 376 c 0
 245.885742188 387 254.885742188 401 266.885742188 415 c 0
 277.885742188 428 289.885742188 439 303.885742188 450 c 0
392.885742188 67.9990234375 m 0
 405.885742188 77.9990234375 417.885742188 89.9990234375 428.885742188 103.999023438 c 0
 440.885742188 117.999023438 452.885742188 135.999023438 463.885742188 156.999023438 c 0
 474.885742188 177.999023438 484.885742188 200.999023438 491.885742188 225.999023438 c 2
 494.885742188 236.999023438 l 1
 483.885742188 235.999023438 l 2
 368.885742188 224.999023438 289.885742188 191.999023438 246.885742188 136.999023438 c 1
 243.885742188 131.999023438 l 1
 244.885742188 126.999023438 l 2
 252.885742188 94.9990234375 262.885742188 72.9990234375 276.885742188 59.9990234375 c 0
 288.885742188 46.9990234375 303.885742188 40.9990234375 322.885742188 40.9990234375 c 0
 344.885742188 40.9990234375 368.885742188 48.9990234375 392.885742188 67.9990234375 c 0
EndSplineSet
EndChar

StartChar: b
Encoding: 98 98 76
Width: 670
GlyphClass: 2
Flags: HMW
HStem: -14 74<328.521 351.021> 425 65<394.521 469.021>
VStem: 160.521 60 509.521 69<295.5 370.5>
LayerCount: 2
Fore
SplineSet
567.521484375 263 m 0
 560.521484375 227 549.521484375 194 536.521484375 164 c 0
 523.521484375 134 507.521484375 107 491.521484375 86 c 0
 475.521484375 65 458.521484375 46 441.521484375 31 c 0
 424.521484375 16 408.521484375 4 391.521484375 -3 c 0
 374.521484375 -10 358.521484375 -14 343.521484375 -14 c 0
 301.521484375 -14 266.521484375 2 240.521484375 31 c 1
 235.521484375 29 231.521484375 34 226.521484375 47 c 1
 224.521484375 32 222.521484375 26 220.521484375 26 c 0
 215.521484375 12 210.521484375 2 203.521484375 -3 c 0
 196.521484375 -8 188.521484375 -11 179.521484375 -11 c 0
 172.521484375 -11 166.521484375 -9 164.521484375 -6 c 0
 162.521484375 -3 160.521484375 2 160.521484375 8 c 0
 160.521484375 14 161.521484375 22 163.521484375 30 c 0
 181.521484375 115 208.521484375 237 244.521484375 396 c 0
 279.521484375 555 302.521484375 663 315.521484375 722 c 0
 319.521484375 741 324.521484375 753 330.521484375 759 c 0
 336.521484375 765 344.521484375 768 354.521484375 768 c 0
 360.521484375 768 365.521484375 766 368.521484375 761 c 0
 370.521484375 759 371.521484375 754 371.521484375 748 c 0
 371.521484375 742 370.521484375 733 368.521484375 723 c 0
 361.521484375 698 354.521484375 666 347.521484375 624 c 0
 334.521484375 564 321.521484375 499 308.521484375 428 c 1
 316.521484375 437 324.521484375 443 331.521484375 445 c 0
 368.521484375 475 409.521484375 490 452.521484375 490 c 0
 485.521484375 490 513.521484375 480 534.521484375 461 c 0
 563.521484375 436 578.521484375 397 578.521484375 344 c 0
 578.521484375 319 574.521484375 292 567.521484375 263 c 0
477.521484375 397 m 0
 460.521484375 416 438.521484375 425 412.521484375 425 c 0
 376.521484375 425 339.521484375 408 300.521484375 374 c 2
 297.521484375 371 l 1
 280.521484375 288 259.521484375 201 237.521484375 109 c 1
 240.521484375 105 l 2
 251.521484375 88 265.521484375 77 283.521484375 70 c 0
 298.521484375 63 317.521484375 60 339.521484375 60 c 0
 379.521484375 60 412.521484375 78 440.521484375 113 c 0
 469.521484375 147 490.521484375 193 503.521484375 251 c 0
 507.521484375 269 509.521484375 287 509.521484375 304 c 0
 509.521484375 344 498.521484375 375 477.521484375 397 c 0
EndSplineSet
EndChar

StartChar: c
Encoding: 99 99 77
Width: 670
GlyphClass: 2
Flags: HMW
HStem: -31 68<308.941 355.941> 458 69<446.941 502.941>
VStem: 196.941 70<123.5 126.5> 506.941 70<358.5 405>
LayerCount: 2
Fore
SplineSet
552.94140625 492 m 0
 569.94140625 468 576.94140625 440 576.94140625 407 c 2
 576.94140625 405 l 2
 576.94140625 389 574.94140625 376 569.94140625 365 c 0
 563.94140625 352 553.94140625 343 540.94140625 337 c 0
 534.94140625 335 529.94140625 333 524.94140625 333 c 0
 521.94140625 333 517.94140625 334 515.94140625 335 c 0
 513.94140625 335 511.94140625 338 509.94140625 343 c 0
 507.94140625 348 506.94140625 354 506.94140625 363 c 0
 506.94140625 366 504.94140625 377 504.94140625 397 c 0
 504.94140625 402 504.94140625 408 503.94140625 415 c 0
 502.94140625 422 500.94140625 428 498.94140625 432 c 0
 496.94140625 436 492.94140625 440 488.94140625 444 c 0
 480.94140625 453 468.94140625 458 451.94140625 458 c 0
 441.94140625 458 431.94140625 456 420.94140625 451 c 0
 409.94140625 446 397.94140625 438 384.94140625 426 c 0
 371.94140625 414 359.94140625 399 347.94140625 382 c 0
 335.94140625 365 323.94140625 343 312.94140625 315 c 0
 299.94140625 287 288.94140625 256 279.94140625 221 c 0
 270.94140625 189 266.94140625 161 266.94140625 137 c 0
 266.94140625 110 272.94140625 88 283.94140625 71 c 0
 298.94140625 50 319.94140625 39 346.94140625 37 c 2
 355.94140625 37 l 2
 378.94140625 37 399.94140625 42 417.94140625 52 c 0
 438.94140625 64 453.94140625 78 460.94140625 93 c 0
 466.94140625 104 472.94140625 112 478.94140625 118 c 0
 484.94140625 124 487.94140625 128 491.94140625 129 c 0
 495.94140625 130 499.94140625 131 502.94140625 131 c 0
 505.94140625 131 508.94140625 129 513.94140625 127 c 0
 516.94140625 125 519.94140625 122 521.94140625 120 c 0
 523.94140625 118 524.94140625 114 524.94140625 110 c 0
 524.94140625 100 519.94140625 86 508.94140625 69 c 0
 493.94140625 44 469.94140625 22 438.94140625 2 c 0
 423.94140625 -9 405.94140625 -17 385.94140625 -23 c 0
 365.94140625 -28 343.94140625 -31 321.94140625 -31 c 0
 295.94140625 -31 273.94140625 -26 253.94140625 -14 c 0
 235.94140625 -3 222.94140625 12 213.94140625 32 c 0
 202.94140625 57 196.94140625 85 196.94140625 116 c 0
 196.94140625 137 199.94140625 158 204.94140625 180 c 0
 215.94140625 227 229.94140625 269 246.94140625 308 c 0
 263.94140625 347 282.94140625 379 303.94140625 406 c 0
 323.94140625 433 342.94140625 455 362.94140625 474 c 0
 401.94140625 509 443.94140625 527 489.94140625 527 c 0
 515.94140625 527 536.94140625 515 552.94140625 492 c 0
EndSplineSet
EndChar

StartChar: d
Encoding: 100 100 78
Width: 670
GlyphClass: 2
Flags: HMW
HStem: -14 76<312.948 347.948> 436 75<419.948 423.948 419.948 419.948>
VStem: 192.948 62<171 182> 463.948 65<20.5 50>
LayerCount: 2
Fore
SplineSet
375.948242188 65 m 0
 384.948242188 67 392.948242188 71 399.948242188 74 c 0
 406.948242188 77 412.948242188 81 419.948242188 87 c 0
 426.948242188 93 431.948242188 99 436.948242188 103 c 0
 441.948242188 107 446.948242188 113 452.948242188 121 c 0
 458.948242188 129 464.948242188 135 466.948242188 139 c 0
 468.948242188 143 471.948242188 147 474.948242188 152 c 0
 477.948242188 157 480.948242188 162 482.948242188 164 c 0
 495.948242188 226 502.948242188 261 504.948242188 268 c 0
 505.948242188 275 507.948242188 286 511.948242188 301 c 0
 515.948242188 316 517.948242188 329 519.948242188 338 c 1
 518.948242188 341 l 2
 511.948242188 368 500.948242188 391 483.948242188 409 c 0
 466.948242188 427 446.948242188 436 423.948242188 436 c 2
 419.948242188 436 l 2
 395.948242188 435 372.948242188 426 351.948242188 410 c 0
 330.948242188 394 314.948242188 373 299.948242188 348 c 0
 284.948242188 323 272.948242188 296 265.948242188 267 c 0
 257.948242188 235 254.948242188 207 254.948242188 183 c 0
 254.948242188 159 256.948242188 137 263.948242188 120 c 0
 271.948242188 99 285.948242188 83 302.948242188 74 c 0
 315.948242188 66 329.948242188 62 346.948242188 62 c 2
 347.948242188 62 l 2
 356.948242188 62 366.948242188 63 375.948242188 65 c 0
192.948242188 166 m 0
 192.948242188 198 196.948242188 233 205.948242188 271 c 0
 214.948242188 316 231.948242188 358 253.948242188 394 c 0
 275.948242188 430 301.948242188 458 332.948242188 479 c 0
 361.948242188 500 393.948242188 511 425.948242188 511 c 0
 469.948242188 511 505.948242188 498 530.948242188 472 c 1
 535.948242188 475 539.948242188 471 544.948242188 458 c 1
 575.948242188 595 597.948242188 681 608.948242188 716 c 0
 613.948242188 733 620.948242188 745 627.948242188 754 c 0
 636.948242188 764 645.948242188 769 657.948242188 769 c 0
 664.948242188 769 671.948242188 766 673.948242188 761 c 0
 674.948242188 760 675.948242188 757 675.948242188 753 c 0
 675.948242188 746 672.948242188 736 669.948242188 723 c 0
 658.948242188 681 639.948242188 606 611.948242188 495 c 0
 583.948242188 384 564.948242188 299 551.948242188 242 c 1
 551.948242188 241 l 1
 544.948242188 202 538.948242188 168 534.948242188 139 c 0
 530.948242188 110 529.948242188 89 529.948242188 77 c 0
 529.948242188 65 528.948242188 54 528.948242188 46 c 0
 528.948242188 38 527.948242188 32 525.948242188 27 c 0
 521.948242188 16 516.948242188 8 509.948242188 2 c 0
 504.948242188 -3 497.948242188 -7 488.948242188 -9 c 0
 485.948242188 -9 480.948242188 -10 478.948242188 -10 c 0
 476.948242188 -10 473.948242188 -9 471.948242188 -8 c 0
 469.948242188 -7 468.948242188 -4 467.948242188 -1 c 0
 465.948242188 6 463.948242188 15 463.948242188 26 c 0
 463.948242188 34 464.948242188 43 465.948242188 52 c 0
 466.948242188 60 468.948242188 74 470.948242188 95 c 1
 462.948242188 78 454.948242188 67 446.948242188 62 c 0
 438.948242188 51 430.948242188 42 422.948242188 34 c 0
 414.948242188 26 405.948242188 17 394.948242188 10 c 0
 373.948242188 -6 349.948242188 -14 320.948242188 -14 c 0
 304.948242188 -14 288.948242188 -10 273.948242188 -3 c 0
 258.948242188 4 243.948242188 15 231.948242188 30 c 0
 219.948242188 45 209.948242188 64 202.948242188 85 c 0
 195.948242188 106 192.948242188 134 192.948242188 166 c 0
EndSplineSet
EndChar

StartChar: e
Encoding: 101 101 79
Width: 670
GlyphClass: 2
Flags: HMW
HStem: -28 60<320.568 353.568 320.568 353.568> 455 66<423.568 471.568>
VStem: 199.568 61<134 140.5>
LayerCount: 2
Fore
SplineSet
504.567382812 60 m 0
 492.567382812 45 480.567382812 33 469.567382812 24 c 0
 458.567382812 14 446.567382812 5 432.567382812 -4 c 0
 406.567382812 -20 371.567382812 -28 329.567382812 -28 c 2
 320.567382812 -28 l 2
 268.567382812 -27 233.567382812 -4 214.567382812 39 c 0
 204.567382812 63 199.567382812 91 199.567382812 124 c 0
 199.567382812 157 204.567382812 193 213.567382812 234 c 0
 223.567382812 279 238.567382812 320 258.567382812 356 c 0
 278.567382812 392 299.567382812 423 322.567382812 447 c 0
 343.567382812 471 365.567382812 489 389.567382812 502 c 0
 413.567382812 515 438.567382812 521 463.567382812 521 c 0
 479.567382812 521 495.567382812 516 512.567382812 505 c 0
 529.567382812 494 543.567382812 479 556.567382812 458 c 0
 569.567382812 437 576.567382812 416 577.567382812 393 c 0
 577.567382812 378 569.567382812 362 555.567382812 343 c 0
 541.567382812 324 527.567382812 310 514.567382812 300 c 0
 488.567382812 280 456.567382812 261 416.567382812 241 c 0
 396.567382812 232 380.567382812 224 366.567382812 217 c 0
 352.567382812 210 336.567382812 202 315.567382812 193 c 0
 297.567382812 184 279.567382812 178 262.567382812 173 c 1
 261.567382812 158 260.567382812 146 260.567382812 138 c 0
 260.567382812 130 261.567382812 123 261.567382812 116 c 0
 263.567382812 101 267.567382812 88 273.567382812 75 c 0
 279.567382812 62 287.567382812 51 300.567382812 44 c 0
 313.567382812 36 329.567382812 32 347.567382812 32 c 0
 359.567382812 32 372.567382812 35 386.567382812 40 c 0
 400.567382812 45 412.567382812 51 423.567382812 60 c 0
 443.567382812 77 457.567382812 89 464.567382812 98 c 0
 475.567382812 110 484.567382812 119 492.567382812 124 c 0
 497.567382812 127 503.567382812 129 507.567382812 129 c 0
 511.567382812 129 515.567382812 127 518.567382812 124 c 0
 523.567382812 119 526.567382812 112 526.567382812 105 c 0
 526.567382812 93 519.567382812 78 504.567382812 60 c 0
371.567382812 427 m 0
 360.567382812 417 349.567382812 405 339.567382812 391 c 0
 329.567382812 377 319.567382812 360 309.567382812 339 c 0
 298.567382812 318 289.567382812 295 282.567382812 270 c 2
 277.567382812 249 l 1
 297.567382812 255 l 2
 400.567382812 287 470.567382812 319 507.567382812 352 c 2
 513.567382812 357 l 1
 511.567382812 364 l 2
 504.567382812 396 495.567382812 419 482.567382812 433 c 0
 468.567382812 448 452.567382812 455 433.567382812 455 c 0
 413.567382812 455 392.567382812 446 371.567382812 427 c 0
EndSplineSet
EndChar

StartChar: f
Encoding: 102 102 80
Width: 670
GlyphClass: 2
Flags: HMW
HStem: -16 63 422 65 428 61 703 62
LayerCount: 2
Fore
SplineSet
453.288085938 -5 m 0xb0
 446.288085938 -12 439.287109375 -16.0009765625 428.287109375 -16.0009765625 c 0
 372.287109375 -17.0009765625 335.287109375 -18.0009765625 317.287109375 -18.0009765625 c 0
 263.287109375 -18.0009765625 223.287109375 -16.0009765625 196.287109375 -14.0009765625 c 1
 196.287109375 -22.0009765625 195.287109375 -22.0009765625 195.287109375 -14.0009765625 c 1
 185.287109375 -14.0009765625 178.287109375 -11.0009765625 176.287109375 -6.0009765625 c 0
 174.287109375 -2.0009765625 173.287109375 1.9990234375 173.287109375 5.9990234375 c 0
 173.287109375 9.9990234375 174.287109375 13.9990234375 175.287109375 18.9990234375 c 0
 177.287109375 29.9990234375 181.287109375 38.9990234375 188.287109375 45.9990234375 c 0
 194.287109375 51.9990234375 204.287109375 54.9990234375 215.287109375 54.9990234375 c 2
 220.287109375 54.9990234375 l 2
 224.287109375 54.9990234375 231.287109375 53.9990234375 243.287109375 53.9990234375 c 0
 255.287109375 53.9990234375 268.287109375 51.9990234375 281.287109375 51.9990234375 c 0
 282.287109375 48.9990234375 283.287109375 51.9990234375 283.287109375 61.9990234375 c 0
 286.287109375 74.9990234375 289.287109375 87.9990234375 290.287109375 98.9990234375 c 0
 291.287109375 109.999023438 293.287109375 123.999023438 296.287109375 137.999023438 c 0
 299.287109375 151.999023438 302.287109375 171.999023438 306.287109375 198.999023438 c 0
 324.287109375 311.999023438 337.287109375 386.999023438 343.287109375 423.999023438 c 1
 338.287109375 428.999023438 333.287109375 427.999023438 328.287109375 422.999023438 c 1
 319.287109375 422.999023438 306.287109375 421.999023438 290.287109375 421.999023438 c 0
 284.287109375 421.999023438 280.287109375 422.999023438 278.287109375 424.999023438 c 0
 276.287109375 426.999023438 274.287109375 431.999023438 274.287109375 437.999023438 c 0
 274.287109375 441.999023438 275.287109375 446.999023438 276.287109375 451.999023438 c 0
 278.287109375 462.999023438 281.287109375 471.999023438 286.287109375 477.999023438 c 0
 291.287109375 483.999023438 298.287109375 486.999023438 307.287109375 486.999023438 c 2
 354.287109375 486.999023438 l 1xd0
 356.287109375 505.999023438 361.287109375 524.999023438 365.287109375 545.999023438 c 0
 372.287109375 576.999023438 380.287109375 603.999023438 393.287109375 628.999023438 c 0
 406.287109375 653.999023438 420.287109375 673.999023438 437.287109375 690.999023438 c 0
 454.287109375 707.999023438 472.287109375 720.999023438 493.287109375 731.999023438 c 0
 514.287109375 742.999023438 535.287109375 751.999023438 557.287109375 756.999023438 c 0
 581.287109375 761.999023438 607.287109375 764.999023438 632.287109375 764.999023438 c 0
 641.287109375 764.999023438 647.287109375 761.999023438 651.287109375 757.999023438 c 0
 653.287109375 755.999023438 654.287109375 752.999023438 654.287109375 749.999023438 c 0
 654.287109375 746.999023438 653.287109375 742.999023438 653.287109375 739.999023438 c 0
 651.287109375 728.999023438 645.287109375 719.999023438 639.287109375 712.999023438 c 0
 633.287109375 705.999023438 626.287109375 702.999023438 621.287109375 702.999023438 c 0
 568.287109375 702.999023438 524.287109375 687.999023438 487.287109375 657.999023438 c 0
 451.287109375 627.999023438 427.287109375 588.999023438 417.287109375 540.999023438 c 0
 414.287109375 525.999023438 411.287109375 513.999023438 410.287109375 502.999023438 c 2
 410.287109375 502.999023438 409.287109375 500.999023438 409.287109375 488.999023438 c 1xb0
 437.159179688 492.901367188 465.341796875 494.939453125 494.008789062 494.939453125 c 0
 516.767578125 494.939453125 539.83203125 493.655273438 563.288085938 491 c 0
 572.288085938 491 577.288085938 489 578.288085938 487 c 0xd0
 580.288085938 482 581.288085938 476 580.288085938 467 c 0
 578.288085938 456 574.288085938 446 569.288085938 440 c 0
 564.288085938 434 556.288085938 431 546.288085938 431 c 0
 533.288085938 431 505.288085938 430 462.288085938 428 c 0
 440.288085938 428 419.288085938 426 398.288085938 426 c 1
 393.288085938 401 388.288085938 370 382.288085938 334 c 0
 376.288085938 298 364.288085938 226 345.288085938 116 c 0
 340.288085938 83 337.288085938 65 337.288085938 63 c 2
 337.288085938 51 l 2
 340.288085938 44 343.288085938 44 346.288085938 50 c 1
 390.288085938 48 425.288085938 47 447.288085938 47 c 0
 456.288085938 47 463.288085938 45 465.288085938 41 c 0
 467.288085938 39 468.288085938 35 468.288085938 32 c 0
 468.288085938 29 467.288085938 25 467.288085938 22 c 0
 465.288085938 11 460.288085938 2 453.288085938 -5 c 0xb0
EndSplineSet
EndChar

